<?xml version="1.0" standalone="no"?>
<!DOCTYPE svg PUBLIC "-//W3C//DTD SVG 20010904//EN"
 "http://www.w3.org/TR/2001/REC-SVG-20010904/DTD/svg10.dtd">
<svg version="1.0" xmlns="http://www.w3.org/2000/svg"
 width="829.000000pt" height="680.000000pt" viewBox="0 0 829.000000 680.000000"
 preserveAspectRatio="xMidYMid meet">

<g transform="translate(0.000000,680.000000) scale(0.100000,-0.100000)"
fill="#000000" stroke="none">
<path d="M3910 6431 l0 -238 -80 -7 c-101 -8 -248 -38 -415 -83 -366 -99 -672
-246 -961 -464 l-93 -70 -31 33 c-17 18 -83 92 -147 165 l-116 132 -31 -25
c-67 -55 -256 -236 -256 -245 0 -11 73 -93 196 -221 52 -53 94 -100 94 -105 0
-4 -28 -42 -62 -83 -422 -514 -620 -947 -703 -1535 -8 -60 -17 -125 -20 -142
l-6 -33 -239 0 -240 0 0 -172 c0 -95 3 -183 6 -195 6 -21 6 -21 233 -16 137 4
230 2 234 -3 3 -5 15 -81 27 -169 84 -634 312 -1139 722 -1597 l69 -77 -160
-164 -161 -164 140 -137 c78 -76 145 -136 150 -134 5 2 77 81 160 176 84 94
155 172 159 172 4 0 32 -18 62 -41 86 -65 313 -197 448 -262 110 -52 270 -117
289 -117 4 0 7 111 7 246 0 245 0 247 -23 262 -21 14 -135 107 -325 265 -45
38 -134 111 -197 163 -63 51 -124 102 -135 111 -48 43 -260 299 -409 496 -65
85 -60 73 -237 595 -43 129 -79 241 -79 249 0 8 7 30 15 48 26 52 83 69 149
41 38 -16 50 -41 131 -269 29 -84 81 -228 115 -322 34 -93 64 -179 67 -190 11
-39 23 -49 393 -315 327 -236 364 -263 395 -289 16 -14 23 -18 16 -8 -22 28 8
21 41 -10 22 -21 28 -23 28 -10 0 24 -66 169 -87 191 -26 26 -261 206 -349
267 -79 55 -108 92 -119 151 -20 107 95 223 200 204 23 -5 145 -80 334 -206
164 -109 364 -241 445 -294 80 -53 169 -117 197 -143 96 -89 173 -246 198
-403 7 -39 11 -252 11 -529 0 -408 -2 -462 -15 -457 -13 5 -15 -14 -15 -134
l0 -140 160 0 160 0 0 141 c0 137 0 140 -21 134 l-20 -7 3 494 c4 473 5 496
26 572 28 101 79 205 137 278 38 48 97 92 387 287 189 126 399 268 468 314 68
47 137 88 154 91 65 13 157 -38 193 -107 21 -41 12 -126 -18 -168 -21 -30
-399 -319 -417 -319 -10 0 -115 -210 -109 -217 3 -2 22 7 42 22 21 14 43 25
49 24 7 0 6 -3 -1 -6 -7 -2 -13 -9 -13 -15 0 -5 24 10 53 35 28 24 133 100
232 170 99 69 221 155 270 192 50 36 122 88 161 115 51 35 74 57 78 77 4 15
41 120 82 233 41 113 92 255 114 315 22 61 49 136 61 168 23 65 61 97 114 97
46 0 92 -33 104 -75 12 -46 4 -76 -94 -360 -42 -121 -92 -264 -111 -318 -41
-117 -45 -126 -100 -197 -341 -434 -384 -485 -509 -587 -33 -27 -97 -79 -143
-116 -47 -39 -87 -65 -94 -61 -6 4 -8 3 -5 -3 4 -6 -68 -71 -163 -148 l-169
-137 -3 -235 c-2 -129 0 -240 4 -246 7 -12 43 0 228 80 148 63 298 146 447
245 59 40 113 76 119 80 10 7 69 -56 253 -269 34 -40 66 -73 72 -73 14 0 289
259 289 272 0 6 -70 83 -156 170 l-156 158 54 61 c227 259 401 529 518 802
118 277 204 639 223 942 l2 40 245 0 245 1 3 192 2 192 -244 0 -245 0 -5 33
c-3 17 -10 75 -16 127 -15 129 -64 367 -101 492 -103 348 -302 701 -582 1035
-42 50 -77 95 -77 100 0 8 17 28 191 214 l109 117 -107 98 c-60 54 -126 115
-149 137 l-41 38 -120 -138 c-66 -76 -132 -151 -145 -168 l-25 -29 -100 75
c-179 136 -443 286 -638 362 -202 80 -487 153 -708 182 -60 8 -112 17 -117 20
-8 5 -5 337 4 428 l4 37 -179 0 -179 0 0 -239z m314 -359 c27 -9 71 -36 97
-59 27 -25 57 -43 71 -43 13 0 29 -9 37 -22 34 -55 71 -127 71 -140 0 -7 -19
-22 -42 -33 -56 -26 -65 -43 -50 -93 11 -35 18 -42 55 -54 53 -17 53 -32 -5
-148 -42 -82 -44 -85 -78 -85 -31 0 -36 -4 -46 -34 -6 -18 -22 -40 -35 -47
-22 -12 -147 -54 -163 -54 -3 0 -6 15 -6 33 0 46 -30 102 -55 102 -24 0 -55
-56 -55 -102 0 -31 0 -31 -35 -22 -71 20 -139 63 -154 97 -12 26 -20 32 -46
32 -31 0 -35 5 -79 91 -25 49 -46 99 -46 109 0 13 13 22 42 32 81 25 86 104
10 146 -23 13 -42 29 -42 35 0 7 17 45 37 85 35 68 40 73 64 68 22 -4 32 2 57
32 21 27 49 46 99 65 37 15 73 27 79 27 5 0 16 -27 22 -60 13 -62 30 -81 64
-72 25 6 38 41 38 98 0 51 -6 50 94 16z m-754 -196 c28 -35 -11 -93 -47 -70
-36 22 -23 84 17 84 10 0 23 -7 30 -14z m1294 -7 c30 -43 -25 -94 -62 -57 -17
17 -15 44 4 62 21 22 40 20 58 -5z m-1353 -209 c22 -13 25 -52 4 -70 -22 -18
-49 -8 -60 24 -8 23 -6 30 10 42 23 17 21 17 46 4z m1404 -30 c0 -31 -3 -35
-27 -38 -33 -4 -50 22 -37 56 7 18 15 23 36 20 25 -3 28 -7 28 -38z m-1545
-246 c0 -9 9 -37 21 -64 19 -45 23 -48 67 -55 99 -14 99 -14 50 -45 -24 -15
-52 -30 -63 -33 -19 -6 -74 -109 -75 -140 -1 -6 -12 17 -26 53 -34 89 -52 103
-129 95 l-60 -6 35 21 c123 73 124 73 145 137 18 56 35 73 35 37z m-677 -21
c-7 -2 -21 -2 -30 0 -10 3 -4 5 12 5 17 0 24 -2 18 -5z m3117 -18 c30 -8 76
-15 101 -15 l46 0 17 -107 c24 -159 22 -207 -20 -400 -4 -20 -11 -23 -52 -23
-26 0 -69 -7 -96 -15 -70 -21 -122 -19 -212 10 -43 14 -91 25 -105 25 -25 0
-27 4 -42 88 -29 159 -29 172 -8 280 12 57 21 113 21 124 0 18 4 20 38 14 26
-4 56 1 93 14 65 23 144 25 219 5z m-786 -87 c20 -60 22 -62 66 -74 25 -6 59
-17 75 -24 l30 -12 -62 -23 c-34 -12 -74 -30 -89 -39 -25 -17 -73 -109 -75
-144 0 -9 -8 13 -18 51 -24 91 -45 118 -116 143 l-59 21 57 22 c32 11 64 21
71 21 8 0 31 29 52 65 21 35 40 62 42 60 3 -3 14 -33 26 -67z m-2283 -54 c68
-34 111 -126 90 -194 -14 -49 -60 -103 -101 -120 -44 -18 -130 -8 -169 19 -60
43 -91 151 -58 207 58 100 148 133 238 88z m-361 -118 c0 -2 -7 -6 -15 -10 -8
-3 -15 -1 -15 4 0 6 7 10 15 10 8 0 15 -2 15 -4z m-9 -76 c5 0 9 -4 9 -10 0
-5 -7 -10 -15 -10 -11 0 -15 10 -14 38 2 30 3 32 6 10 2 -16 9 -28 14 -28z
m59 -125 c-15 -18 -33 -20 -27 -2 2 6 10 11 16 10 6 -2 11 5 12 15 0 11 2 12
6 4 3 -7 -1 -19 -7 -27z m450 -40 c-7 -9 -15 -13 -19 -10 -3 3 1 10 9 15 21
14 24 12 10 -5z m-40 1 c0 -2 -8 -10 -17 -17 -16 -13 -17 -12 -4 4 13 16 21
21 21 13z m-309 -49 c-10 -9 -11 -8 -5 6 3 10 9 15 12 12 3 -3 0 -11 -7 -18z
m96 -39 c-3 -8 -6 -5 -6 6 -1 11 2 17 5 13 3 -3 4 -12 1 -19z m2742 -117 c23
-23 18 -58 -11 -66 -38 -13 -66 43 -36 73 16 16 25 15 47 -7z m-2325 -7 c24
-23 20 -53 -9 -66 -45 -20 -75 31 -39 66 8 9 19 16 24 16 5 0 16 -7 24 -16z
m-1003 -31 c13 -16 12 -17 -3 -4 -10 7 -18 15 -18 17 0 8 8 3 21 -13z m3259
-68 c18 -22 -2 -65 -30 -65 -28 0 -48 43 -30 65 7 8 20 15 30 15 10 0 23 -7
30 -15z m-2166 -17 c23 -38 -35 -78 -61 -42 -17 23 -16 29 3 49 20 19 43 16
58 -7z m1737 -15 c13 -16 12 -17 -3 -4 -10 7 -18 15 -18 17 0 8 8 3 21 -13z
m-2895 -108 c8 -20 -14 -55 -34 -55 -40 0 -59 60 -25 79 20 11 51 -2 59 -24z
m3869 25 c-3 -5 -12 -10 -18 -10 -7 0 -6 4 3 10 19 12 23 12 15 0z m599 -22
c15 -24 -3 -52 -37 -56 -30 -4 -44 26 -27 58 13 25 48 24 64 -2z m-645 -2 c-2
-2 -15 -9 -29 -15 -24 -11 -24 -11 -6 3 16 13 49 24 35 12z m-89 -46 c-19 -11
-39 -19 -45 -19 -5 0 6 8 25 19 19 11 40 19 45 19 6 0 -6 -8 -25 -19z m400
-240 c0 -4 10 -10 23 -13 12 -2 61 -13 110 -23 48 -10 87 -22 87 -25 0 -4 -38
-35 -85 -70 -67 -50 -84 -67 -80 -83 12 -56 34 -200 31 -204 -2 -2 -43 22 -90
52 -48 31 -90 56 -94 56 -4 0 -49 -25 -99 -54 -51 -30 -93 -52 -93 -48 0 4 11
55 23 113 l23 107 -88 63 c-48 35 -87 66 -88 69 0 5 185 50 205 50 6 0 35 49
65 110 l55 109 48 -100 c26 -56 47 -105 47 -109z m-3696 92 l49 -99 108 -23
c60 -12 109 -25 109 -29 -1 -3 -30 -28 -66 -56 -37 -27 -75 -57 -86 -65 -20
-16 -20 -16 1 -120 12 -57 20 -105 18 -107 -2 -2 -43 19 -91 47 -48 27 -90 50
-94 50 -4 0 -23 -10 -42 -23 -19 -13 -60 -38 -91 -55 l-56 -32 13 83 c7 45 15
96 18 112 5 28 0 34 -79 95 -46 36 -85 67 -85 70 0 3 48 16 108 29 l107 23 49
104 c27 57 52 102 55 100 3 -2 28 -49 55 -104z m2991 18 c3 -5 1 -10 -4 -10
-6 0 -11 5 -11 10 0 6 2 10 4 10 3 0 8 -4 11 -10z m-2430 -20 c3 -5 1 -10 -4
-10 -6 0 -11 5 -11 10 0 6 2 10 4 10 3 0 8 -4 11 -10z m3669 -366 c22 -21 20
-51 -3 -64 -11 -5 -22 -10 -25 -10 -10 0 -36 32 -36 45 0 15 27 45 40 45 5 0
16 -7 24 -16z m-4849 -14 c13 -42 -33 -78 -63 -48 -13 13 -16 50 -5 61 15 16
62 7 68 -13z m1762 -37 c-3 -10 -5 -4 -5 12 0 17 2 24 5 18 2 -7 2 -21 0 -30z
m711 -1 l122 -2 0 -205 0 -205 193 1 c105 0 198 0 205 0 9 -1 12 -49 12 -206
l0 -205 -205 0 -205 0 0 -206 0 -205 -197 3 -198 3 -3 203 -2 202 -200 0 -200
0 0 211 0 210 198 -2 197 -1 3 193 c1 107 4 199 6 205 4 10 28 11 274 6z
m-2123 -207 l48 -115 263 0 264 0 0 -40 0 -39 -282 -3 -282 -3 -26 59 c-25 55
-28 57 -34 32 -3 -14 -20 -64 -37 -111 l-31 -85 -305 0 -304 0 3 38 3 37 65 0
c36 0 160 1 277 3 l212 2 21 58 c12 31 38 108 58 170 20 61 37 112 38 112 1 0
23 -52 49 -115z m4194 -60 l56 -166 279 -2 280 -2 -1 -27 c-1 -16 -1 -32 -2
-38 -1 -6 -109 -10 -303 -10 l-303 0 -29 88 c-50 152 -44 145 -70 82 l-22 -55
-287 -3 -287 -2 0 40 0 41 263 -2 262 -1 47 103 c26 57 48 110 48 118 0 30 14
-3 69 -164z m-3927 -357 c10 -5 25 -22 33 -37 12 -24 105 -282 191 -528 l18
-51 -36 -40 c-39 -43 -68 -120 -68 -179 0 -18 -3 -33 -7 -33 -24 0 -283 717
-283 781 0 52 14 77 53 94 31 13 65 11 99 -7z m3643 8 c74 -31 72 -93 -9 -321
-106 -299 -148 -410 -186 -489 l-37 -80 -7 60 c-9 72 -33 128 -74 176 l-32 35
24 59 c13 33 60 159 105 282 44 123 86 232 92 243 9 18 59 47 82 49 4 0 23 -6
42 -14z m-4364 -236 c10 -6 19 -19 19 -29 0 -25 -33 -53 -54 -45 -22 8 -31 50
-16 69 15 18 25 19 51 5z m5029 -10 c25 -25 25 -32 -1 -56 -15 -14 -24 -16
-37 -8 -21 14 -27 50 -12 70 16 19 26 18 50 -6z m-69 -291 c18 -18 19 -23 6
-42 -18 -28 -40 -32 -61 -12 -20 21 -20 39 0 59 20 21 30 20 55 -5z m-4873
-11 c32 -32 -18 -87 -53 -58 -15 13 -20 51 -8 63 11 11 48 8 61 -5z m4792
-267 c5 -11 7 -26 4 -35 -8 -21 -42 -30 -59 -16 -15 13 -20 51 -8 63 13 14 53
6 63 -12z m-4692 -28 c15 -29 -3 -63 -33 -63 -29 0 -40 19 -31 55 8 30 50 35
64 8z m4540 -255 c16 -16 15 -33 -4 -52 -35 -35 -79 1 -60 49 7 18 47 20 64 3z
m-4404 -14 c9 -8 16 -22 16 -29 0 -17 -27 -45 -44 -45 -19 0 -36 22 -36 45 0
41 36 58 64 29z m4260 -206 c23 -38 -36 -77 -64 -43 -10 12 -10 21 -1 41 13
29 47 30 65 2z m-4116 0 c18 -18 14 -56 -7 -68 -39 -21 -73 19 -51 60 12 22
40 26 58 8z m3942 -208 c20 -37 -17 -77 -52 -58 -18 9 -25 58 -11 71 14 14 53
6 63 -13z m-3776 4 c19 -7 21 -45 4 -62 -32 -32 -79 2 -60 43 12 25 27 30 56
19z m183 -182 c11 -7 16 -26 14 -49 -1 -17 -36 -34 -55 -27 -19 7 -21 55 -4
72 14 14 28 15 45 4z m3411 -1 c18 -11 11 -51 -10 -65 -35 -22 -74 27 -48 59
14 17 38 19 58 6z m-3220 -153 c25 -25 4 -78 -32 -78 -10 0 -36 32 -36 45 0
17 27 45 44 45 6 0 17 -5 24 -12z m3044 -14 c11 -23 10 -29 -11 -45 -30 -25
-61 -10 -61 30 0 34 6 41 37 41 16 0 27 -9 35 -26z m-2832 -139 c16 -19 5 -61
-17 -69 -10 -4 -24 1 -37 13 -17 17 -18 24 -8 46 13 28 43 33 62 10z m2625
-15 c17 -18 17 -21 1 -45 -20 -30 -37 -32 -61 -5 -17 18 -17 21 -1 45 20 30
37 32 61 5z m-2407 -112 c18 -18 14 -56 -7 -68 -39 -21 -73 19 -51 60 12 22
40 26 58 8z m2188 -23 c8 -20 -14 -55 -34 -55 -40 0 -59 60 -25 79 20 11 51
-2 59 -24z"/>
<path d="M3995 5895 c-64 -30 -99 -63 -126 -115 -63 -121 -15 -265 110 -331
97 -52 185 -35 273 51 48 47 58 63 67 111 12 57 4 127 -20 171 -26 48 -83 98
-135 118 -71 26 -108 25 -169 -5z m156 -95 c15 0 10 -27 -8 -41 -14 -12 -11
-15 33 -19 42 -4 49 -8 52 -28 2 -13 -1 -29 -7 -35 -6 -8 -6 -18 -1 -27 6 -8
10 -25 10 -37 0 -21 -5 -23 -51 -23 l-51 0 7 -29 c5 -23 1 -34 -16 -50 -28
-26 -47 -26 -78 0 -21 17 -22 23 -12 45 16 36 16 36 -34 32 -51 -4 -53 -2 -56
80 -3 63 8 75 64 66 42 -7 49 7 15 30 -21 15 -21 15 22 54 l44 39 29 -28 c16
-16 33 -29 38 -29z"/>
<path d="M4086 5635 c4 -8 8 -15 10 -15 2 0 4 7 4 15 0 8 -4 15 -10 15 -5 0
-7 -7 -4 -15z"/>
<path d="M5624 5305 c-10 -24 2 -169 15 -192 6 -13 18 -23 26 -23 23 0 18 -33
-10 -74 -14 -20 -25 -38 -25 -40 0 -1 20 -4 45 -4 34 -2 45 1 45 13 0 31 29
15 36 -20 8 -43 29 -63 52 -48 14 8 40 96 42 138 0 7 -26 9 -72 7 -66 -4 -71
-3 -59 11 7 9 29 19 50 23 74 12 74 12 67 56 -7 44 -32 88 -50 88 -7 0 -23
-10 -36 -22 -42 -40 -83 -68 -99 -67 -14 0 -14 1 0 7 36 16 109 92 109 115 0
6 -46 24 -93 36 -30 8 -39 7 -43 -4z"/>
<path d="M5536 5295 c-15 -8 -37 -15 -48 -15 -16 0 -12 -9 26 -51 25 -28 46
-55 46 -60 0 -5 7 -9 15 -9 12 0 15 15 15 75 0 82 -4 86 -54 60z"/>
<path d="M5410 5228 c-1 -7 -9 -31 -20 -53 -32 -66 -29 -68 50 -63 l70 5 0
-26 c0 -15 5 -32 12 -39 8 -8 9 -12 1 -12 -6 0 -13 4 -15 9 -2 8 -104 16 -140
12 -8 -1 24 -118 41 -150 14 -25 59 -29 67 -6 8 19 24 20 24 1 0 -8 -7 -17
-16 -20 -14 -5 -13 -9 7 -24 27 -20 74 -42 91 -42 19 0 3 119 -19 135 -17 13
-17 15 0 45 18 33 15 50 -8 50 -20 0 -38 37 -31 63 4 16 -8 34 -47 74 -53 54
-67 62 -67 41z"/>
<path d="M5620 4886 l0 -75 31 11 c17 6 46 18 66 28 l34 17 -33 24 c-18 14
-48 35 -65 48 l-33 22 0 -75z"/>
<path d="M4502 6441 c-21 -13 -10 -46 16 -49 27 -4 40 22 22 43 -14 17 -20 18
-38 6z"/>
<path d="M3637 6414 c-4 -4 -7 -16 -7 -26 0 -13 7 -18 26 -18 21 0 25 4 22 22
-3 23 -27 35 -41 22z"/>
<path d="M3386 6354 c-16 -42 -1 -64 44 -64 27 0 44 34 30 60 -13 25 -65 28
-74 4z"/>
<path d="M4724 6356 c-11 -29 1 -51 28 -54 33 -4 57 30 37 54 -15 18 -58 18
-65 0z"/>
<path d="M3220 6301 c-15 -30 -12 -49 11 -61 47 -25 93 15 69 60 -14 27 -65
27 -80 1z"/>
<path d="M4910 6301 c-15 -29 -12 -46 9 -65 26 -23 52 -17 70 16 14 24 14 28
-3 47 -24 26 -62 27 -76 2z"/>
<path d="M2967 6224 c-14 -14 -7 -35 11 -32 9 2 17 10 17 17 0 16 -18 25 -28
15z"/>
<path d="M5171 6220 c-16 -9 -6 -30 15 -30 15 0 20 25 6 34 -4 2 -14 1 -21 -4z"/>
<path d="M2712 6124 c-33 -23 -26 -65 12 -79 24 -8 31 -6 47 14 24 29 24 36
-1 61 -24 24 -29 24 -58 4z"/>
<path d="M5408 6128 c-24 -20 -28 -44 -12 -67 17 -23 53 -28 72 -9 17 17 15
54 -4 72 -19 19 -35 20 -56 4z"/>
<path d="M5673 6003 c-22 -8 -16 -61 7 -68 39 -12 66 35 38 63 -13 13 -24 14
-45 5z"/>
<path d="M2457 5993 c-15 -15 -6 -52 14 -58 28 -9 53 16 44 44 -6 20 -43 29
-58 14z"/>
<path d="M1734 5265 c-4 -9 -2 -21 4 -27 15 -15 44 -1 40 19 -4 23 -36 29 -44
8z"/>
<path d="M6404 5256 c-4 -9 -4 -20 0 -23 3 -4 12 -1 18 5 9 9 9 15 0 24 -9 9
-13 7 -18 -6z"/>
<path d="M1581 5131 c-26 -26 -27 -53 -3 -74 28 -26 69 -21 88 9 16 24 16 27
-3 52 -25 34 -56 39 -82 13z"/>
<path d="M6522 5139 c-42 -16 -37 -90 8 -104 24 -8 56 9 70 36 22 40 -30 86
-78 68z"/>
<path d="M1456 4894 c-9 -8 -16 -19 -16 -23 0 -9 33 -41 43 -41 9 0 37 30 37
40 0 11 -29 40 -40 40 -5 0 -16 -7 -24 -16z"/>
<path d="M6660 4850 c0 -22 7 -25 29 -11 16 10 6 31 -15 31 -8 0 -14 -9 -14
-20z"/>
<path d="M1360 4735 c0 -10 7 -15 18 -13 21 4 19 22 -2 26 -10 2 -16 -3 -16
-13z"/>
<path d="M6767 4725 c-5 -10 0 -15 14 -15 12 0 19 5 17 12 -6 18 -25 20 -31 3z"/>
<path d="M1271 4572 c-25 -20 -31 -73 -11 -97 7 -8 28 -15 50 -15 29 0 41 6
54 25 22 34 20 52 -9 80 -29 29 -55 32 -84 7z"/>
<path d="M6810 4558 c-27 -29 -25 -54 5 -83 37 -38 76 -32 101 16 15 30 7 63
-20 81 -22 15 -66 8 -86 -14z"/>
<path d="M1187 4285 c-8 -18 11 -31 25 -17 11 11 3 32 -12 32 -4 0 -10 -7 -13
-15z"/>
<path d="M6930 4260 c0 -5 7 -10 15 -10 8 0 15 5 15 10 0 6 -7 10 -15 10 -8 0
-15 -4 -15 -10z"/>
<path d="M1150 4102 c-50 -16 -65 -67 -29 -103 27 -27 67 -21 93 14 19 26 19
30 6 54 -16 28 -46 43 -70 35z"/>
<path d="M6960 4081 c-35 -67 27 -128 88 -85 27 19 29 64 4 87 -26 24 -79 22
-92 -2z"/>
<path d="M1110 2650 c-11 -11 -20 -29 -20 -40 0 -11 9 -29 20 -40 11 -11 29
-20 40 -20 11 0 29 9 40 20 11 11 20 29 20 40 0 11 -9 29 -20 40 -11 11 -29
20 -40 20 -11 0 -29 -9 -40 -20z"/>
<path d="M6982 2654 c-44 -30 -16 -104 40 -104 22 0 58 38 58 62 0 23 -35 58
-58 58 -10 0 -28 -7 -40 -16z"/>
<path d="M1164 2396 c-11 -28 1 -51 25 -51 32 0 49 28 32 49 -17 20 -50 21
-57 2z"/>
<path d="M6950 2396 c-27 -33 18 -72 48 -42 13 13 14 20 6 34 -15 23 -38 26
-54 8z"/>
<path d="M1258 2143 c-30 -34 -31 -61 -4 -88 30 -30 56 -32 87 -7 28 24 31 79
4 98 -26 19 -69 17 -87 -3z"/>
<path d="M6817 2142 c-23 -25 -21 -68 3 -92 41 -41 110 -13 110 44 0 19 -8 40
-18 49 -25 22 -75 21 -95 -1z"/>
<path d="M1350 1874 c0 -9 5 -14 12 -12 18 6 21 28 4 28 -9 0 -16 -7 -16 -16z"/>
<path d="M6780 1880 c0 -5 7 -10 15 -10 8 0 15 5 15 10 0 6 -7 10 -15 10 -8 0
-15 -4 -15 -10z"/>
<path d="M1442 1784 c-38 -26 -22 -74 24 -74 45 0 58 50 19 76 -18 12 -24 11
-43 -2z"/>
<path d="M3610 1786 c0 -2 7 -7 16 -10 8 -3 12 -2 9 4 -6 10 -25 14 -25 6z"/>
<path d="M6670 1775 c-15 -18 -4 -52 19 -60 40 -12 70 20 51 56 -13 22 -52 25
-70 4z"/>
<path d="M3710 1706 c0 -2 8 -10 18 -17 15 -13 16 -12 3 4 -13 16 -21 21 -21
13z"/>
<path d="M1564 1555 c-26 -39 -6 -75 41 -75 28 0 38 5 47 25 28 63 -50 107
-88 50z"/>
<path d="M6510 1560 c-25 -46 16 -97 68 -83 29 7 43 44 28 74 -16 34 -80 39
-96 9z"/>
<path d="M1713 1364 c-8 -22 18 -37 36 -20 7 8 10 19 7 25 -10 16 -36 13 -43
-5z"/>
<path d="M6405 1360 c-4 -6 -3 -16 3 -22 6 -6 12 -6 17 2 4 6 3 16 -3 22 -6 6
-12 6 -17 -2z"/>
<path d="M2457 673 c-13 -12 -7 -41 10 -47 9 -4 23 0 31 8 13 12 13 18 2 30
-13 17 -32 21 -43 9z"/>
<path d="M5660 636 c0 -10 9 -16 21 -16 24 0 21 23 -4 28 -10 2 -17 -3 -17
-12z"/>
<path d="M5392 577 c-29 -13 -39 -53 -21 -86 21 -37 74 -36 102 0 17 24 18 30
6 55 -16 32 -54 46 -87 31z"/>
<path d="M2705 556 c-36 -54 17 -117 72 -86 58 33 45 103 -19 108 -30 3 -40
-1 -53 -22z"/>
<path d="M2964 399 c-10 -17 13 -36 27 -22 12 12 4 33 -11 33 -5 0 -12 -5 -16
-11z"/>
<path d="M3191 384 c-28 -20 -28 -69 0 -84 31 -17 68 -4 75 27 13 48 -35 85
-75 57z"/>
<path d="M5167 394 c-14 -14 -7 -35 11 -32 9 2 17 10 17 17 0 16 -18 25 -28
15z"/>
<path d="M4932 378 c-19 -19 -14 -63 9 -84 19 -17 23 -17 47 -3 30 16 41 61
21 85 -14 17 -60 19 -77 2z"/>
<path d="M3396 324 c-22 -21 -20 -50 4 -74 21 -21 46 -18 68 8 25 32 3 82 -38
82 -10 0 -26 -7 -34 -16z"/>
<path d="M4706 318 c-9 -12 -16 -30 -16 -40 0 -18 36 -48 57 -48 35 0 58 71
31 98 -19 19 -55 14 -72 -10z"/>
<path d="M3674 246 c-8 -21 3 -36 27 -36 15 0 20 6 17 22 -4 27 -35 37 -44 14z"/>
<path d="M4444 245 c-9 -23 4 -47 23 -43 22 4 30 38 11 49 -19 13 -28 11 -34
-6z"/>
</g>
</svg>
