<?xml version="1.0" encoding="UTF-8"?>
<svg version="1.1" xmlns="http://www.w3.org/2000/svg" width="512" height="512">
<path d="M0 0 C3.60660039 1.55209766 4.80748745 2.61759873 6.59423828 6.16674805 C7.06297319 7.46273832 7.5122357 8.76588099 7.9453125 10.07421875 C8.19314484 10.7780217 8.44097717 11.48182465 8.69631958 12.20695496 C9.48425787 14.46498282 10.24443563 16.73095291 11 19 C11.24955444 19.73655823 11.49910889 20.47311646 11.75622559 21.23199463 C13.25827487 25.66595912 14.71916019 30.11193128 16.15234375 34.56860352 C16.88975002 36.8582998 17.63601357 39.14499267 18.3828125 41.43164062 C18.85729413 42.89826831 19.33127262 44.36505888 19.8046875 45.83203125 C20.02647675 46.51006302 20.24826599 47.18809479 20.47677612 47.88667297 C21.38168131 50.71964551 22 53.00417035 22 56 C22.63813629 55.79733017 23.27627258 55.59466034 23.93374634 55.385849 C30.58000809 53.2778479 37.23184488 51.18821711 43.88720703 49.10913086 C46.3698033 48.33094801 48.85094312 47.54810273 51.33056641 46.76049805 C54.89632919 45.6287932 58.46700446 44.51399434 62.0390625 43.40234375 C63.69876572 42.86963112 63.69876572 42.86963112 65.39199829 42.32615662 C66.95293716 41.84554527 66.95293716 41.84554527 68.54541016 41.35522461 C69.91108627 40.92553627 69.91108627 40.92553627 71.30435181 40.48716736 C74.52376599 39.9053431 76.8414162 40.17879133 80 41 C83.44272108 43.9836916 85.75387341 46.06246856 86.3359375 50.64453125 C85.89378501 55.06091484 83.98083419 58.04385436 81.625 61.6875 C81.15400879 62.43773437 80.68301758 63.18796875 80.19775391 63.9609375 C74.60371357 72.78790864 68.76405778 81.46436774 62.93212891 90.13549805 C62.35498138 90.99409676 62.35498138 90.99409676 61.76617432 91.87004089 C60.70920223 93.4409399 59.65031354 95.01054883 58.59130859 96.58007812 C57.01111096 98.87963759 57.01111096 98.87963759 56 101 C56.71027344 101.25233398 57.42054688 101.50466797 58.15234375 101.76464844 C61.27802566 103.12061127 63.78509839 104.79404774 66.5625 106.765625 C67.60664063 107.49007812 68.65078125 108.21453125 69.7265625 108.9609375 C71.36956063 110.10985982 73.01252563 111.25895326 74.64355469 112.42480469 C76.22990227 113.55492288 77.83352666 114.66066559 79.4375 115.765625 C80.38496094 116.43368164 81.33242188 117.10173828 82.30859375 117.79003906 C84.92340112 119.29779416 84.92340112 119.29779416 87.5612793 118.36962891 C88.36605713 117.91765137 89.17083496 117.46567383 90 117 C90.75128174 116.58250488 91.50256348 116.16500977 92.27661133 115.73486328 C93.0373999 115.26806152 93.79818848 114.80125977 94.58203125 114.3203125 C95.43216797 113.80339844 96.28230469 113.28648437 97.15820312 112.75390625 C98.03412109 112.21636719 98.91003906 111.67882812 99.8125 111.125 C118.06054812 99.93939556 118.06054812 99.93939556 127.0625 99.6875 C127.91972656 99.65011719 128.77695312 99.61273438 129.66015625 99.57421875 C139.40545699 100.81660212 147.76070119 105.86718231 156.0625 110.8125 C157.77866624 111.81876615 159.49484097 112.82501817 161.21151733 113.83041382 C162.97871158 114.86683256 164.74364691 115.90701683 166.50830078 116.94775391 C171.98257867 120.17148056 177.49353238 123.33170056 183 126.5 C185.15375636 127.74329814 187.30740178 128.98678847 189.4609375 130.23046875 C193.91996917 132.80350313 198.38409767 135.36741897 202.8515625 137.92578125 C209.24908989 141.5921094 215.62972608 145.2865486 222 149 C222.84433594 149.48871582 223.68867188 149.97743164 224.55859375 150.48095703 C234.97011422 156.54207305 244.49663539 162.26142739 248.38426208 174.25428772 C249.58366969 179.60271295 249.17285897 184.98827718 248.9765625 190.43359375 C248.92402257 193.04749128 248.87329686 195.6614258 248.82421875 198.27539062 C248.73509069 202.36202135 248.62778355 206.44732111 248.48583984 210.5324707 C248.35018038 214.49896218 248.28838772 218.46525233 248.2265625 222.43359375 C248.1427684 224.2496537 248.1427684 224.2496537 248.05728149 226.10240173 C247.99626594 232.88185854 248.78578929 236.52666456 253.38354492 241.65405273 C254.90442712 243.12152113 256.44125258 244.57281655 258 246 C258.90116928 247.01450706 259.7852269 248.04501517 260.63671875 249.1015625 C261.65185547 250.35066406 261.65185547 250.35066406 262.6875 251.625 C263.42226563 252.5428125 264.15703125 253.460625 264.9140625 254.40625 C266.20919763 256.0166802 267.53279989 257.60515543 268.8984375 259.15625 C269.44757813 259.8059375 269.99671875 260.455625 270.5625 261.125 C271.03816406 261.66382813 271.51382812 262.20265625 272.00390625 262.7578125 C273.69343524 266.56090912 273.728817 269.92232479 273 274 C271.33286451 278.08190199 269.13834142 281.78530735 266.875 285.5625 C266.24770996 286.64370117 265.62041992 287.72490234 264.97412109 288.83886719 C263.65849611 291.10144039 262.33429529 293.35904679 261.00195312 295.61181641 C259.05889374 298.90032593 257.14239449 302.20277958 255.234375 305.51171875 C252.35180686 310.50330412 249.44148756 315.47756867 246.50976562 320.44042969 C245.15980131 322.72908199 243.82124548 325.02400224 242.484375 327.3203125 C241.7823127 328.50583831 241.07929502 329.69079924 240.375 330.875 C239.52035156 332.32519531 239.52035156 332.32519531 238.6484375 333.8046875 C236.81921591 336.24075985 235.9001215 337.11469975 233 338 C226.45711659 338.8569015 222.49451368 336.54420434 217.0625 333.3125 C216.30259766 332.87744141 215.54269531 332.44238281 214.75976562 331.99414062 C211.7173999 330.24042853 208.70827722 328.47578808 205.79248047 326.51708984 C204.74858154 325.8183374 204.74858154 325.8183374 203.68359375 325.10546875 C203.0692749 324.6777417 202.45495605 324.25001465 201.82202148 323.80932617 C199.46349105 322.76168737 198.38249291 323.11950685 196 324 C194.48776065 324.81091096 192.98862874 325.64651952 191.5 326.5 C183.8570915 330.38336294 175.42853025 331.05607884 167.15234375 328.78125 C158.54780167 325.65800423 152.16334352 320.75940052 147.71484375 312.66015625 C145.05747923 306.93586923 143.96401752 302.14557294 143.984375 295.83984375 C143.98663086 294.93484131 143.98888672 294.02983887 143.99121094 293.09741211 C143.99411133 292.40526611 143.99701172 291.71312012 144 291 C143.34854004 290.62415771 142.69708008 290.24831543 142.02587891 289.86108398 C126.7121582 281.02624512 126.7121582 281.02624512 111.3984375 272.19140625 C110.33915039 271.58031006 109.27986328 270.96921387 108.18847656 270.33959961 C106.05750886 269.11013241 103.92665 267.88047651 101.79589844 266.65063477 C96.75392131 263.74077437 91.71094287 260.83269843 86.66400146 257.93145752 C84.88250422 256.90724335 83.10135678 255.88242349 81.3203125 254.85742188 C79.08923375 253.57366625 76.85750427 252.29104061 74.625 251.00976562 C70.15777538 248.43798555 65.73339869 245.85104928 61.41015625 243.04296875 C58.29806 240.67083633 58.29806 240.67083633 55.5625 241.4375 C54.716875 241.953125 53.87125 242.46875 53 243 C42.56779232 247.93854969 34.46914476 249.37402972 23.296875 245.8515625 C21.10142548 245.03760333 19.0834606 244.06255395 17 243 C17.01110306 243.99700928 17.02220612 244.99401855 17.03364563 246.02124023 C17.1351945 255.43697876 17.21004811 264.85260554 17.25906086 274.26876831 C17.28510651 279.10926209 17.32041217 283.94931227 17.37719727 288.78955078 C17.43169717 293.4644911 17.46145837 298.1390059 17.47438622 302.8142395 C17.48359393 304.59399103 17.50157465 306.37372041 17.52865028 308.15328979 C17.77442374 324.98290449 17.77442374 324.98290449 13.42448425 330.61352539 C5.31675651 338.5049139 -1.82904933 338.20541978 -12.8125 338.25 C-14.07126953 338.270625 -15.33003906 338.29125 -16.62695312 338.3125 C-26.61257512 338.35461122 -32.62958589 337.2029047 -40 330 C-44.19201258 324.11145526 -43.33344985 317.53329297 -43.1875 310.625 C-43.17396484 309.41199219 -43.16042969 308.19898438 -43.14648438 306.94921875 C-43.11124582 303.96568794 -43.06197525 300.98307542 -43 298 C-43.60996826 298.01571045 -44.21993652 298.0314209 -44.84838867 298.04760742 C-47.6279971 298.11019813 -50.40745692 298.14906622 -53.1875 298.1875 C-54.62706055 298.22520508 -54.62706055 298.22520508 -56.09570312 298.26367188 C-65.09513128 298.35709154 -65.09513128 298.35709154 -69 295 C-71 292 -71 292 -71 288 C-79.25 288 -87.5 288 -96 288 C-96.33 289.98 -96.66 291.96 -97 294 C-98.55715545 296.19889224 -99.50693044 296.85411051 -102.0859375 297.6171875 C-105.91439756 298.04837925 -108.33019809 298.28502209 -111.9375 296.75 C-114 295 -114 295 -116 292 C-116 290.68 -116 289.36 -116 288 C-124.25 288 -132.5 288 -141 288 C-141.33 289.98 -141.66 291.96 -142 294 C-143.91731521 296.52737004 -144.91505409 296.9716847 -148 298 C-149.62719482 298.08143855 -151.25751719 298.1075302 -152.88671875 298.09765625 C-153.82451172 298.09443359 -154.76230469 298.09121094 -155.72851562 298.08789062 C-156.70498047 298.07951172 -157.68144531 298.07113281 -158.6875 298.0625 C-159.67556641 298.05798828 -160.66363281 298.05347656 -161.68164062 298.04882812 C-164.12115474 298.03704303 -166.56054689 298.02059011 -169 298 C-168.97381592 298.74572266 -168.94763184 299.49144531 -168.9206543 300.25976562 C-168.81604449 303.67295858 -168.75147031 307.08581328 -168.6875 310.5 C-168.64560547 311.67304688 -168.60371094 312.84609375 -168.56054688 314.0546875 C-168.45858631 321.31427987 -168.97282106 326.51042355 -174 332 C-181.74310075 338.73972608 -188.8167314 338.20942864 -198.8125 338.25 C-200.07126953 338.270625 -201.33003906 338.29125 -202.62695312 338.3125 C-212.61257512 338.35461122 -218.62958589 337.2029047 -226 330 C-229.53568197 324.60788316 -229.40980427 319.81173291 -229.34057617 313.58837891 C-229.34101425 312.55362427 -229.34145233 311.51886963 -229.34190369 310.45275879 C-229.3398192 307.04383256 -229.31650357 303.63540248 -229.29296875 300.2265625 C-229.2873716 297.85859445 -229.28310207 295.49062292 -229.28010559 293.12265015 C-229.26866625 286.89848188 -229.23920659 280.67452454 -229.20599365 274.45043945 C-229.17527333 268.09589491 -229.16159604 261.74131619 -229.14648438 255.38671875 C-229.11433627 242.92438664 -229.06315068 230.46221088 -229 218 C-230.41152344 217.814375 -230.41152344 217.814375 -231.8515625 217.625 C-235 217 -235 217 -237.375 215 C-239.58454279 210.92084409 -239.83197188 207.54701461 -239 203 C-236.88608123 199.50109996 -235.88263941 198.29421314 -232 197 C-229.66700175 196.96045766 -227.33291811 196.95598268 -225 197 C-224.60518433 195.95561768 -224.60518433 195.95561768 -224.20239258 194.89013672 C-222.88979785 191.73511206 -221.36733422 188.77447772 -219.76171875 185.7578125 C-219.44459427 185.160896 -219.12746979 184.56397949 -218.80073547 183.94897461 C-217.76653047 182.00573546 -216.72774665 180.06501118 -215.6875 178.125 C-215.33196045 177.46159607 -214.9764209 176.79819214 -214.61010742 176.11468506 C-212.42790503 172.04697465 -210.23662019 167.98424508 -208.03997803 163.92431641 C-207.05864829 162.10851947 -206.08087892 160.29085256 -205.10400391 158.47265625 C-203.41849399 155.34779796 -201.71333781 152.23466811 -200 149.125 C-199.50975342 148.21250488 -199.01950684 147.30000977 -198.5144043 146.35986328 C-194.26891165 138.7512437 -188.92023898 131.77909813 -180.8125 128.0625 C-180.01457031 127.68222656 -179.21664062 127.30195313 -178.39453125 126.91015625 C-173.91451615 125.20731201 -169.81148571 124.88977381 -165.04248047 124.98510742 C-163.86289764 125.0038945 -162.68331482 125.02268158 -161.46798706 125.04203796 C-159.56184128 125.0734362 -159.56184128 125.0734362 -157.6171875 125.10546875 C-154.18563467 125.13091452 -150.75401442 125.13896765 -147.32238579 125.14846325 C-143.7630498 125.16178855 -140.20642028 125.19591198 -136.64794922 125.27758789 C-119.3142214 125.65583908 -105.81709196 124.91479052 -91.8572998 113.49819946 C-89.23045086 111.37923964 -86.45616329 109.59604966 -83.62109375 107.765625 C-80.98042832 105.98060502 -78.34563378 104.18730707 -75.71289062 102.390625 C-74.42995117 101.524375 -74.42995117 101.524375 -73.12109375 100.640625 C-72.3727124 100.13047852 -71.62433105 99.62033203 -70.85327148 99.09472656 C-69 98 -69 98 -67 98 C-68.90655123 94.6749119 -70.81566778 91.35130939 -72.72698975 88.02896118 C-73.40803475 86.84465964 -74.08857828 85.66006959 -74.76861572 84.47518921 C-78.31795662 78.2931721 -81.88770691 72.13272953 -85.6328125 66.06640625 C-86.45700684 64.72690918 -86.45700684 64.72690918 -87.29785156 63.36035156 C-88.32341436 61.7035755 -89.35873479 60.05278634 -90.40527344 58.40917969 C-93.17389634 53.92876342 -94.8058519 50.40267288 -95 45 C-93.7187601 41.08091325 -92.62547612 39.44067635 -89.25 37.0625 C-82.02663323 34.70101471 -75.03440695 38.25331793 -68.25390625 40.81640625 C-67.24279282 41.19232407 -66.23167938 41.56824188 -65.18992615 41.95555115 C-61.97829047 43.1513044 -58.77039207 44.35674436 -55.5625 45.5625 C-53.37849515 46.37759632 -51.19425277 47.1920565 -49.00976562 48.00585938 C-43.67040439 49.99654765 -38.33407374 51.99518991 -33 54 C-31.27693633 51.4154045 -30.28777057 49.38485324 -29.21582031 46.51611328 C-28.87496399 45.61152374 -28.53410767 44.7069342 -28.18292236 43.77493286 C-27.63604767 42.31239578 -27.63604767 42.31239578 -27.078125 40.8203125 C-26.29252155 38.75618485 -25.50603539 36.69239298 -24.71875 34.62890625 C-23.4816555 31.3776059 -22.24989469 28.12471792 -21.03320312 24.86572266 C-19.85604724 21.71916781 -18.65655649 18.58189583 -17.453125 15.4453125 C-17.09663879 14.47433624 -16.74015259 13.50335999 -16.37286377 12.50296021 C-13.26022903 4.48157152 -9.62023036 -1.39930623 0 0 Z " fill="#010101" transform="translate(239,87)"/>
<path d="M0 0 C3.33749441 0.64886137 6.66921233 1.31768231 10 2 C10.67589172 2.13833252 11.35178345 2.27666504 12.04815674 2.41918945 C34.19006985 6.98905512 54.03197859 11.70303906 73.18457031 24.18994141 C77.99734618 27.28410723 82.9792255 30.084932 87.9375 32.9375 C89.92943019 34.10238195 91.92031253 35.26905753 93.91015625 36.4375 C100.21570419 40.1321331 106.54294436 43.78852681 112.875 47.4375 C113.95515381 48.06003662 115.03530762 48.68257324 116.14819336 49.32397461 C118.33796334 50.58576826 120.52782355 51.84740534 122.71777344 53.10888672 C128.14659942 56.23680148 133.57319281 59.36858448 139 62.5 C141.16665583 63.75001879 143.3333225 65.00001878 145.5 66.25 C149.83333333 68.75 154.16666667 71.25 158.5 73.75 C159.57338623 74.3692334 160.64677246 74.9884668 161.75268555 75.62646484 C163.91049803 76.87141282 166.06821353 78.1165289 168.22583008 79.36181641 C174.91810366 83.2239687 181.61417045 87.0794496 188.31274414 90.93066406 C191.60037233 92.82480216 194.88260069 94.72801681 198.1640625 96.6328125 C201.63804433 98.64783384 205.12405783 100.62931748 208.6484375 102.5546875 C216.93756747 107.15145929 222.37368241 112.29974783 228 120 C229.82367431 122.25503832 231.69178199 124.47143895 233.5625 126.6875 C234.41849723 127.71179817 235.27401541 128.736497 236.12890625 129.76171875 C236.74636719 130.50035156 237.36382812 131.23898437 238 132 C233.24726859 142.02710406 227.70280017 151.4932091 222 161 C221.11842896 162.47392208 220.23691778 163.94787996 219.35546875 165.421875 C217.24255291 168.95128896 215.12317999 172.47675204 213 176 C210.53926045 174.71275182 208.08141829 173.42044687 205.625 172.125 C204.92632812 171.76019531 204.22765625 171.39539063 203.5078125 171.01953125 C198.2265625 168.2265625 198.2265625 168.2265625 196 166 C195.79716175 164.0063898 195.68641155 162.00296121 195.625 160 C195.06353282 151.22949549 192.42168852 142.3441319 186 136 C176.5181118 129.22498748 168.66862372 126.94614171 157 128 C152.52990228 129.18308975 148.50653705 130.64651751 145.0390625 133.76171875 C144.36617187 134.17035156 143.69328125 134.57898438 143 135 C139.16193391 133.77551541 135.78243033 131.83424386 132.30078125 129.83203125 C131.18751465 129.19386475 130.07424805 128.55569824 128.92724609 127.89819336 C127.72228318 127.20304466 126.5173691 126.5078113 125.3125 125.8125 C124.05565201 125.09031382 122.79865088 124.3683941 121.54150391 123.64672852 C118.31362852 121.79256933 115.08810651 119.93436047 111.86346436 118.07458496 C109.00474796 116.42607817 106.14481546 114.77968312 103.28515625 113.1328125 C99.02674978 110.67905034 94.77052864 108.22154926 90.515625 105.76171875 C86.53752417 103.46259977 82.55603422 101.16959075 78.56991577 98.88441467 C76.16633425 97.50635247 73.7638372 96.12640549 71.36138916 94.74636841 C69.66627781 93.77368588 67.9696319 92.80367923 66.27294922 91.83374023 C65.2470166 91.24407471 64.22108398 90.65440918 63.1640625 90.046875 C62.26123535 89.52963867 61.3584082 89.01240234 60.42822266 88.47949219 C58.14365743 87.08752906 56.01071567 85.76678335 54 84 C53.53125 80.9609375 53.53125 80.9609375 53.5 77.375 C53.21140578 71.00625035 52.22030385 66.47670722 49 61 C48.49339844 60.06414062 48.49339844 60.06414062 47.9765625 59.109375 C43.62524724 52.01148486 35.82504723 48.17472759 28 46 C18.3376309 44.95738552 11.22768869 46.4356668 3.25 51.875 C1 53 1 53 -1.05859375 52.390625 C-5.25170854 50.40822279 -9.27307472 48.15136121 -13.3125 45.875 C-14.14845703 45.40707031 -14.98441406 44.93914062 -15.84570312 44.45703125 C-17.89866233 43.3073741 -19.95002202 42.15496198 -22 41 C-20.68652995 36.65152933 -18.99316461 32.95891564 -16.69921875 29.04296875 C-16.05146484 27.92986328 -15.40371094 26.81675781 -14.73632812 25.66992188 C-14.0536063 24.50898466 -13.37066234 23.34817805 -12.6875 22.1875 C-11.35743812 19.91052694 -10.02799899 17.63318998 -8.69921875 15.35546875 C-8.06806152 14.27571777 -7.4369043 13.1959668 -6.78662109 12.08349609 C-4.46997941 8.08524733 -2.21788033 4.05373027 0 0 Z " fill="#FD7C98" transform="translate(252,225)"/>
<path d="M0 0 C67.98 0 135.96 0 206 0 C206 19.8 206 39.6 206 60 C199.37357422 60.02126953 199.37357422 60.02126953 192.61328125 60.04296875 C189.08532104 60.06822265 185.55748131 60.09845126 182.02959442 60.13204193 C178.30846502 60.16610947 174.58774843 60.19145999 170.86645508 60.19555664 C167.28045516 60.1998431 163.69538136 60.2283321 160.10967064 60.27343178 C158.74343452 60.28639611 157.3770875 60.29071815 156.0107975 60.28615379 C147.76633128 59.87062004 147.76633128 59.87062004 140.68432617 63.29418945 C138.76568449 66.06804682 138.76568449 66.06804682 138 70 C129.75 70 121.5 70 113 70 C112.67 71.98 112.34 73.96 112 76 C110.44284455 78.19889224 109.49306956 78.85411051 106.9140625 79.6171875 C103.08560244 80.04837925 100.66980191 80.28502209 97.0625 78.75 C95 77 95 77 93 74 C93 72.68 93 71.36 93 70 C84.75 70 76.5 70 68 70 C67.01 67.69 66.02 65.38 65 63 C61.51664594 60.67776396 60.08654631 60.73127643 55.96801758 60.68115234 C54.72695755 60.66128265 53.48589752 60.64141296 52.20722961 60.62094116 C50.85299864 60.60906482 49.49876578 60.59740196 48.14453125 60.5859375 C46.75875188 60.56722683 45.37298391 60.54765348 43.98722839 60.5272522 C40.34260784 60.47591406 36.69795035 60.43629756 33.05316162 60.39910889 C29.33287441 60.35907965 25.61273864 60.30808934 21.89257812 60.2578125 C14.59510939 60.15999667 7.29776276 60.08049782 0 60 C0 40.2 0 20.4 0 0 Z " fill="#69E4A1" transform="translate(30,305)"/>
<path d="M0 0 C1.2510553 -0.00554901 2.5021106 -0.01109802 3.79107666 -0.01681519 C7.21092976 -0.02658406 10.62926409 -0.01404306 14.0489552 0.00946999 C17.6327258 0.02962439 21.21646436 0.02369713 24.80027771 0.0213623 C30.81669386 0.02141582 36.83279537 0.04114042 42.84912109 0.07324219 C49.79975922 0.1101495 56.7499856 0.1189149 63.70070893 0.11194468 C70.39524987 0.10563493 77.08965 0.11640155 83.78416252 0.13591003 C86.62975004 0.14407369 89.47526548 0.14679551 92.32086372 0.1452179 C96.29479108 0.14417407 100.26834671 0.16837218 104.2421875 0.1953125 C105.42103012 0.1923819 106.59987274 0.18945129 107.81443787 0.18643188 C109.43988022 0.20345657 109.43988022 0.20345657 111.09815979 0.2208252 C112.03704827 0.22455391 112.97593676 0.22828262 113.94327641 0.23212433 C118.16920195 0.8516881 120.78512618 2.76331794 123.61108398 5.88476562 C127.39960254 11.20238504 130.75991967 16.31035789 132.55639648 22.61523438 C131.57441833 25.81639665 130.19097335 27.79749682 128.15405273 30.43554688 C126.24860583 32.69008119 126.24860583 32.69008119 125.93139648 36.42773438 C126.68876783 40.29032821 127.8900956 41.74076714 130.55639648 44.61523438 C133.55696749 46.64892263 133.55696749 46.64892263 136.80639648 48.36523438 C138.73531429 49.42660063 140.65596744 50.50366267 142.55639648 51.61523438 C142.55639648 51.94523437 142.55639648 52.27523437 142.55639648 52.61523438 C81.17639648 52.61523438 19.79639648 52.61523438 -43.44360352 52.61523438 C-41.75821767 48.40176977 -39.86818565 44.46923262 -37.74047852 40.47851562 C-37.38020569 39.79903366 -37.01993286 39.1195517 -36.64874268 38.41947937 C-35.88680124 36.98414151 -35.12357051 35.54948742 -34.35913086 34.11547852 C-33.20761198 31.95402885 -32.0616535 29.78970039 -30.91625977 27.625 C-28.78497143 23.60727727 -26.62466566 19.60613419 -24.44360352 15.61523438 C-23.89124023 14.60122559 -23.33887695 13.5872168 -22.76977539 12.54248047 C-22.27541992 11.67316895 -21.78106445 10.80385742 -21.27172852 9.90820312 C-20.86341797 9.18528076 -20.45510742 8.4623584 -20.03442383 7.7175293 C-14.19990071 0.00711208 -9.30424615 -0.10486282 0 0 Z " fill="#C9F1F9" transform="translate(80.443603515625,232.384765625)"/>
<path d="M0 0 C2 1 2 1 3.1574707 4.0793457 C3.5867724 5.44278483 4.00904491 6.80844917 4.42578125 8.17578125 C4.89726411 9.65836934 5.36928661 11.14078591 5.84179688 12.62304688 C6.5790296 14.9646863 7.31100899 17.3076541 8.03295898 19.65405273 C8.73242331 21.91626698 9.45265073 24.17103895 10.17578125 26.42578125 C10.4885778 27.47286003 10.4885778 27.47286003 10.80769348 28.54109192 C12.27868899 33.07105278 13.88630553 35.54915461 18 38 C24.18545405 37.88931293 29.7866012 35.99473198 35.625 34.0625 C36.44484375 33.79759766 37.2646875 33.53269531 38.109375 33.25976562 C41.53508935 32.14998839 44.94444727 31.01984026 48.3359375 29.80859375 C51 29 51 29 55 29 C53.59259986 32.94697551 51.71756322 36.07409421 49.3046875 39.4921875 C48.58925781 40.52730469 47.87382812 41.56242187 47.13671875 42.62890625 C45.63000466 44.79139228 44.11436664 46.94768807 42.58984375 49.09765625 C41.87699219 50.13535156 41.16414063 51.17304688 40.4296875 52.2421875 C39.77210449 53.1791748 39.11452148 54.11616211 38.43701172 55.08154297 C36.6804676 58.64894501 36.61835811 61.06859737 37 65 C40.94487475 71.64306222 47.95803251 75.26743656 54.3125 79.375 C55.44653155 80.11762292 56.5800006 80.86110557 57.71289062 81.60546875 C60.46985743 83.41216189 63.23220693 85.20995473 66 87 C62.83422892 88.01916751 60.83402532 87.94859062 57.63378906 87.10375977 C56.77899963 86.88345596 55.92421021 86.66315216 55.04351807 86.43617249 C54.12681335 86.19039963 53.21010864 85.94462677 52.265625 85.69140625 C51.3136322 85.44583481 50.3616394 85.20026337 49.38079834 84.94725037 C45.31100958 83.89715358 41.2470873 82.82510442 37.18261719 81.75463867 C34.21226432 80.97572171 31.23909228 80.20833273 28.265625 79.44140625 C27.35701721 79.19765762 26.44840942 78.953909 25.51226807 78.70277405 C20.19616603 77.33325901 15.48354226 76.30525752 10 77 C6.13280749 79.98085469 3.85564485 83.53265806 1.44921875 87.73828125 C0.52592773 89.33833008 0.52592773 89.33833008 -0.41601562 90.97070312 C-1.04185547 92.07349609 -1.66769531 93.17628906 -2.3125 94.3125 C-2.95767578 95.43462891 -3.60285156 96.55675781 -4.26757812 97.71289062 C-5.85218447 100.47127944 -7.42935636 103.23364466 -9 106 C-12.79492188 101.2578125 -12.79492188 101.2578125 -14.640625 98.9375 C-19.75130497 92.78483673 -25.3727549 88.55819837 -33 86 C-35.67206065 85.76903096 -38.2519183 85.62896057 -40.92578125 85.5859375 C-41.67337204 85.56657135 -42.42096283 85.5472052 -43.19120789 85.5272522 C-45.56485806 85.46776082 -47.93855754 85.42119408 -50.3125 85.375 C-51.92775482 85.33679211 -53.54298987 85.29773875 -55.15820312 85.2578125 C-59.1053071 85.1620847 -63.05250639 85.07794233 -67 85 C-64.18801031 82.00117121 -61.36416666 79.80440414 -57.8671875 77.65234375 C-56.89652344 77.04712891 -55.92585937 76.44191406 -54.92578125 75.81835938 C-52.88452112 74.55988722 -50.84285131 73.30207936 -48.80078125 72.04492188 C-47.34865234 71.1390332 -47.34865234 71.1390332 -45.8671875 70.21484375 C-44.98144043 69.66948975 -44.09569336 69.12413574 -43.18310547 68.56225586 C-40.75949673 67.0225649 -40.75949673 67.0225649 -39 64 C-37.48916982 54.77449321 -42.26468864 48.51803321 -47 41.0625 C-48.14629357 39.22068896 -49.28691928 37.3755562 -50.42382812 35.52793884 C-51.44966252 33.86667416 -52.49009558 32.21445054 -53.53125 30.56274414 C-55 28 -55 28 -55 26 C-46.94648987 28.26545718 -39.24984024 31.15698167 -31.50390625 34.30273438 C-25.75663136 36.56388851 -21.49631846 37.56916812 -15.3125 36.5625 C-12.24664442 34.49097596 -11.98341137 32.21934589 -10.91235352 28.80102539 C-9.1089758 23.26445795 -6.91791801 17.86473301 -4.8125 12.4375 C-4.34908203 11.23802734 -3.88566406 10.03855469 -3.40820312 8.80273438 C-2.27397475 5.8677723 -1.13786515 2.9335536 0 0 Z " fill="#FBCB5A" transform="translate(234,128)"/>
<path d="M0 0 C4.4462681 1.92790303 8.50203831 4.40147258 12.625 6.9375 C13.77742684 7.62749961 14.93091818 8.31572429 16.08544922 9.00219727 C19.40283812 10.9809891 22.70093975 12.9907979 26 15 C27.67563162 16.00243064 29.35253411 17.00274303 31.03125 18 C34.36515267 19.98233078 37.68711673 21.9827493 41 24 C35.54082258 35.81575386 28.6909535 46.85535269 22 58 C14.79970886 54.5228529 7.88078666 50.69367929 1 46.625 C-1.09727448 45.39257926 -3.19494595 44.1608339 -5.29296875 42.9296875 C-6.38013184 42.2912793 -7.46729492 41.65287109 -8.58740234 40.99511719 C-15.60591122 36.89186533 -22.65905017 32.8482651 -29.70898438 28.79931641 C-30.74990234 28.20038574 -31.79082031 27.60145508 -32.86328125 26.984375 C-33.78407471 26.45553711 -34.70486816 25.92669922 -35.65356445 25.38183594 C-37.47062767 24.31175189 -39.24541946 23.16972036 -41 22 C-39.68278754 18.04836262 -37.30257212 17.06103296 -33.8828125 15.05859375 C-33.26985321 14.69024918 -32.65689392 14.3219046 -32.02536011 13.94239807 C-30.06340424 12.76578902 -28.09448168 11.60145935 -26.125 10.4375 C-24.80549908 9.64990974 -23.48648242 8.86150754 -22.16796875 8.07226562 C-20.3081425 6.95904841 -18.4477024 5.84707023 -16.58328247 4.74156189 C-6.5397311 -1.21683247 -6.5397311 -1.21683247 0 0 Z " fill="#C9F2FA" transform="translate(371,208)"/>
<path d="M0 0 C5.9393534 1.13536132 11.04704152 4.75747574 16.25 7.6875 C17.35730469 8.30044922 18.46460938 8.91339844 19.60546875 9.54492188 C33.1239534 17.1239534 33.1239534 17.1239534 38 22 C38.09268999 23.35094982 38.11747326 24.70667091 38.11352539 26.06079102 C38.11344986 26.92160782 38.11337433 27.78242462 38.11329651 28.66932678 C38.10813522 29.60473801 38.10297394 30.54014923 38.09765625 31.50390625 C38.0962413 32.45692123 38.09482635 33.40993622 38.09336853 34.39183044 C38.08775152 37.44875165 38.07519616 40.50560077 38.0625 43.5625 C38.05748719 45.62955624 38.05292391 47.69661362 38.04882812 49.76367188 C38.03777656 54.84247588 38.02050055 59.9212257 38 65 C34.05421868 63.78456482 30.62493275 62.37761298 27.078125 60.26953125 C26.14685791 59.72071289 25.21559082 59.17189453 24.25610352 58.60644531 C23.26408936 58.01444336 22.2720752 57.42244141 21.25 56.8125 C19.11902482 55.55247977 16.98749322 54.2934002 14.85546875 53.03515625 C13.74349121 52.37789551 12.63151367 51.72063477 11.48583984 51.04345703 C7.90026252 48.933809 4.29040399 46.86796936 0.67578125 44.80859375 C-0.52441464 44.12329203 -1.72460996 43.43798931 -2.92480469 42.75268555 C-5.24177319 41.43024218 -7.56186037 40.11382358 -9.88378906 38.80004883 C-10.93147461 38.20087646 -11.97916016 37.6017041 -13.05859375 36.984375 C-13.98986084 36.45553711 -14.92112793 35.92669922 -15.88061523 35.38183594 C-18 34 -18 34 -19 32 C-17.80004883 29.48144531 -17.80004883 29.48144531 -15.95703125 26.328125 C-15.29509766 25.18859375 -14.63316406 24.0490625 -13.95117188 22.875 C-13.23829588 21.66665803 -12.52540513 20.45832477 -11.8125 19.25 C-11.11844569 18.05769593 -10.42507797 16.8649919 -9.73242188 15.671875 C-6.62630273 10.34572727 -3.45638973 5.10608451 0 0 Z " fill="#CAF2FA" transform="translate(429,243)"/>
<path d="M0 0 C1.14146484 -0.02900391 2.28292969 -0.05800781 3.45898438 -0.08789062 C11.89547241 -0.15199018 11.89547241 -0.15199018 15.91796875 2.20703125 C18.48390489 5.26009875 18.86116015 6.7789476 18.5625 10.6875 C18.12614798 14.30631272 17.90504678 15.0893751 15.25 17.8125 C10.20077892 20.76814161 6.22258673 20.5666041 0.4375 20.625 C-0.50480469 20.65400391 -1.44710937 20.68300781 -2.41796875 20.71289062 C-8.39630406 20.76739158 -11.75286085 20.27451654 -16.3125 16.3125 C-18.65828248 13.11370571 -18.78925156 10.20597111 -18.3125 6.3125 C-13.38466317 -1.07925524 -8.25764225 0.0692368 0 0 Z " fill="#020604" transform="translate(197.3125,324.6875)"/>
<path d="M0 0 C1.14146484 -0.03738281 2.28292969 -0.07476562 3.45898438 -0.11328125 C11.71245863 -0.20010915 11.71245863 -0.20010915 14.56005859 1.47949219 C15.91796875 2.8359375 15.91796875 2.8359375 17.6875 5.375 C18.1825 5.87 18.1825 5.87 18.6875 6.375 C19.13980285 10.26480451 18.81477631 12.13862972 16.9375 15.625 C14.31668901 18.82821344 12.51658151 20.14260549 8.40087891 20.66552734 C5.70424893 20.71476877 3.00961298 20.74630532 0.3125 20.75 C-0.62078125 20.77449219 -1.5540625 20.79898437 -2.515625 20.82421875 C-8.44756769 20.84942531 -11.78344502 20.29044108 -16.3125 16.375 C-18.65828248 13.17620571 -18.78925156 10.26847111 -18.3125 6.375 C-13.39411533 -1.002577 -8.24821504 0.10143138 0 0 Z " fill="#020604" transform="translate(68.3125,324.625)"/>
<path d="M0 0 C3.3258409 2.062783 6.23502468 4.47004936 8 8 C8.39771327 12.77255923 8.47453429 15.08482672 6.25 19.375 C2.8538211 23.33720871 1.34221819 23.87010792 -3.875 24.375 C-8.18785966 24.26235068 -10.70279071 22.82617939 -14 20 C-16.29968534 17.07312775 -16.52999194 13.78906984 -16.4609375 10.1015625 C-15.60803882 6.21292275 -12.90176501 3.59354645 -10 1 C-6.7374887 -0.63125565 -3.5120384 -0.68851113 0 0 Z " fill="#77A5BA" transform="translate(278,290)"/>
<path d="M0 0 C3.32255304 2.07500439 6.23284064 4.46568128 8 8 C8.45813548 14.07029508 7.41076984 17.18743518 3.5 21.75 C0.07197204 24.60668997 -3.76238061 24.35912029 -8 24 C-11.05357079 22.38679279 -13.23833566 20.96939098 -15.375 18.25 C-16.82399408 13.03362133 -16.70053657 9.35103481 -14.25 4.625 C-10.30964541 0.02791964 -6.0594614 -1.32902685 0 0 Z " fill="#77A5BA" transform="translate(420,372)"/>
<path d="M0 0 C6.6 0 13.2 0 20 0 C20 6.6 20 13.2 20 20 C13.4 20 6.8 20 0 20 C0 13.4 0 6.8 0 0 Z " fill="#77A4BA" transform="translate(216,385)"/>
<path d="M0 0 C6.6 0 13.2 0 20 0 C20 6.6 20 13.2 20 20 C13.4 20 6.8 20 0 20 C0 13.4 0 6.8 0 0 Z " fill="#77A4BA" transform="translate(30,385)"/>
<path d="M0 0 C2.8100346 1.79363911 4.50940468 3.01880935 6 6 C6.36206054 10.41713859 6.51432609 12.94898583 4.5625 16.9375 C0.92583984 19.86456793 -2.39025359 20.29634084 -7 20 C-10.670261 18.43818681 -11.7727373 17.34089404 -14 14 C-14.67226891 7.05322129 -14.67226891 7.05322129 -12.125 3.0625 C-8.49059499 -0.46501074 -4.90782663 -0.7051475 0 0 Z " fill="#010201" transform="translate(137,365)"/>
</svg>
