<?xml version="1.0" encoding="UTF-8"?>
<svg version="1.1" xmlns="http://www.w3.org/2000/svg" width="512" height="512">
<path d="M0 0 C0.72161316 0.00021149 1.44322632 0.00042297 2.18670654 0.00064087 C14.14490744 0.03549432 25.40956408 1.06771617 36.9375 4.375 C37.60297852 4.55691895 38.26845703 4.73883789 38.95410156 4.92626953 C57.49283744 10.09439246 74.31844359 20.00681418 88.9375 32.375 C89.74960937 33.05175781 90.56171875 33.72851562 91.3984375 34.42578125 C116.69675112 56.25255972 131.77076126 87.47427649 135.9375 120.375 C136.12130728 124.80058504 136.12332182 129.22452303 136.12280273 133.65332031 C136.12498726 135.73783866 136.1431824 137.82182503 136.16210938 139.90625 C136.19105743 147.0109301 135.86303177 153.51006065 133.9375 160.375 C135.175 160.436875 136.4125 160.49875 137.6875 160.5625 C147.50334422 161.67372765 156.12838191 166.56501614 163.9375 172.375 C165.484375 173.48875 165.484375 173.48875 167.0625 174.625 C176.7277788 183.87004929 183.72750179 197.26835744 184.37109375 210.7421875 C184.3942775 212.57797908 184.39513852 214.41417249 184.375 216.25 C184.36815186 217.21381592 184.36130371 218.17763184 184.35424805 219.1706543 C184.18948348 226.49002684 183.14934141 232.72944656 179.9375 239.375 C179.586875 240.15488281 179.23625 240.93476563 178.875 241.73828125 C172.24143779 255.07450528 159.89005153 265.47324835 145.9375 270.375 C137.89161504 272.63910268 130.15184443 272.63397315 121.83984375 272.5703125 C120.39539284 272.56657506 118.95093936 272.56373155 117.50648499 272.56173706 C113.73357958 272.55415806 109.960832 272.53456 106.18798828 272.5123291 C102.3265191 272.49174601 98.46502403 272.48270889 94.60351562 272.47265625 C87.0481057 272.45130773 79.4928251 272.4172425 71.9375 272.375 C71.9375 269.735 71.9375 267.095 71.9375 264.375 C66.9875 264.375 62.0375 264.375 56.9375 264.375 C56.9375 267.015 56.9375 269.655 56.9375 272.375 C50.3375 272.705 43.7375 273.035 36.9375 273.375 C39.9075 276.345 42.8775 279.315 45.9375 282.375 C43.98362336 286.28275329 42.54857271 287.85122339 39.3125 290.625 C38.08660156 291.68460937 38.08660156 291.68460937 36.8359375 292.765625 C36.20945312 293.29671875 35.58296875 293.8278125 34.9375 294.375 C28.52680713 289.10398586 22.75159488 283.28371848 16.9375 277.375 C13.48548361 278.85221422 11.28788064 280.81294001 8.6875 283.5 C7.98109375 284.22445313 7.2746875 284.94890625 6.546875 285.6953125 C6.01578125 286.24960937 5.4846875 286.80390625 4.9375 287.375 C6.33097376 290.52704981 7.96235079 292.63671773 10.4140625 295.046875 C11.084375 295.71074219 11.7546875 296.37460937 12.4453125 297.05859375 C13.14398438 297.74050781 13.84265625 298.42242187 14.5625 299.125 C15.62210937 300.17107422 15.62210937 300.17107422 16.703125 301.23828125 C18.44348703 302.95512488 20.18834981 304.66711832 21.9375 306.375 C21.0110288 307.48316566 20.08054151 308.58797428 19.1484375 309.69140625 C18.63071777 310.30701416 18.11299805 310.92262207 17.57958984 311.55688477 C15.24433511 314.14246936 12.67442763 316.22455686 9.9375 318.375 C6.9675 315.405 3.9975 312.435 0.9375 309.375 C0.6075 315.645 0.2775 321.915 -0.0625 328.375 C-5.3425 328.375 -10.6225 328.375 -16.0625 328.375 C-16.3925 322.105 -16.7225 315.835 -17.0625 309.375 C-20.0325 312.345 -23.0025 315.315 -26.0625 318.375 C-30.75633883 314.50948567 -34.06854317 311.16774819 -38.0625 306.375 C-32.4525 300.765 -26.8425 295.155 -21.0625 289.375 C-22.89635923 285.70728155 -24.31312829 283.90665004 -27.1875 281.125 C-27.91195313 280.41859375 -28.63640625 279.7121875 -29.3828125 278.984375 C-29.93710937 278.45328125 -30.49140625 277.9221875 -31.0625 277.375 C-34.21454981 278.76847376 -36.32421773 280.39985079 -38.734375 282.8515625 C-39.39824219 283.521875 -40.06210937 284.1921875 -40.74609375 284.8828125 C-41.42800781 285.58148438 -42.10992187 286.28015625 -42.8125 287 C-43.85857422 288.05960937 -43.85857422 288.05960937 -44.92578125 289.140625 C-46.64262488 290.88098703 -48.35461832 292.62584981 -50.0625 294.375 C-51.17066566 293.4485288 -52.27547428 292.51804151 -53.37890625 291.5859375 C-53.99451416 291.06821777 -54.61012207 290.55049805 -55.24438477 290.01708984 C-57.82996936 287.68183511 -59.91205686 285.11192763 -62.0625 282.375 C-59.0925 279.405 -56.1225 276.435 -53.0625 273.375 C-59.3325 273.045 -65.6025 272.715 -72.0625 272.375 C-72.0625 269.735 -72.0625 267.095 -72.0625 264.375 C-77.3425 264.375 -82.6225 264.375 -88.0625 264.375 C-88.0625 267.015 -88.0625 269.655 -88.0625 272.375 C-115.93956345 272.44509793 -143.81661367 272.49799208 -171.69374752 272.53043652 C-184.63773992 272.5459018 -197.58167753 272.56698494 -210.52563477 272.60131836 C-221.80829628 272.63123096 -233.09091812 272.65057747 -244.37361819 272.65726548 C-250.34706411 272.66117456 -256.32039654 272.67035459 -262.29380608 272.69219017 C-267.91865308 272.71258459 -273.54334005 272.71882776 -279.16822052 272.71432304 C-281.23013492 272.71514691 -283.29205478 272.72109484 -285.35393715 272.73261642 C-288.17547892 272.74760671 -290.99642141 272.74392975 -293.81797791 272.73576355 C-294.62831622 272.74450207 -295.43865453 272.7532406 -296.27354854 272.76224393 C-305.47388439 272.69058065 -313.42573645 269.83012581 -320.0625 263.375 C-327.72487047 253.89472789 -329.27284443 244.25150476 -328.0625 232.375 C-326.11011912 223.80005441 -321.36460128 217.35624588 -314.0625 212.5625 C-305.62855964 207.41428224 -295.67621277 206.89643235 -286.14453125 209.02734375 C-277.56839305 212.12539057 -271.9102356 217.24953639 -267.625 225.25 C-265.23075787 230.40183808 -264.25105911 234.71822674 -264.0625 240.375 C-269.3425 240.375 -274.6225 240.375 -280.0625 240.375 C-280.619375 238.993125 -281.17625 237.61125 -281.75 236.1875 C-283.57604365 232.07566411 -285.53679668 229.26788478 -289.0625 226.375 C-293.12714515 225.02011828 -296.81235211 224.83737445 -301.0625 225.375 C-305.70675866 227.86913891 -309.37625022 230.31625067 -311.0625 235.375 C-311.58103818 240.3138636 -311.61449525 244.22854834 -309.4375 248.75 C-306.07842591 252.46266084 -303.53718238 255.02785582 -298.50535965 255.73371124 C-295.2684396 255.86801236 -292.05445714 255.86938079 -288.81494141 255.82910156 C-287.58511536 255.82968567 -286.35528931 255.83026978 -285.0881958 255.83087158 C-281.72876491 255.82856782 -278.37032611 255.80855576 -275.01107073 255.78057575 C-271.49572219 255.75551285 -267.9803594 255.75321627 -264.4649353 255.74847412 C-257.81388974 255.73605861 -251.16310824 255.7032566 -244.51217878 255.66307616 C-236.93785594 255.61831383 -229.36352027 255.59636024 -221.78909802 255.57629442 C-206.2134126 255.53452246 -190.6379904 255.46419849 -175.0625 255.375 C-176.00416016 254.60551025 -176.94582031 253.83602051 -177.91601562 253.04321289 C-189.98165253 243.18362202 -197.89411865 226.61446519 -200.0625 211.375 C-201.96059366 190.84626168 -198.08257565 171.1460377 -184.79125977 154.8737793 C-178.95146 147.96764 -178.95146 147.96764 -175.0625 145.375 C-187.0845325 145.30546565 -199.10651709 145.25217115 -211.12870979 145.21956348 C-216.71120435 145.20391283 -222.29356124 145.18268527 -227.87597656 145.14868164 C-233.26410143 145.11606716 -238.65209394 145.09814247 -244.04030991 145.09036827 C-246.09519407 145.08482855 -248.15007106 145.07401082 -250.20489883 145.05780983 C-253.08483746 145.03600802 -255.96423031 145.03303426 -258.84423828 145.03442383 C-259.69228531 145.023638 -260.54033234 145.01285217 -261.41407776 145.0017395 C-266.37795667 145.02762712 -269.75950316 145.62929014 -274.0625 148.375 C-278.50687647 153.2998496 -279.4188486 156.32661487 -279.34375 162.83203125 C-278.93068756 166.56680418 -277.55375668 168.61441828 -275.0625 171.375 C-271.26580086 174.35079122 -267.86614862 175.21216445 -263.0625 175.375 C-258.87494461 174.49671123 -255.8670898 173.13609846 -252.75 170.1875 C-250.64602023 166.68086705 -249.37530098 163.24776289 -248.0625 159.375 C-242.7825 159.375 -237.5025 159.375 -232.0625 159.375 C-232.75186111 170.23243756 -236.21418131 177.76869994 -244.0625 185.375 C-249.8987753 190.28277696 -257.00865539 191.84950162 -264.4375 192.8125 C-275.46195172 191.48196272 -283.87210691 188.03554781 -291.0625 179.375 C-296.84736761 171.10342459 -297.13633945 162.08007731 -296.0625 152.375 C-293.83869203 143.1919812 -287.11708372 136.23192014 -279.25 131.3828125 C-271.87805564 127.98645242 -264.97546835 128.10104947 -256.96704102 128.14794922 C-255.00504005 128.14751114 -255.00504005 128.14751114 -253.00340271 128.14706421 C-249.4336275 128.14649257 -245.86398787 128.15821611 -242.29424405 128.17221212 C-238.55733005 128.18475111 -234.82041263 128.18589247 -231.08348083 128.18826294 C-224.01465705 128.19446842 -216.94589544 128.21086657 -209.87709898 128.23096192 C-201.82631261 128.25334998 -193.77552321 128.26432165 -185.72471344 128.27435279 C-169.17060595 128.29523367 -152.61656092 128.33039145 -136.0625 128.375 C-135.96747444 127.04755768 -135.96747444 127.04755768 -135.87052917 125.69329834 C-135.78459 124.52832825 -135.69865082 123.36335815 -135.61010742 122.16308594 C-135.52613205 121.00999939 -135.44215668 119.85691284 -135.3556366 118.66888428 C-134.99044053 114.56529028 -134.3103126 110.63206613 -133.375 106.625 C-133.20057373 105.86968994 -133.02614746 105.11437988 -132.84643555 104.33618164 C-124.13725735 68.15641198 -101.87175348 38.10402228 -70.16943359 18.61132812 C-48.4322629 5.85616794 -25.12533459 -0.06834808 0 0 Z " fill="#D9ECF6" transform="translate(328.0625,27.625)"/>
<path d="M0 0 C0.72161316 0.00021149 1.44322632 0.00042297 2.18670654 0.00064087 C14.14490744 0.03549432 25.40956408 1.06771617 36.9375 4.375 C37.60297852 4.55691895 38.26845703 4.73883789 38.95410156 4.92626953 C57.49283744 10.09439246 74.31844359 20.00681418 88.9375 32.375 C89.74960937 33.05175781 90.56171875 33.72851562 91.3984375 34.42578125 C116.69675112 56.25255972 131.77076126 87.47427649 135.9375 120.375 C136.12130728 124.80058504 136.12332182 129.22452303 136.12280273 133.65332031 C136.12498726 135.73783866 136.1431824 137.82182503 136.16210938 139.90625 C136.19105743 147.0109301 135.86303177 153.51006065 133.9375 160.375 C135.175 160.436875 136.4125 160.49875 137.6875 160.5625 C147.50334422 161.67372765 156.12838191 166.56501614 163.9375 172.375 C165.484375 173.48875 165.484375 173.48875 167.0625 174.625 C176.7277788 183.87004929 183.72750179 197.26835744 184.37109375 210.7421875 C184.3942775 212.57797908 184.39513852 214.41417249 184.375 216.25 C184.36815186 217.21381592 184.36130371 218.17763184 184.35424805 219.1706543 C184.18948348 226.49002684 183.14934141 232.72944656 179.9375 239.375 C179.586875 240.15488281 179.23625 240.93476563 178.875 241.73828125 C172.24143779 255.07450528 159.89005153 265.47324835 145.9375 270.375 C137.89161504 272.63910268 130.15184443 272.63397315 121.83984375 272.5703125 C120.39539284 272.56657506 118.95093936 272.56373155 117.50648499 272.56173706 C113.73357958 272.55415806 109.960832 272.53456 106.18798828 272.5123291 C102.3265191 272.49174601 98.46502403 272.48270889 94.60351562 272.47265625 C87.04809733 272.45130771 79.49284103 272.41617352 71.9375 272.375 C71.9375 267.425 71.9375 262.475 71.9375 257.375 C73.74347656 257.35518066 75.54945313 257.33536133 77.41015625 257.31494141 C83.40130231 257.24695656 89.39228227 257.17016579 95.38323975 257.08747292 C99.0127791 257.03769269 102.64229189 256.99136238 106.27197266 256.953125 C109.77991945 256.91603961 113.28763366 256.86961947 116.79537964 256.81693649 C118.77374619 256.78959803 120.75223641 256.77173371 122.73071289 256.75405884 C135.2997709 256.54946218 147.17378422 253.99109702 156.8125 245.25 C165.17780285 236.06657462 168.43971775 224.29763138 168.25 212.203125 C167.34811061 201.15497996 162.03283608 193.00146791 154.0625 185.625 C147.12243831 179.82178651 139.10034472 176.18768461 129.9375 176.375 C129.60878906 177.33277344 129.28007812 178.29054687 128.94140625 179.27734375 C123.66947029 194.20438888 116.80061142 207.93189213 106.9375 220.375 C103.89897295 218.96523295 101.3435405 217.28629772 98.6875 215.25 C97.98109375 214.71117187 97.2746875 214.17234375 96.546875 213.6171875 C96.01578125 213.20726562 95.4846875 212.79734375 94.9375 212.375 C96.26574857 208.74488377 97.89850832 205.75816212 100.0625 202.5625 C108.00482685 190.20225385 113.47498265 177.64110832 116.9375 163.375 C117.18306641 162.40143555 117.18306641 162.40143555 117.43359375 161.40820312 C121.3568621 145.43952821 121.17946431 128.45439771 117.9375 112.375 C117.57011719 110.50521484 117.57011719 110.50521484 117.1953125 108.59765625 C113.04601222 89.22625552 103.65075227 72.43016717 90.9375 57.375 C89.93976563 56.15683594 89.93976563 56.15683594 88.921875 54.9140625 C70.23956096 32.97964194 41.41809635 19.32747017 12.9375 16.375 C0.31923313 15.59986373 -12.69712293 15.508853 -25.0625 18.375 C-26.23167969 18.63152344 -27.40085937 18.88804688 -28.60546875 19.15234375 C-49.3539494 24.16208053 -67.9333007 34.29648479 -83.0625 49.375 C-83.90941406 50.21546875 -84.75632813 51.0559375 -85.62890625 51.921875 C-108.17539821 74.64931794 -119.25147312 103.09567696 -119.24780273 134.9362793 C-119.24997717 137.04041152 -119.26814963 139.14400778 -119.28710938 141.24804688 C-119.32130589 149.77801112 -118.65692531 157.97468219 -117.0625 166.375 C-128.3125 169.72321429 -128.3125 169.72321429 -132.0625 168.375 C-134.02079294 160.28538514 -135.58167486 152.72025522 -135.0625 144.375 C-150.14534224 147.27554658 -163.4886081 153.63289591 -173.0546875 165.9375 C-182.08134686 179.2644134 -185.73578131 193.44053549 -183.671875 209.39453125 C-180.02520113 226.48247099 -170.64249027 239.91110212 -156.0625 249.375 C-145.79508351 254.61631989 -136.19768246 256.65831998 -124.78125 256.7890625 C-123.72715942 256.80842865 -122.67306885 256.8277948 -121.58703613 256.8477478 C-118.24560443 256.90716164 -114.90413756 256.95377562 -111.5625 257 C-109.28644395 257.03821494 -107.01040181 257.07726869 -104.734375 257.1171875 C-99.1771974 257.21283164 -93.61995216 257.2970029 -88.0625 257.375 C-88.0625 262.325 -88.0625 267.275 -88.0625 272.375 C-115.93956345 272.44509793 -143.81661367 272.49799208 -171.69374752 272.53043652 C-184.63773992 272.5459018 -197.58167753 272.56698494 -210.52563477 272.60131836 C-221.80829628 272.63123096 -233.09091812 272.65057747 -244.37361819 272.65726548 C-250.34706411 272.66117456 -256.32039654 272.67035459 -262.29380608 272.69219017 C-267.91865308 272.71258459 -273.54334005 272.71882776 -279.16822052 272.71432304 C-281.23013492 272.71514691 -283.29205478 272.72109484 -285.35393715 272.73261642 C-288.17547892 272.74760671 -290.99642141 272.74392975 -293.81797791 272.73576355 C-294.62831622 272.74450207 -295.43865453 272.7532406 -296.27354854 272.76224393 C-305.47388439 272.69058065 -313.42573645 269.83012581 -320.0625 263.375 C-327.72487047 253.89472789 -329.27284443 244.25150476 -328.0625 232.375 C-326.11011912 223.80005441 -321.36460128 217.35624588 -314.0625 212.5625 C-305.62855964 207.41428224 -295.67621277 206.89643235 -286.14453125 209.02734375 C-277.56839305 212.12539057 -271.9102356 217.24953639 -267.625 225.25 C-265.23075787 230.40183808 -264.25105911 234.71822674 -264.0625 240.375 C-269.3425 240.375 -274.6225 240.375 -280.0625 240.375 C-280.619375 238.993125 -281.17625 237.61125 -281.75 236.1875 C-283.57604365 232.07566411 -285.53679668 229.26788478 -289.0625 226.375 C-293.12714515 225.02011828 -296.81235211 224.83737445 -301.0625 225.375 C-305.70675866 227.86913891 -309.37625022 230.31625067 -311.0625 235.375 C-311.58103818 240.3138636 -311.61449525 244.22854834 -309.4375 248.75 C-306.07842591 252.46266084 -303.53718238 255.02785582 -298.50535965 255.73371124 C-295.2684396 255.86801236 -292.05445714 255.86938079 -288.81494141 255.82910156 C-287.58511536 255.82968567 -286.35528931 255.83026978 -285.0881958 255.83087158 C-281.72876491 255.82856782 -278.37032611 255.80855576 -275.01107073 255.78057575 C-271.49572219 255.75551285 -267.9803594 255.75321627 -264.4649353 255.74847412 C-257.81388974 255.73605861 -251.16310824 255.7032566 -244.51217878 255.66307616 C-236.93785594 255.61831383 -229.36352027 255.59636024 -221.78909802 255.57629442 C-206.2134126 255.53452246 -190.6379904 255.46419849 -175.0625 255.375 C-176.00416016 254.60551025 -176.94582031 253.83602051 -177.91601562 253.04321289 C-189.98165253 243.18362202 -197.89411865 226.61446519 -200.0625 211.375 C-201.96059366 190.84626168 -198.08257565 171.1460377 -184.79125977 154.8737793 C-178.95146 147.96764 -178.95146 147.96764 -175.0625 145.375 C-187.0845325 145.30546565 -199.10651709 145.25217115 -211.12870979 145.21956348 C-216.71120435 145.20391283 -222.29356124 145.18268527 -227.87597656 145.14868164 C-233.26410143 145.11606716 -238.65209394 145.09814247 -244.04030991 145.09036827 C-246.09519407 145.08482855 -248.15007106 145.07401082 -250.20489883 145.05780983 C-253.08483746 145.03600802 -255.96423031 145.03303426 -258.84423828 145.03442383 C-259.69228531 145.023638 -260.54033234 145.01285217 -261.41407776 145.0017395 C-266.37795667 145.02762712 -269.75950316 145.62929014 -274.0625 148.375 C-278.50687647 153.2998496 -279.4188486 156.32661487 -279.34375 162.83203125 C-278.93068756 166.56680418 -277.55375668 168.61441828 -275.0625 171.375 C-271.26580086 174.35079122 -267.86614862 175.21216445 -263.0625 175.375 C-258.87494461 174.49671123 -255.8670898 173.13609846 -252.75 170.1875 C-250.64602023 166.68086705 -249.37530098 163.24776289 -248.0625 159.375 C-242.7825 159.375 -237.5025 159.375 -232.0625 159.375 C-232.75186111 170.23243756 -236.21418131 177.76869994 -244.0625 185.375 C-249.8987753 190.28277696 -257.00865539 191.84950162 -264.4375 192.8125 C-275.46195172 191.48196272 -283.87210691 188.03554781 -291.0625 179.375 C-296.84736761 171.10342459 -297.13633945 162.08007731 -296.0625 152.375 C-293.83869203 143.1919812 -287.11708372 136.23192014 -279.25 131.3828125 C-271.87805564 127.98645242 -264.97546835 128.10104947 -256.96704102 128.14794922 C-255.00504005 128.14751114 -255.00504005 128.14751114 -253.00340271 128.14706421 C-249.4336275 128.14649257 -245.86398787 128.15821611 -242.29424405 128.17221212 C-238.55733005 128.18475111 -234.82041263 128.18589247 -231.08348083 128.18826294 C-224.01465705 128.19446842 -216.94589544 128.21086657 -209.87709898 128.23096192 C-201.82631261 128.25334998 -193.77552321 128.26432165 -185.72471344 128.27435279 C-169.17060595 128.29523367 -152.61656092 128.33039145 -136.0625 128.375 C-135.96747444 127.04755768 -135.96747444 127.04755768 -135.87052917 125.69329834 C-135.78459 124.52832825 -135.69865082 123.36335815 -135.61010742 122.16308594 C-135.52613205 121.00999939 -135.44215668 119.85691284 -135.3556366 118.66888428 C-134.99044053 114.56529028 -134.3103126 110.63206613 -133.375 106.625 C-133.20057373 105.86968994 -133.02614746 105.11437988 -132.84643555 104.33618164 C-124.13725735 68.15641198 -101.87175348 38.10402228 -70.16943359 18.61132812 C-48.4322629 5.85616794 -25.12533459 -0.06834808 0 0 Z " fill="#000101" transform="translate(328.0625,27.625)"/>
<path d="M0 0 C5.28 0 10.56 0 16 0 C16.33 6.6 16.66 13.2 17 20 C19.31 17.69 21.62 15.38 24 13 C25.32 12.34 26.64 11.68 28 11 C31.63 14.63 35.26 18.26 39 22 C33.72898586 28.41069287 27.90871848 34.18590512 22 40 C23.47721422 43.45201639 25.43794001 45.64961936 28.125 48.25 C29.21167969 49.30960937 29.21167969 49.30960937 30.3203125 50.390625 C30.87460938 50.92171875 31.42890625 51.4528125 32 52 C35.15204981 50.60652624 37.26171773 48.97514921 39.671875 46.5234375 C40.66767578 45.51796875 40.66767578 45.51796875 41.68359375 44.4921875 C42.36550781 43.79351562 43.04742187 43.09484375 43.75 42.375 C44.44738281 41.66859375 45.14476562 40.9621875 45.86328125 40.234375 C47.58012488 38.49401297 49.29211832 36.74915019 51 35 C52.10816566 35.9264712 53.21297428 36.85695849 54.31640625 37.7890625 C54.93201416 38.30678223 55.54762207 38.82450195 56.18188477 39.35791016 C58.76746936 41.69316489 60.84955686 44.26307237 63 47 C58.05 51.95 58.05 51.95 53 57 C59.93 57.33 66.86 57.66 74 58 C74 62.95 74 67.9 74 73 C64.1 73.495 64.1 73.495 54 74 C56.97 76.97 59.94 79.94 63 83 C61.04612336 86.90775329 59.61107271 88.47622339 56.375 91.25 C55.55773437 91.95640625 54.74046875 92.6628125 53.8984375 93.390625 C53.27195312 93.92171875 52.64546875 94.4528125 52 95 C45.58930713 89.72898586 39.81409488 83.90871848 34 78 C30.54798361 79.47721422 28.35038064 81.43794001 25.75 84.125 C24.69039062 85.21167969 24.69039062 85.21167969 23.609375 86.3203125 C23.07828125 86.87460937 22.5471875 87.42890625 22 88 C23.39347376 91.15204981 25.02485079 93.26171773 27.4765625 95.671875 C28.146875 96.33574219 28.8171875 96.99960937 29.5078125 97.68359375 C30.20648438 98.36550781 30.90515625 99.04742187 31.625 99.75 C32.33140625 100.44738281 33.0378125 101.14476562 33.765625 101.86328125 C35.50598703 103.58012488 37.25084981 105.29211832 39 107 C38.0735288 108.10816566 37.14304151 109.21297428 36.2109375 110.31640625 C35.43435791 111.23981812 35.43435791 111.23981812 34.64208984 112.18188477 C32.30683511 114.76746936 29.73692763 116.84955686 27 119 C22.05 114.545 22.05 114.545 17 110 C16.67 116.6 16.34 123.2 16 130 C10.72 130 5.44 130 0 130 C-0.33 123.73 -0.66 117.46 -1 111 C-3.64 113.64 -6.28 116.28 -9 119 C-12.66771845 117.16614077 -14.46834996 115.74937171 -17.25 112.875 C-17.95640625 112.15054688 -18.6628125 111.42609375 -19.390625 110.6796875 C-19.92171875 110.12539063 -20.4528125 109.57109375 -21 109 C-19.60652624 105.84795019 -17.97514921 103.73828227 -15.5234375 101.328125 C-14.853125 100.66425781 -14.1828125 100.00039063 -13.4921875 99.31640625 C-12.79351562 98.63449219 -12.09484375 97.95257813 -11.375 97.25 C-10.66859375 96.55261719 -9.9621875 95.85523438 -9.234375 95.13671875 C-7.49401297 93.41987512 -5.74915019 91.70788168 -4 90 C-5.60535287 86.58940597 -7.40518901 84.38207516 -10.125 81.75 C-10.84945312 81.04359375 -11.57390625 80.3371875 -12.3203125 79.609375 C-12.87460938 79.07828125 -13.42890625 78.5471875 -14 78 C-17.15204981 79.39347376 -19.26171773 81.02485079 -21.671875 83.4765625 C-22.33574219 84.146875 -22.99960938 84.8171875 -23.68359375 85.5078125 C-24.36550781 86.20648438 -25.04742187 86.90515625 -25.75 87.625 C-26.44738281 88.33140625 -27.14476562 89.0378125 -27.86328125 89.765625 C-29.58012488 91.50598703 -31.29211832 93.25084981 -33 95 C-36.41059403 93.39464713 -38.61792484 91.59481099 -41.25 88.875 C-41.95640625 88.15054688 -42.6628125 87.42609375 -43.390625 86.6796875 C-43.92171875 86.12539063 -44.4528125 85.57109375 -45 85 C-43 81 -43 81 -36 74 C-42.6 73.67 -49.2 73.34 -56 73 C-56 68.05 -56 63.1 -56 58 C-46.1 57.505 -46.1 57.505 -36 57 C-38.97 53.7 -41.94 50.4 -45 47 C-42.11954533 42.34695784 -38.96084779 38.78080926 -35 35 C-31.84795019 36.39347376 -29.73828227 38.02485079 -27.328125 40.4765625 C-26.33232422 41.48203125 -26.33232422 41.48203125 -25.31640625 42.5078125 C-24.63449219 43.20648438 -23.95257813 43.90515625 -23.25 44.625 C-22.55261719 45.33140625 -21.85523438 46.0378125 -21.13671875 46.765625 C-19.41987512 48.50598703 -17.70788168 50.25084981 -16 52 C-12.58940597 50.39464713 -10.38207516 48.59481099 -7.75 45.875 C-7.04359375 45.15054688 -6.3371875 44.42609375 -5.609375 43.6796875 C-5.07828125 43.12539063 -4.5471875 42.57109375 -4 42 C-5.39347376 38.84795019 -7.02485079 36.73828227 -9.4765625 34.328125 C-10.146875 33.66425781 -10.8171875 33.00039063 -11.5078125 32.31640625 C-12.20648438 31.63449219 -12.90515625 30.95257813 -13.625 30.25 C-14.33140625 29.55261719 -15.0378125 28.85523438 -15.765625 28.13671875 C-17.50598703 26.41987512 -19.25084981 24.70788168 -21 23 C-19.39464713 19.58940597 -17.59481099 17.38207516 -14.875 14.75 C-14.15054688 14.04359375 -13.42609375 13.3371875 -12.6796875 12.609375 C-12.12539062 12.07828125 -11.57109375 11.5471875 -11 11 C-6.37866085 12.77743813 -4.93994379 15.06005621 -1 19 C-0.67 12.73 -0.34 6.46 0 0 Z " fill="#000000" transform="translate(199,355)"/>
<path d="M0 0 C5.28 0 10.56 0 16 0 C16.33 6.6 16.66 13.2 17 20 C21.455 15.545 21.455 15.545 26 11 C29.66771845 12.83385923 31.46834996 14.25062829 34.25 17.125 C34.95640625 17.84945313 35.6628125 18.57390625 36.390625 19.3203125 C37.18726563 20.15175781 37.18726563 20.15175781 38 21 C36.60652624 24.15204981 34.97514921 26.26171773 32.5234375 28.671875 C31.853125 29.33574219 31.1828125 29.99960937 30.4921875 30.68359375 C29.44417969 31.70646484 29.44417969 31.70646484 28.375 32.75 C27.66859375 33.44738281 26.9621875 34.14476562 26.234375 34.86328125 C24.49401297 36.58012488 22.74915019 38.29211832 21 40 C22.60535287 43.41059403 24.40518901 45.61792484 27.125 48.25 C28.21167969 49.30960937 28.21167969 49.30960937 29.3203125 50.390625 C29.87460937 50.92171875 30.42890625 51.4528125 31 52 C34.15204981 50.60652624 36.26171773 48.97514921 38.671875 46.5234375 C39.66767578 45.51796875 39.66767578 45.51796875 40.68359375 44.4921875 C41.36550781 43.79351562 42.04742187 43.09484375 42.75 42.375 C43.44738281 41.66859375 44.14476562 40.9621875 44.86328125 40.234375 C46.58012488 38.49401297 48.29211832 36.74915019 50 35 C53.31115963 36.57599923 55.66702538 38.31174306 58.3125 40.875 C59.03050781 41.55304688 59.74851562 42.23109375 60.48828125 42.9296875 C62 45 62 45 61.984375 46.9921875 C59.97572784 51.08919003 56.26197328 53.89335878 53 57 C59.6 57.33 66.2 57.66 73 58 C73 62.95 73 67.9 73 73 C63.1 73.495 63.1 73.495 53 74 C55.97 76.97 58.94 79.94 62 83 C60.16614077 86.66771845 58.74937171 88.46834996 55.875 91.25 C55.15054688 91.95640625 54.42609375 92.6628125 53.6796875 93.390625 C53.12539063 93.92171875 52.57109375 94.4528125 52 95 C48.84795019 93.60652624 46.73828227 91.97514921 44.328125 89.5234375 C43.66425781 88.853125 43.00039063 88.1828125 42.31640625 87.4921875 C41.29353516 86.44417969 41.29353516 86.44417969 40.25 85.375 C39.55261719 84.66859375 38.85523438 83.9621875 38.13671875 83.234375 C36.41987512 81.49401297 34.70788168 79.74915019 33 78 C29.58940597 79.60535287 27.38207516 81.40518901 24.75 84.125 C23.69039062 85.21167969 23.69039062 85.21167969 22.609375 86.3203125 C22.07828125 86.87460937 21.5471875 87.42890625 21 88 C22.39347376 91.15204981 24.02485079 93.26171773 26.4765625 95.671875 C27.146875 96.33574219 27.8171875 96.99960937 28.5078125 97.68359375 C29.20648438 98.36550781 29.90515625 99.04742187 30.625 99.75 C31.33140625 100.44738281 32.0378125 101.14476562 32.765625 101.86328125 C34.50598703 103.58012488 36.25084981 105.29211832 38 107 C36.39464713 110.41059403 34.59481099 112.61792484 31.875 115.25 C31.15054688 115.95640625 30.42609375 116.6628125 29.6796875 117.390625 C29.12539063 117.92171875 28.57109375 118.4528125 28 119 C24 117 24 117 17 110 C16.67 116.6 16.34 123.2 16 130 C10.72 130 5.44 130 0 130 C-0.33 123.4 -0.66 116.8 -1 110 C-3.97 112.97 -6.94 115.94 -10 119 C-12.34701864 117.01406115 -14.67784151 115.01452211 -17 113 C-17.825 112.29875 -18.65 111.5975 -19.5 110.875 C-21 109 -21 109 -20.80493164 107.11230469 C-19.82688769 104.54571802 -18.5847232 103.24225119 -16.62109375 101.328125 C-15.94755859 100.66425781 -15.27402344 100.00039063 -14.58007812 99.31640625 C-13.87302734 98.63449219 -13.16597656 97.95257813 -12.4375 97.25 C-11.72658203 96.55261719 -11.01566406 95.85523438 -10.28320312 95.13671875 C-8.52869286 93.4175342 -6.76756648 91.70574128 -5 90 C-6.60535287 86.58940597 -8.40518901 84.38207516 -11.125 81.75 C-11.84945312 81.04359375 -12.57390625 80.3371875 -13.3203125 79.609375 C-13.87460937 79.07828125 -14.42890625 78.5471875 -15 78 C-18.15204981 79.39347376 -20.26171773 81.02485079 -22.671875 83.4765625 C-23.33574219 84.146875 -23.99960937 84.8171875 -24.68359375 85.5078125 C-25.36550781 86.20648438 -26.04742187 86.90515625 -26.75 87.625 C-27.44738281 88.33140625 -28.14476562 89.0378125 -28.86328125 89.765625 C-30.58012488 91.50598703 -32.29211832 93.25084981 -34 95 C-35.10816566 94.0735288 -36.21297428 93.14304151 -37.31640625 92.2109375 C-37.93201416 91.69321777 -38.54762207 91.17549805 -39.18188477 90.64208984 C-41.76746936 88.30683511 -43.84955686 85.73692763 -46 83 C-42.7 80.03 -39.4 77.06 -36 74 C-42.6 73.67 -49.2 73.34 -56 73 C-56 68.05 -56 63.1 -56 58 C-46.1 57.505 -46.1 57.505 -36 57 C-39.3 53.7 -42.6 50.4 -46 47 C-42.13448567 42.30616117 -38.79274819 38.99395683 -34 35 C-28.39 40.61 -22.78 46.22 -17 52 C-13.33228155 50.16614077 -11.53165004 48.74937171 -8.75 45.875 C-8.04359375 45.15054688 -7.3371875 44.42609375 -6.609375 43.6796875 C-6.07828125 43.12539063 -5.5471875 42.57109375 -5 42 C-6.39347376 38.84795019 -8.02485079 36.73828227 -10.4765625 34.328125 C-11.146875 33.66425781 -11.8171875 33.00039063 -12.5078125 32.31640625 C-13.20648438 31.63449219 -13.90515625 30.95257813 -14.625 30.25 C-15.33140625 29.55261719 -16.0378125 28.85523438 -16.765625 28.13671875 C-18.50598703 26.41987512 -20.25084981 24.70788168 -22 23 C-21.0735288 21.89183434 -20.14304151 20.78702572 -19.2109375 19.68359375 C-18.69321777 19.06798584 -18.17549805 18.45237793 -17.64208984 17.81811523 C-15.30683511 15.23253064 -12.73692763 13.15044314 -10 11 C-5.545 15.455 -5.545 15.455 -1 20 C-0.67 13.4 -0.34 6.8 0 0 Z " fill="#000000" transform="translate(424,355)"/>
<path d="M0 0 C4.95 0 9.9 0 15 0 C15.33 6.6 15.66 13.2 16 20 C17.4025 18.494375 18.805 16.98875 20.25 15.4375 C22.640625 12.87109375 22.640625 12.87109375 25 11 C27.93349191 10.95486936 28.92556877 11.93575553 31.140625 13.84765625 C31.83671875 14.57855469 32.5328125 15.30945313 33.25 16.0625 C33.95640625 16.79597656 34.6628125 17.52945313 35.390625 18.28515625 C36.18726563 19.13400391 36.18726563 19.13400391 37 20 C35.60652624 23.15204981 33.97514921 25.26171773 31.5234375 27.671875 C30.853125 28.33574219 30.1828125 28.99960937 29.4921875 29.68359375 C28.79351562 30.36550781 28.09484375 31.04742187 27.375 31.75 C26.66859375 32.44738281 25.9621875 33.14476562 25.234375 33.86328125 C23.49401297 35.58012488 21.74915019 37.29211832 20 39 C20.93838292 40.10953095 21.87890963 41.21724898 22.8203125 42.32421875 C23.34383301 42.94127686 23.86735352 43.55833496 24.40673828 44.1940918 C25.83687096 45.81509876 27.31464489 47.31852525 28.875 48.8125 C31 51 31 51 31 53 C37.7116188 47.36531717 43.86092974 41.24063576 50 35 C53.21524305 36.40844718 55.32183868 38.10344786 57.75 40.625 C58.36359375 41.25664062 58.9771875 41.88828125 59.609375 42.5390625 C60.29773438 43.26222656 60.29773438 43.26222656 61 44 C59.60366893 47.18559952 57.95442507 49.23943845 55.4375 51.625 C52.85984611 54.04521959 52.85984611 54.04521959 51 57 C57.93 57 64.86 57 72 57 C73 64 73 64 73 72 C63.1 72.495 63.1 72.495 53 73 C55.97 75.97 58.94 78.94 62 82 C60.04612336 85.90775329 58.61107271 87.47622339 55.375 90.25 C54.55773437 90.95640625 53.74046875 91.6628125 52.8984375 92.390625 C52.27195312 92.92171875 51.64546875 93.4528125 51 94 C44.58930713 88.72898586 38.81409488 82.90871848 33 77 C29.54798361 78.47721422 27.35038064 80.43794001 24.75 83.125 C23.69039062 84.21167969 23.69039062 84.21167969 22.609375 85.3203125 C22.07828125 85.87460937 21.5471875 86.42890625 21 87 C22.39347376 90.15204981 24.02485079 92.26171773 26.4765625 94.671875 C27.146875 95.33574219 27.8171875 95.99960937 28.5078125 96.68359375 C29.20648438 97.36550781 29.90515625 98.04742187 30.625 98.75 C31.33140625 99.44738281 32.0378125 100.14476562 32.765625 100.86328125 C34.50598703 102.58012488 36.25084981 104.29211832 38 106 C37.0735288 107.10816566 36.14304151 108.21297428 35.2109375 109.31640625 C34.43435791 110.23981812 34.43435791 110.23981812 33.64208984 111.18188477 C31.30683511 113.76746936 28.73692763 115.84955686 26 118 C23.03 115.03 20.06 112.06 17 109 C16.67 115.27 16.34 121.54 16 128 C10.72 128 5.44 128 0 128 C-0.33 121.73 -0.66 115.46 -1 109 C-3.97 111.97 -6.94 114.94 -10 118 C-14.69383883 114.13448567 -18.00604317 110.79274819 -22 106 C-16.39 100.39 -10.78 94.78 -5 89 C-6.83385923 85.33228155 -8.25062829 83.53165004 -11.125 80.75 C-11.84945312 80.04359375 -12.57390625 79.3371875 -13.3203125 78.609375 C-13.87460937 78.07828125 -14.42890625 77.5471875 -15 77 C-18.15204981 78.39347376 -20.26171773 80.02485079 -22.671875 82.4765625 C-23.33574219 83.146875 -23.99960937 83.8171875 -24.68359375 84.5078125 C-25.36550781 85.20648438 -26.04742187 85.90515625 -26.75 86.625 C-27.44738281 87.33140625 -28.14476562 88.0378125 -28.86328125 88.765625 C-30.58012488 90.50598703 -32.29211832 92.25084981 -34 94 C-35.10816566 93.0735288 -36.21297428 92.14304151 -37.31640625 91.2109375 C-37.93201416 90.69321777 -38.54762207 90.17549805 -39.18188477 89.64208984 C-41.76746936 87.30683511 -43.84955686 84.73692763 -46 82 C-43.03 79.03 -40.06 76.06 -37 73 C-43.27 72.67 -49.54 72.34 -56 72 C-56 67.05 -56 62.1 -56 57 C-45.605 56.505 -45.605 56.505 -35 56 C-38.3 52.7 -41.6 49.4 -45 46 C-43.25323081 42.50646162 -42.08594785 40.86054237 -39.375 38.25 C-38.74335938 37.63640625 -38.11171875 37.0228125 -37.4609375 36.390625 C-36.73777344 35.70226562 -36.73777344 35.70226562 -36 35 C-32.84795019 36.39347376 -30.73828227 38.02485079 -28.328125 40.4765625 C-27.33232422 41.48203125 -27.33232422 41.48203125 -26.31640625 42.5078125 C-25.63449219 43.20648438 -24.95257813 43.90515625 -24.25 44.625 C-23.55261719 45.33140625 -22.85523438 46.0378125 -22.13671875 46.765625 C-20.41987512 48.50598703 -18.70788168 50.25084981 -17 52 C-13.36696916 50.30413874 -11.05450954 48.26199512 -8.25 45.375 C-7.45078125 44.55773437 -6.6515625 43.74046875 -5.828125 42.8984375 C-5.22484375 42.27195312 -4.6215625 41.64546875 -4 41 C-5.39347376 37.84795019 -7.02485079 35.73828227 -9.4765625 33.328125 C-10.146875 32.66425781 -10.8171875 32.00039063 -11.5078125 31.31640625 C-12.20648438 30.63449219 -12.90515625 29.95257813 -13.625 29.25 C-14.33140625 28.55261719 -15.0378125 27.85523438 -15.765625 27.13671875 C-17.50598703 25.41987512 -19.25084981 23.70788168 -21 22 C-19.49053489 18.81913482 -17.92058175 16.70130094 -15.375 14.25 C-14.74335938 13.63640625 -14.11171875 13.0228125 -13.4609375 12.390625 C-12.73777344 11.70226562 -12.73777344 11.70226562 -12 11 C-8 13 -8 13 -1 20 C-0.67 13.4 -0.34 6.8 0 0 Z " fill="#010101" transform="translate(312,228)"/>
<path d="M0 0 C1.28936966 -0.00058411 2.57873932 -0.00116821 3.90718079 -0.00177002 C7.39826653 -0.00290447 10.88878777 0.0203951 14.37974381 0.04852581 C18.0445295 0.07375468 21.70933215 0.07589821 25.37419128 0.08062744 C32.2941614 0.09299478 39.21387477 0.12573047 46.1337325 0.1660254 C54.02018364 0.21093912 61.9066479 0.2327791 69.79319537 0.25280714 C85.99794493 0.29446979 102.2024206 0.36551664 118.40698242 0.45410156 C118.40698242 5.73410156 118.40698242 11.01410156 118.40698242 16.45410156 C115.97186279 16.45957001 115.97186279 16.45957001 113.48754883 16.46514893 C98.18512031 16.50209715 82.88291374 16.55963178 67.5806427 16.6380043 C59.71367055 16.67776966 51.84679807 16.71017481 43.97973633 16.72509766 C37.12071233 16.73812723 30.26190786 16.76512496 23.40300751 16.80871463 C19.77310327 16.83130041 16.1434695 16.847014 12.51348877 16.84598541 C8.45554204 16.8450978 4.39839053 16.87540241 0.34057617 16.90820312 C-0.85560837 16.90317276 -2.05179291 16.8981424 -3.28422546 16.89295959 C-10.18451634 16.97919567 -14.73245128 17.72559245 -20.59301758 21.45410156 C-23.93656517 24.96482654 -24.86576804 27.72447065 -25.09301758 32.45410156 C-24.89577936 37.13850917 -23.73765051 39.87271406 -20.59301758 43.45410156 C-17.29041834 46.35638574 -14.7114431 47.36969209 -10.28051758 47.70410156 C-4.68927382 47.32503419 -1.78264938 45.64373336 2.15698242 41.70410156 C4.91664585 38.08995283 4.91664585 38.08995283 6.40698242 31.45410156 C11.68698242 31.45410156 16.96698242 31.45410156 22.40698242 31.45410156 C22.00211555 40.90099528 19.37359868 49.67577223 12.40698242 56.45410156 C3.537676 62.66261606 -4.71211888 65.6110208 -15.59301758 64.45410156 C-25.75711927 62.14470703 -32.6138584 56.69760797 -38.58520508 48.32519531 C-42.98650932 40.15378163 -43.19926437 29.81640073 -40.56567383 21.02441406 C-36.94527005 13.14176207 -31.88229661 6.68423848 -23.74496937 3.2532692 C-15.66587203 0.68348251 -8.44893153 -0.10231489 0 0 Z " fill="#000000" transform="translate(89.593017578125,315.5458984375)"/>
<path d="M0 0 C9.35344006 8.01130443 11.444666 15.03301944 13.078125 27.01171875 C7.798125 27.01171875 2.518125 27.01171875 -2.921875 27.01171875 C-3.47875 25.44421875 -4.035625 23.87671875 -4.609375 22.26171875 C-6.36705689 17.92569513 -7.68784265 15.32119094 -11.921875 13.01171875 C-16.08088327 11.34460573 -19.14580922 10.89333583 -23.609375 11.57421875 C-28.46981256 13.68346524 -31.02258013 16.66277645 -33.921875 21.01171875 C-34.62005223 26.18310125 -34.52797725 30.6782938 -32.359375 35.44921875 C-27.92077985 40.11543416 -24.05539061 42.19730328 -17.67628479 42.53070068 C-15.6106294 42.55985774 -13.54459764 42.56742534 -11.47875977 42.55761719 C-10.34632339 42.56795486 -9.21388702 42.57829254 -8.0471344 42.58894348 C-4.31903777 42.61834642 -0.59148467 42.6198702 3.13671875 42.62109375 C5.72747329 42.63607699 8.31821828 42.65280443 10.90895081 42.67120361 C17.02153567 42.7104138 23.13395018 42.73208494 29.24663931 42.74517751 C36.20927946 42.76107538 43.17173916 42.79950258 50.13427436 42.83977079 C64.44882988 42.92205778 78.76338388 42.97542064 93.078125 43.01171875 C93.078125 48.29171875 93.078125 53.57171875 93.078125 59.01171875 C77.88287579 59.10455337 62.68765968 59.17581892 47.49219036 59.21896744 C40.43569434 59.23953998 33.37937842 59.26755802 26.32299805 59.31347656 C19.5083986 59.35780037 12.69398606 59.38088209 5.87925148 59.39122772 C3.28422928 59.398597 0.68921686 59.41298732 -1.90572548 59.43463898 C-5.55106009 59.46383488 -9.19563103 59.46766784 -12.84106445 59.46582031 C-13.90490356 59.48020142 -14.96874268 59.49458252 -16.06481934 59.50939941 C-27.09683532 59.44921907 -35.84140299 56.30913313 -43.75 48.5390625 C-50.52155934 40.65920838 -52.00983891 32.29488808 -51.46484375 22.1796875 C-50.66051956 14.11619948 -46.93793078 7.54826271 -41.109375 2.01171875 C-28.87043634 -7.60124073 -13.13002292 -8.93473485 0 0 Z " fill="#000000" transform="translate(50.921875,80.98828125)"/>
<path d="M0 0 C26.16946654 4.20580712 50.32654846 23.83830316 65.5625 44.6875 C83.46267941 71.45333431 92.71449044 103.31145172 86.6159668 135.51245117 C84.40804531 146.18390939 84.40804531 146.18390939 83 149 C77.72 148.67 72.44 148.34 67 148 C68.90727674 135.41197351 68.90727674 135.41197351 69.52294922 132.67651367 C70.47274712 127.34763219 70.18468279 121.89777733 70.1875 116.5 C70.19974609 115.29601562 70.21199219 114.09203125 70.22460938 112.8515625 C70.27681885 80.48169021 57.30045653 50.24860519 35 27 C34.24203125 26.17886719 33.4840625 25.35773438 32.703125 24.51171875 C23.26497308 14.5954905 12.20613913 7.12798005 0 1 C0 0.67 0 0.34 0 0 Z " fill="#8AB2D6" transform="translate(361,48)"/>
<path d="M0 0 C0 4.95 0 9.9 0 15 C-1.30453125 15.15855469 -2.6090625 15.31710938 -3.953125 15.48046875 C-13.94994823 16.77890671 -22.98112037 18.23896054 -32 23 C-33.01449219 23.52722656 -34.02898437 24.05445312 -35.07421875 24.59765625 C-53.15977669 34.55946295 -64.56204554 50.32892605 -70.3125 70.0625 C-71.29599147 75.69522387 -71.64332746 81.29323944 -72 87 C-76.95 87 -81.9 87 -87 87 C-87.61529523 63.61878133 -78.83682141 43.10800439 -63 26 C-46.07593294 8.6231151 -24.05291677 -0.38179233 0 0 Z " fill="#030404" transform="translate(328,76)"/>
<path d="M0 0 C12.10908435 0.89696921 21.67002707 6.07363195 30.10546875 14.71875 C37.17821018 23.23520567 39.53864254 33.19829289 39.37890625 44.0390625 C38.18993404 56.46811224 31.6721209 66.51445906 22.27734375 74.39453125 C14.3817332 79.96073354 6.29060827 82.133383 -3.28076172 82.11352539 C-4.5015744 82.11344986 -5.72238708 82.11337433 -6.98019409 82.11329651 C-8.28352692 82.10813522 -9.58685974 82.10297394 -10.9296875 82.09765625 C-12.28874662 82.09578901 -13.64780642 82.09436655 -15.00686646 82.09336853 C-18.56768686 82.08956748 -22.12846587 82.07975802 -25.68927002 82.06866455 C-29.32929932 82.05839835 -32.96933537 82.05385979 -36.609375 82.04882812 C-43.73960017 82.03813339 -50.86979737 82.02108622 -58 82 C-58 81.67 -58 81.34 -58 81 C-57.2786084 81.0030162 -56.5572168 81.00603241 -55.81396484 81.00914001 C-48.98784994 81.03146184 -42.16251747 81.02005174 -35.33656311 80.97153378 C-31.82775552 80.9477624 -28.31989399 80.93665867 -24.81103516 80.95532227 C-20.769095 80.97624964 -16.72931652 80.94061045 -12.6875 80.90234375 C-11.4382373 80.91659897 -10.18897461 80.93085419 -8.90185547 80.94554138 C-2.89687554 80.84639918 1.07334611 80.6027742 5.72192383 76.58081055 C6.84532049 75.41605941 7.94341399 74.22567993 9 73 C9.70511719 72.27554688 10.41023438 71.55109375 11.13671875 70.8046875 C20.57832219 59.05619354 22.37194753 47.09194346 21.28662109 32.42773438 C19.85713237 20.31969704 12.78702688 10.66646782 3.48046875 3.19140625 C2 2 2 2 0 0 Z " fill="#8AB1D4" transform="translate(458,203)"/>
<path d="M0 0 C3.90285767 1.58667578 6.33520982 4.13350481 9.25 7.125 C10.14203125 8.03507812 11.0340625 8.94515625 11.953125 9.8828125 C12.62859375 10.58148438 13.3040625 11.28015625 14 12 C12.41332422 15.90285767 9.86649519 18.33520982 6.875 21.25 C5.96492188 22.14203125 5.05484375 23.0340625 4.1171875 23.953125 C3.06917969 24.96632813 3.06917969 24.96632813 2 26 C-1.90285767 24.41332422 -4.33520982 21.86649519 -7.25 18.875 C-8.14203125 17.96492188 -9.0340625 17.05484375 -9.953125 16.1171875 C-10.62859375 15.41851562 -11.3040625 14.71984375 -12 14 C-10.41332422 10.09714233 -7.86649519 7.66479018 -4.875 4.75 C-3.96492188 3.85796875 -3.05484375 2.9659375 -2.1171875 2.046875 C-1.41851562 1.37140625 -0.71984375 0.6959375 0 0 Z " fill="#B1E4F6" transform="translate(431,407)"/>
<path d="M0 0 C3.90285767 1.58667578 6.33520982 4.13350481 9.25 7.125 C10.14203125 8.03507812 11.0340625 8.94515625 11.953125 9.8828125 C12.62859375 10.58148438 13.3040625 11.28015625 14 12 C12.41332422 15.90285767 9.86649519 18.33520982 6.875 21.25 C5.96492188 22.14203125 5.05484375 23.0340625 4.1171875 23.953125 C3.06917969 24.96632813 3.06917969 24.96632813 2 26 C-1.90285767 24.41332422 -4.33520982 21.86649519 -7.25 18.875 C-8.14203125 17.96492188 -9.0340625 17.05484375 -9.953125 16.1171875 C-10.62859375 15.41851562 -11.3040625 14.71984375 -12 14 C-10.41332422 10.09714233 -7.86649519 7.66479018 -4.875 4.75 C-3.96492187 3.85796875 -3.05484375 2.9659375 -2.1171875 2.046875 C-1.41851562 1.37140625 -0.71984375 0.6959375 0 0 Z " fill="#B3E6F8" transform="translate(207,407)"/>
<path d="M0 0 C3.90285767 1.58667578 6.33520982 4.13350481 9.25 7.125 C10.14203125 8.03507812 11.0340625 8.94515625 11.953125 9.8828125 C12.62859375 10.58148438 13.3040625 11.28015625 14 12 C12.41332422 15.90285767 9.86649519 18.33520982 6.875 21.25 C5.96492188 22.14203125 5.05484375 23.0340625 4.1171875 23.953125 C3.06917969 24.96632813 3.06917969 24.96632813 2 26 C-1.90285767 24.41332422 -4.33520982 21.86649519 -7.25 18.875 C-8.14203125 17.96492188 -9.0340625 17.05484375 -9.953125 16.1171875 C-10.62859375 15.41851562 -11.3040625 14.71984375 -12 14 C-10.41332422 10.09714233 -7.86649519 7.66479018 -4.875 4.75 C-3.96492188 3.85796875 -3.05484375 2.9659375 -2.1171875 2.046875 C-1.41851562 1.37140625 -0.71984375 0.6959375 0 0 Z " fill="#B2E4F7" transform="translate(319,279)"/>
<path d="M0 0 C5.61 0 11.22 0 17 0 C17 5.28 17 10.56 17 16 C11.39 16 5.78 16 0 16 C0 10.72 0 5.44 0 0 Z " fill="#000000" transform="translate(223,316)"/>
<path d="M0 0 C5.61 0 11.22 0 17 0 C17 5.28 17 10.56 17 16 C11.39 16 5.78 16 0 16 C0 10.72 0 5.44 0 0 Z " fill="#000000" transform="translate(159,124)"/>
<path d="M0 0 C5.28 0 10.56 0 16 0 C16 4.95 16 9.9 16 15 C10.72 15 5.44 15 0 15 C0 10.05 0 5.1 0 0 Z " fill="#FEFEFE" transform="translate(344,204)"/>
<path d="M0 0 C5.28 0 10.56 0 16 0 C16 4.95 16 9.9 16 15 C10.72 15 5.44 15 0 15 C0 10.05 0 5.1 0 0 Z " fill="#FEFEFE" transform="translate(312,204)"/>
<path d="M0 0 C5.28 0 10.56 0 16 0 C16 4.95 16 9.9 16 15 C10.72 15 5.44 15 0 15 C0 10.05 0 5.1 0 0 Z " fill="#FEFEFE" transform="translate(280,204)"/>
</svg>
