<?xml version="1.0" encoding="UTF-8"?>
<svg version="1.1" xmlns="http://www.w3.org/2000/svg" width="512" height="512">
<path d="M0 0 C2.69714093 1.36741277 3.97946732 3.09899207 5.83203125 5.4921875 C7.00765625 6.98105469 7.00765625 6.98105469 8.20703125 8.5 C8.85865234 9.33192871 8.85865234 9.33192871 9.5234375 10.18066406 C12.24284863 13.61697718 15.04272553 16.98757454 17.83203125 20.3671875 C18.43144531 21.09558838 19.03085938 21.82398926 19.6484375 22.57446289 C23.3413364 27.05648962 27.06870411 31.5066986 30.83203125 35.9296875 C34.52700109 40.27353331 38.13105661 44.67730655 41.67578125 49.14453125 C49.35847311 58.73474078 57.23030022 68.173452 65.19458008 77.53051758 C68.49984786 81.4239331 71.69225282 85.39566391 74.86328125 89.3984375 C77.34514166 92.47298099 79.89551638 95.48397794 82.45703125 98.4921875 C86.34778741 103.06144064 90.13632046 107.69391322 93.86328125 112.3984375 C96.34514166 115.47298099 98.89551638 118.48397794 101.45703125 121.4921875 C105.34778741 126.06144064 109.13632046 130.69391322 112.86328125 135.3984375 C115.34514611 138.47298651 117.89566382 141.48384661 120.45703125 144.4921875 C125.0654038 149.90915728 129.55456758 155.40586805 133.95703125 160.9921875 C134.6325 161.83265625 135.30796875 162.673125 136.00390625 163.5390625 C136.6484375 164.34859375 137.29296875 165.158125 137.95703125 165.9921875 C138.53453125 166.7140625 139.11203125 167.4359375 139.70703125 168.1796875 C140.95703125 169.9921875 140.95703125 169.9921875 140.95703125 171.9921875 C139.19140625 173.5859375 139.19140625 173.5859375 136.70703125 175.4921875 C133.65667817 177.85164864 130.65442398 180.22800456 127.76171875 182.77734375 C126.96749512 183.46957031 126.96749512 183.46957031 126.15722656 184.17578125 C124.63906397 185.50476177 123.12989032 186.84398941 121.62109375 188.18359375 C118.95703125 189.9921875 118.95703125 189.9921875 116.8671875 190.07421875 C114.16082149 188.54116479 112.66561989 186.57178631 110.76953125 184.1171875 C110.07472656 183.23289063 109.37992187 182.34859375 108.6640625 181.4375 C106.95703125 178.9921875 106.95703125 178.9921875 105.95703125 175.9921875 C105.29703125 175.9921875 104.63703125 175.9921875 103.95703125 175.9921875 C103.97194107 176.61946904 103.98685089 177.24675058 104.00221252 177.89304066 C104.10494319 185.78812161 103.4638551 193.5176662 102.671875 201.36791992 C102.5334868 202.77834657 102.39557109 204.18881964 102.25808716 205.59933472 C101.88683915 209.39449928 101.50905848 213.18898731 101.13002396 216.98338103 C100.73378825 220.96146718 100.34367127 224.94015339 99.95288086 228.91877747 C99.21343228 236.43764877 98.46855131 243.95597134 97.72167492 251.47410804 C96.87101291 260.03968304 96.02647291 268.60585824 95.18242455 277.17208707 C93.44739615 294.77945949 91.70475289 312.38607072 89.95703125 329.9921875 C80.77730979 329.48647013 71.61571736 328.96500757 62.46875 328.01953125 C61.59225296 327.93216202 60.71575592 327.84479279 59.81269836 327.754776 C57.08963852 327.48298622 54.36706101 327.20673221 51.64453125 326.9296875 C48.87553463 326.64962782 46.10644547 326.37060123 43.33711243 326.09388733 C41.63295548 325.92345872 39.92899345 325.7510659 38.2252655 325.57640076 C34.77668624 325.23024785 31.42699004 324.9921875 27.95703125 324.9921875 C37.60191209 334.1073253 37.60191209 334.1073253 47.45703125 342.9921875 C47.9991626 343.47059082 48.54129395 343.94899414 49.09985352 344.44189453 C50.90631906 346.00651657 50.90631906 346.00651657 52.81030273 347.22631836 C55.60646719 349.20194636 57.62121396 350.77515924 58.55322266 354.15283203 C58.73399456 356.98194028 58.65934572 359.72278082 58.51953125 362.5546875 C58.49310547 363.66787354 58.46667969 364.78105957 58.43945312 365.92797852 C58.34442045 369.40810179 58.21079203 372.88375745 58.06427002 376.36193848 C57.89737524 380.45537261 57.75504781 384.54964854 57.6091156 388.64387512 C57.31403033 396.9157561 57.01149814 405.18715937 56.67016602 413.45727539 C56.6240065 414.58666534 56.57784698 415.7160553 56.5302887 416.87966919 C56.44293748 419.00050615 56.35360971 421.1212631 56.26182556 423.24191284 C55.97762074 430.16222686 55.90882073 437.06637267 55.95703125 443.9921875 C65.94166648 434.20531062 65.94166648 434.20531062 75.3203125 423.84765625 C77.9887599 420.82256672 80.899004 418.04267384 83.76953125 415.2109375 C85.75423467 413.19788118 87.61800041 411.13772347 89.45703125 408.9921875 C92.70867753 405.19860017 96.21416219 401.71826103 99.76953125 398.2109375 C101.75423467 396.19788118 103.61800041 394.13772347 105.45703125 391.9921875 C108.70627798 388.20139965 112.20889157 384.72340326 115.76171875 381.21875 C118.3873747 378.55571816 120.8168233 375.75963144 123.25 372.921875 C126.00924706 369.80272614 128.972911 366.89467528 131.95703125 363.9921875 C128.31272985 359.06745588 124.5992873 354.1984777 120.83203125 349.3671875 C120.14065063 348.47870117 120.14065063 348.47870117 119.43530273 347.57226562 C116.89101312 344.33698234 114.28066167 341.19108832 111.54296875 338.1171875 C110.98625488 337.48893066 110.42954102 336.86067383 109.85595703 336.21337891 C108.77439423 335.00242571 107.68189402 333.80113458 106.57763672 332.61083984 C105.09765625 330.953125 105.09765625 330.953125 102.95703125 327.9921875 C103.25575922 324.55724385 104.74485283 322.80812475 107.08984375 320.3828125 C107.73179687 319.70992188 108.37375 319.03703125 109.03515625 318.34375 C109.710625 317.65023438 110.38609375 316.95671875 111.08203125 316.2421875 C112.39848859 314.87369627 113.71359662 313.50390573 115.02734375 312.1328125 C115.6817041 311.45041504 116.33606445 310.76801758 117.01025391 310.06494141 C119.52546716 307.38696792 121.9353987 304.62646765 124.34033203 301.84960938 C126.62343224 299.22656099 128.97415683 296.67332163 131.33203125 294.1171875 C135.68100519 289.39330202 139.99158225 284.6369144 144.27734375 279.85546875 C145.15260586 278.88453845 146.03269652 277.91652223 146.95703125 276.9921875 C149.26059558 276.89506808 151.56720783 276.8703218 153.87281799 276.87193298 C154.60285538 276.87107697 155.33289276 276.87022095 156.08505249 276.86933899 C158.55745833 276.8676739 161.02979754 276.87322338 163.50219727 276.87866211 C165.29452226 276.8789682 167.08684738 276.87883536 168.87917233 276.87829685 C173.69621975 276.8780703 178.51324253 276.8838828 183.33028412 276.89090729 C187.84384746 276.89658551 192.3574047 276.89686949 196.87097168 276.89758301 C210.08716149 276.90283863 223.30334668 276.91679967 236.51953125 276.9296875 C266.03390625 276.9503125 295.54828125 276.9709375 325.95703125 276.9921875 C325.95703125 354.5421875 325.95703125 432.0921875 325.95703125 511.9921875 C157.32703125 511.9921875 -11.30296875 511.9921875 -185.04296875 511.9921875 C-185.04296875 434.4421875 -185.04296875 356.8921875 -185.04296875 276.9921875 C-173.16296875 276.9921875 -161.28296875 276.9921875 -149.04296875 276.9921875 C-149.04296875 274.0221875 -149.04296875 271.0521875 -149.04296875 267.9921875 C-148.93538929 266.17399515 -148.80049042 264.35698574 -148.62536621 262.54405212 C-148.53281052 261.56405243 -148.44025482 260.58405273 -148.34489441 259.57435608 C-148.24203629 258.53137863 -148.13917816 257.48840118 -148.03320312 256.41381836 C-147.92591385 255.29084351 -147.81862457 254.16786865 -147.70808411 253.01086426 C-147.35500834 249.32585145 -146.99590561 245.64145298 -146.63671875 241.95703125 C-146.38972305 239.39160184 -146.1431058 236.82613597 -145.89685059 234.26063538 C-145.31564098 228.21512073 -144.73063638 222.16998453 -144.1437602 216.1250177 C-143.47532257 209.23772138 -142.81178237 202.34995593 -142.14863491 195.46214855 C-140.78549382 181.30496959 -139.41608908 167.14840181 -138.04296875 152.9921875 C-144.47796875 158.4371875 -144.47796875 158.4371875 -151.04296875 163.9921875 C-154.46575806 162.28079284 -155.61290061 161.65863959 -157.8828125 158.9453125 C-158.38876953 158.3471875 -158.89472656 157.7490625 -159.41601562 157.1328125 C-160.19041992 156.19695312 -160.19041992 156.19695312 -160.98046875 155.2421875 C-161.49287109 154.63375 -162.00527344 154.0253125 -162.53320312 153.3984375 C-164.04355087 151.60214082 -165.54435208 149.7982764 -167.04296875 147.9921875 C-168.00240978 146.8409838 -168.96203022 145.68992958 -169.921875 144.5390625 C-170.62183594 143.69859375 -171.32179687 142.858125 -172.04296875 141.9921875 C-170.4903896 137.91193377 -167.57982945 135.61481691 -164.29296875 132.9296875 C-163.71732178 132.45072021 -163.1416748 131.97175293 -162.54858398 131.47827148 C-157.88674844 127.62291648 -153.12472747 123.89876218 -148.34667969 120.18920898 C-143.5308064 116.42971652 -138.9055436 112.47771887 -134.29321289 108.47290039 C-129.74011978 104.53967321 -125.04879197 100.82035861 -120.29296875 97.13671875 C-116.10263643 93.87237504 -112.05340412 90.47446285 -108.04296875 86.9921875 C-102.91369041 82.5384168 -97.66279303 78.29593532 -92.29296875 74.13671875 C-88.10263643 70.87237504 -84.05340412 67.47446285 -80.04296875 63.9921875 C-75.47288218 60.02396501 -70.82788101 56.19857452 -66.04296875 52.4921875 C-60.58411832 48.26178864 -55.31104735 43.85673809 -50.08862305 39.33862305 C-44.82348784 34.78549373 -39.44943023 30.37645242 -34.04296875 25.9921875 C-32.20893621 24.4930425 -30.37560894 22.99303428 -28.54296875 21.4921875 C-27.63675781 20.75097656 -26.73054687 20.00976562 -25.796875 19.24609375 C-23.94959353 17.73420523 -22.10325 16.22117001 -20.2578125 14.70703125 C-18.42658178 13.20547357 -16.59201302 11.70797633 -14.75390625 10.21484375 C-12.90850086 8.70182406 -11.08085614 7.1669388 -9.26953125 5.61328125 C-8.39039063 4.87207031 -7.51125 4.13085938 -6.60546875 3.3671875 C-5.82300781 2.69429688 -5.04054687 2.02140625 -4.234375 1.328125 C-2.04296875 -0.0078125 -2.04296875 -0.0078125 0 0 Z " fill="#B35F49" transform="translate(186.04296875,0.0078125)"/>
<path d="M0 0 C1.97862864 0.00138269 1.97862864 0.00138269 3.99722958 0.00279331 C4.72726696 0.00193729 5.45730434 0.00108128 6.20946407 0.00019932 C8.68186991 -0.00146577 11.15420913 0.00408371 13.62660885 0.00952244 C15.41893385 0.00982853 17.21125897 0.00969569 19.00358391 0.00915718 C23.82063133 0.00893063 28.63765411 0.01474313 33.4546957 0.02176762 C37.96825905 0.02744584 42.48181628 0.02772982 46.99538326 0.02844334 C60.21157307 0.03369896 73.42775826 0.04766 86.64394283 0.06054783 C116.15831783 0.08117283 145.67269283 0.10179783 176.08144283 0.12304783 C176.08144283 77.67304783 176.08144283 155.22304783 176.08144283 235.12304783 C91.60144283 235.12304783 7.12144283 235.12304783 -79.91855717 235.12304783 C-79.91855717 152.30486601 -79.91855717 152.30486601 -70.51230717 142.65429783 C-69.47590092 141.64882908 -69.47590092 141.64882908 -68.41855717 140.62304783 C-65.63234576 137.87448793 -62.96547325 135.09444992 -60.41855717 132.12304783 C-57.16691089 128.3294605 -53.66142622 124.84912136 -50.10605717 121.34179783 C-48.12135375 119.32874151 -46.257588 117.2685838 -44.41855717 115.12304783 C-41.16931044 111.33225998 -37.66669685 107.85426358 -34.11386967 104.34961033 C-31.48821372 101.68657849 -29.05876512 98.89049176 -26.62558842 96.05273533 C-23.86634135 92.93358647 -20.90267742 90.02553561 -17.91855717 87.12304783 C-21.56285857 82.19831621 -25.27630112 77.32933803 -29.04355717 72.49804783 C-29.50447758 71.90572361 -29.96539799 71.31339939 -30.44028568 70.70312595 C-32.9845753 67.46784267 -35.59492675 64.32194865 -38.33261967 61.24804783 C-38.88933353 60.61979099 -39.4460474 59.99153416 -40.01963139 59.34423923 C-41.10119419 58.13328603 -42.19369439 56.93199491 -43.2979517 55.74170017 C-44.77793217 54.08398533 -44.77793217 54.08398533 -46.91855717 51.12304783 C-46.6198292 47.68810418 -45.13073559 45.93898508 -42.78574467 43.51367283 C-42.14379154 42.8407822 -41.50183842 42.16789158 -40.84043217 41.47461033 C-40.16496342 40.7810947 -39.48949467 40.08757908 -38.79355717 39.37304783 C-37.47709982 38.0045566 -36.1619918 36.63476606 -34.84824467 35.26367283 C-34.19388432 34.58127537 -33.53952396 33.89887791 -32.86533451 33.19580173 C-30.35012125 30.51782825 -27.94018972 27.75732798 -25.53525639 24.9804697 C-23.25215617 22.35742132 -20.90143159 19.80418196 -18.54355717 17.24804783 C-14.19458323 12.52416235 -9.88400616 7.76777473 -5.59824467 2.98632908 C-3.02098247 0.12736613 -3.02098247 0.12736613 0 0 Z " fill="#804231" transform="translate(335.9185571670532,276.8769521713257)"/>
<path d="M0 0 C2.69714093 1.36741277 3.97946732 3.09899207 5.83203125 5.4921875 C7.00765625 6.98105469 7.00765625 6.98105469 8.20703125 8.5 C8.85865234 9.33192871 8.85865234 9.33192871 9.5234375 10.18066406 C12.24284863 13.61697718 15.04272553 16.98757454 17.83203125 20.3671875 C18.43144531 21.09558838 19.03085938 21.82398926 19.6484375 22.57446289 C23.3413364 27.05648962 27.06870411 31.5066986 30.83203125 35.9296875 C34.52700109 40.27353331 38.13105661 44.67730655 41.67578125 49.14453125 C49.35847311 58.73474078 57.23030022 68.173452 65.19458008 77.53051758 C68.49984786 81.4239331 71.69225282 85.39566391 74.86328125 89.3984375 C77.34514166 92.47298099 79.89551638 95.48397794 82.45703125 98.4921875 C86.34778741 103.06144064 90.13632046 107.69391322 93.86328125 112.3984375 C96.34514166 115.47298099 98.89551638 118.48397794 101.45703125 121.4921875 C105.34778741 126.06144064 109.13632046 130.69391322 112.86328125 135.3984375 C115.34514611 138.47298651 117.89566382 141.48384661 120.45703125 144.4921875 C125.0654038 149.90915728 129.55456758 155.40586805 133.95703125 160.9921875 C134.6325 161.83265625 135.30796875 162.673125 136.00390625 163.5390625 C136.6484375 164.34859375 137.29296875 165.158125 137.95703125 165.9921875 C138.53453125 166.7140625 139.11203125 167.4359375 139.70703125 168.1796875 C140.95703125 169.9921875 140.95703125 169.9921875 140.95703125 171.9921875 C139.19140625 173.5859375 139.19140625 173.5859375 136.70703125 175.4921875 C133.65667817 177.85164864 130.65442398 180.22800456 127.76171875 182.77734375 C126.96749512 183.46957031 126.96749512 183.46957031 126.15722656 184.17578125 C124.63906397 185.50476177 123.12989032 186.84398941 121.62109375 188.18359375 C118.95703125 189.9921875 118.95703125 189.9921875 116.8671875 190.07421875 C114.16082149 188.54116479 112.66561989 186.57178631 110.76953125 184.1171875 C110.07472656 183.23289063 109.37992187 182.34859375 108.6640625 181.4375 C106.95703125 178.9921875 106.95703125 178.9921875 105.95703125 175.9921875 C105.29703125 175.9921875 104.63703125 175.9921875 103.95703125 175.9921875 C103.97194107 176.61946904 103.98685089 177.24675058 104.00221252 177.89304066 C104.10494319 185.78812161 103.4638551 193.5176662 102.671875 201.36791992 C102.5334868 202.77834657 102.39557109 204.18881964 102.25808716 205.59933472 C101.88683915 209.39449928 101.50905848 213.18898731 101.13002396 216.98338103 C100.73378825 220.96146718 100.34367127 224.94015339 99.95288086 228.91877747 C99.21343228 236.43764877 98.46855131 243.95597134 97.72167492 251.47410804 C96.87101291 260.03968304 96.02647291 268.60585824 95.18242455 277.17208707 C93.44739615 294.77945949 91.70475289 312.38607072 89.95703125 329.9921875 C80.21018327 329.46841219 70.50376171 328.8520512 60.796875 327.80078125 C59.75551895 327.69121597 58.7141629 327.5816507 57.64125061 327.46876526 C54.39194433 327.1260623 51.14324075 326.77799725 47.89453125 326.4296875 C45.65954327 326.19299973 43.42451742 325.95666922 41.18945312 325.72070312 C35.77820333 325.1486404 30.36743406 324.57220325 24.95703125 323.9921875 C23.95703125 320.9921875 23.95703125 320.9921875 25.43237305 317.54980469 C26.16324657 316.12416768 26.90536402 314.70426115 27.65625 313.2890625 C28.04770706 312.53304749 28.43916412 311.77703247 28.84248352 310.99810791 C30.10051425 308.57448467 31.37246345 306.15846743 32.64453125 303.7421875 C33.48330805 302.12936681 34.32120916 300.51609038 35.15820312 298.90234375 C36.71190745 295.91623636 38.26739003 292.93113158 39.8347168 289.95214844 C40.14861862 289.35497009 40.46252045 288.75779175 40.78593445 288.14251709 C42.46158235 285.0657473 44.21882293 282.03405206 45.95703125 278.9921875 C38.03703125 278.6621875 30.11703125 278.3321875 21.95703125 277.9921875 C24.83586339 246.64669119 27.85839383 215.31669509 30.95703125 183.9921875 C29.90692871 183.89719971 28.85682617 183.80221191 27.77490234 183.7043457 C-3.83508723 180.84363693 -35.43981564 177.92738657 -67.04296875 174.9921875 C-67.11970825 176.48553368 -67.11970825 176.48553368 -67.19799805 178.00904846 C-67.80798279 189.3547162 -68.77297147 200.64776167 -69.85546875 211.95703125 C-70.03115569 213.8112295 -70.20668983 215.66544224 -70.38208008 217.51966858 C-70.74649681 221.36446514 -71.11317395 225.20903761 -71.48144531 229.0534668 C-71.95368356 233.98585856 -72.41941163 238.91884146 -72.88343811 243.85201168 C-73.24263824 247.66198046 -73.60554926 251.47158875 -73.96957397 255.28109932 C-74.14304525 257.10190729 -74.31527283 258.92283419 -74.48623657 260.74387932 C-74.7239723 263.27096162 -74.96677364 265.79750644 -75.2109375 268.32397461 C-75.28057709 269.07553833 -75.35021667 269.82710205 -75.42196655 270.60144043 C-75.92874289 275.76373578 -75.92874289 275.76373578 -77.04296875 277.9921875 C-100.80296875 277.9921875 -124.56296875 277.9921875 -149.04296875 277.9921875 C-149.04296875 266.7421875 -149.04296875 266.7421875 -148.62536621 262.42379761 C-148.53281052 261.44242325 -148.44025482 260.46104889 -148.34489441 259.44993591 C-148.24203629 258.41055374 -148.13917816 257.37117157 -148.03320312 256.30029297 C-147.87226921 254.61561165 -147.87226921 254.61561165 -147.70808411 252.89689636 C-147.35545856 249.21727414 -146.99614003 245.5383391 -146.63671875 241.859375 C-146.38968131 239.29537887 -146.14306482 236.73134216 -145.89685059 234.16726685 C-145.31599329 228.12883331 -144.7309202 222.09082216 -144.1437602 216.05299866 C-143.47493917 209.17297128 -142.81157041 202.29242153 -142.14863491 195.41182494 C-140.78609971 181.27136082 -139.41660413 167.13157736 -138.04296875 152.9921875 C-144.47796875 158.4371875 -144.47796875 158.4371875 -151.04296875 163.9921875 C-154.46575806 162.28079284 -155.61290061 161.65863959 -157.8828125 158.9453125 C-158.38876953 158.3471875 -158.89472656 157.7490625 -159.41601562 157.1328125 C-160.19041992 156.19695312 -160.19041992 156.19695312 -160.98046875 155.2421875 C-161.49287109 154.63375 -162.00527344 154.0253125 -162.53320312 153.3984375 C-164.04355087 151.60214082 -165.54435208 149.7982764 -167.04296875 147.9921875 C-168.00240978 146.8409838 -168.96203022 145.68992958 -169.921875 144.5390625 C-170.62183594 143.69859375 -171.32179687 142.858125 -172.04296875 141.9921875 C-170.4903896 137.91193377 -167.57982945 135.61481691 -164.29296875 132.9296875 C-163.42949829 132.21123657 -163.42949829 132.21123657 -162.54858398 131.47827148 C-157.88674844 127.62291648 -153.12472747 123.89876218 -148.34667969 120.18920898 C-143.5308064 116.42971652 -138.9055436 112.47771887 -134.29321289 108.47290039 C-129.74011978 104.53967321 -125.04879197 100.82035861 -120.29296875 97.13671875 C-116.10263643 93.87237504 -112.05340412 90.47446285 -108.04296875 86.9921875 C-102.91369041 82.5384168 -97.66279303 78.29593532 -92.29296875 74.13671875 C-88.10263643 70.87237504 -84.05340412 67.47446285 -80.04296875 63.9921875 C-75.47288218 60.02396501 -70.82788101 56.19857452 -66.04296875 52.4921875 C-60.58411832 48.26178864 -55.31104735 43.85673809 -50.08862305 39.33862305 C-44.82348784 34.78549373 -39.44943023 30.37645242 -34.04296875 25.9921875 C-32.20893621 24.4930425 -30.37560894 22.99303428 -28.54296875 21.4921875 C-27.63675781 20.75097656 -26.73054687 20.00976562 -25.796875 19.24609375 C-23.94959353 17.73420523 -22.10325 16.22117001 -20.2578125 14.70703125 C-18.42658178 13.20547357 -16.59201302 11.70797633 -14.75390625 10.21484375 C-12.90850086 8.70182406 -11.08085614 7.1669388 -9.26953125 5.61328125 C-8.39039063 4.87207031 -7.51125 4.13085938 -6.60546875 3.3671875 C-5.82300781 2.69429688 -5.04054687 2.02140625 -4.234375 1.328125 C-2.04296875 -0.0078125 -2.04296875 -0.0078125 0 0 Z " fill="#D9CFCA" transform="translate(186.04296875,0.0078125)"/>
<path d="M0 0 C0.15632995 8.56861802 -0.2566888 16.86824532 -1.25 25.375 C-1.53129457 27.93194553 -1.80965521 30.48898372 -2.08203125 33.046875 C-2.15575455 33.7389505 -2.22947784 34.431026 -2.30543518 35.14407349 C-3.33194719 44.95738832 -4.11819125 54.79269502 -4.9375 64.625 C-6.21542484 79.88404038 -7.5216007 95.13976072 -8.92459106 110.38787842 C-9.09897062 112.28623726 -9.27205949 114.18471513 -9.44381714 116.08331299 C-9.68155827 118.70693439 -9.92401638 121.33007481 -10.16796875 123.953125 C-10.27241302 125.11686142 -10.27241302 125.11686142 -10.37896729 126.30410767 C-10.66916975 129.37122353 -11.02178406 132.06535217 -12 135 C-28.71110399 134.26011906 -45.35066146 132.56309449 -62 131 C-62.0767395 132.49334618 -62.0767395 132.49334618 -62.1550293 134.01686096 C-62.76501404 145.3625287 -63.73000272 156.65557417 -64.8125 167.96484375 C-64.98818694 169.819042 -65.16372108 171.67325474 -65.33911133 173.52748108 C-65.70352806 177.37227764 -66.0702052 181.21685011 -66.43847656 185.0612793 C-66.91071481 189.99367106 -67.37644288 194.92665396 -67.84046936 199.85982418 C-68.19966949 203.66979296 -68.56258051 207.47940125 -68.92660522 211.28891182 C-69.1000765 213.10971979 -69.27230408 214.93064669 -69.44326782 216.75169182 C-69.68100355 219.27877412 -69.92380489 221.80531894 -70.16796875 224.33178711 C-70.23760834 225.08335083 -70.30724792 225.83491455 -70.3789978 226.60925293 C-70.88577414 231.77154828 -70.88577414 231.77154828 -72 234 C-95.76 234 -119.52 234 -144 234 C-144 222.74884563 -144 222.74884563 -143.60258484 218.5032196 C-143.51436462 217.5374852 -143.42614441 216.57175079 -143.33525085 215.57675171 C-143.23710587 214.5545755 -143.13896088 213.53239929 -143.0378418 212.47924805 C-142.9353714 211.3739122 -142.832901 210.26857635 -142.72732544 209.12974548 C-142.38980058 205.50656242 -142.045081 201.88411486 -141.69921875 198.26171875 C-141.45972799 195.7320863 -141.22029302 193.20244856 -140.98091125 190.67280579 C-140.47921274 185.38625823 -139.97331282 180.10013142 -139.46508789 174.81420898 C-138.87855561 168.71207671 -138.30504482 162.60881138 -137.73729771 156.5049054 C-137.18859324 150.61347241 -136.62614153 144.72340296 -136.0586338 138.83374977 C-135.81971928 136.3346709 -135.58493157 133.83519394 -135.35434532 131.33533287 C-135.03143676 127.84690201 -134.69286039 124.36033163 -134.3503418 120.8737793 C-134.2582695 119.84148193 -134.1661972 118.80918457 -134.07133484 117.74560547 C-133.31166585 110.26804913 -131.72769977 106.16072878 -125.82641602 101.20922852 C-125.28557373 100.76893311 -124.74473145 100.3286377 -124.1875 99.875 C-123.33079712 99.16331665 -123.33079712 99.16331665 -122.45678711 98.43725586 C-117.81257653 94.60260398 -113.06880192 90.89700729 -108.31225586 87.20336914 C-103.40492556 83.37204668 -98.68182302 79.35061646 -93.97558594 75.27636719 C-89.86693644 71.72450814 -85.68225808 68.29119757 -81.421875 64.921875 C-76.90338259 61.33623264 -72.45931292 57.65876306 -68 54 C-66.16689838 52.49971683 -64.33356573 50.99971592 -62.5 49.5 C-61.5925 48.7575 -60.685 48.015 -59.75 47.25 C-57 45 -54.25 42.75 -51.5 40.5 C-50.58476562 39.75105469 -49.66953125 39.00210938 -48.7265625 38.23046875 C-46.97182216 36.79500065 -45.21664845 35.36006204 -43.4609375 33.92578125 C-37.79659198 29.29676173 -32.14561159 24.6518403 -26.5 20 C-13.04899086 8.91737693 -13.04899086 8.91737693 -7 4 C-5.67742187 2.89011719 -5.67742187 2.89011719 -4.328125 1.7578125 C-2 0 -2 0 0 0 Z " fill="#E8DED9" transform="translate(181,44)"/>
<path d="M0 0 C2.69714093 1.36741277 3.97946732 3.09899207 5.83203125 5.4921875 C7.00765625 6.98105469 7.00765625 6.98105469 8.20703125 8.5 C8.85865234 9.33192871 8.85865234 9.33192871 9.5234375 10.18066406 C12.24284863 13.61697718 15.04272553 16.98757454 17.83203125 20.3671875 C18.43144531 21.09558838 19.03085938 21.82398926 19.6484375 22.57446289 C23.3413364 27.05648962 27.06870411 31.5066986 30.83203125 35.9296875 C34.52700109 40.27353331 38.13105661 44.67730655 41.67578125 49.14453125 C49.35847311 58.73474078 57.23030022 68.173452 65.19458008 77.53051758 C68.49984786 81.4239331 71.69225282 85.39566391 74.86328125 89.3984375 C77.34514166 92.47298099 79.89551638 95.48397794 82.45703125 98.4921875 C86.34778741 103.06144064 90.13632046 107.69391322 93.86328125 112.3984375 C96.34514166 115.47298099 98.89551638 118.48397794 101.45703125 121.4921875 C105.34778741 126.06144064 109.13632046 130.69391322 112.86328125 135.3984375 C115.34514611 138.47298651 117.89566382 141.48384661 120.45703125 144.4921875 C125.0654038 149.90915728 129.55456758 155.40586805 133.95703125 160.9921875 C134.6325 161.83265625 135.30796875 162.673125 136.00390625 163.5390625 C136.6484375 164.34859375 137.29296875 165.158125 137.95703125 165.9921875 C138.53453125 166.7140625 139.11203125 167.4359375 139.70703125 168.1796875 C140.95703125 169.9921875 140.95703125 169.9921875 140.95703125 171.9921875 C139.19140625 173.5859375 139.19140625 173.5859375 136.70703125 175.4921875 C133.65667817 177.85164864 130.65442398 180.22800456 127.76171875 182.77734375 C126.96749512 183.46957031 126.96749512 183.46957031 126.15722656 184.17578125 C124.63906397 185.50476177 123.12989032 186.84398941 121.62109375 188.18359375 C118.95703125 189.9921875 118.95703125 189.9921875 116.83203125 190.03515625 C114.33198097 188.64450328 113.06189189 187.02413132 111.33203125 184.7421875 C110.63464844 183.83597656 109.93726563 182.92976562 109.21875 181.99609375 C108.47238281 181.00480469 107.72601563 180.01351562 106.95703125 178.9921875 C105.3554558 176.88596971 103.75212632 174.78129467 102.14453125 172.6796875 C101.51768433 171.85827271 101.51768433 171.85827271 100.87817383 171.02026367 C97.43302229 166.53706192 93.81140007 162.22705653 90.13134766 157.93603516 C86.81808888 154.05605003 83.64552654 150.08656515 80.51953125 146.0546875 C76.26312164 140.57268207 71.8324334 135.27382814 67.29272461 130.02490234 C63.5967949 125.75019303 59.99062685 121.41236216 56.42578125 117.02734375 C53.32373807 113.21359762 50.20512303 109.41370643 47.08203125 105.6171875 C46.48197266 104.88773926 45.88191406 104.15829102 45.26367188 103.40673828 C41.12487271 98.38536816 36.93692521 93.40875317 32.71923828 88.45361328 C29.41409914 84.56024026 26.22173843 80.58862115 23.05078125 76.5859375 C20.10979402 72.94262497 17.07009094 69.38622464 14.03442383 65.82177734 C10.52264072 61.68789296 7.11905603 57.47782496 3.75 53.2265625 C1.22646946 50.08177063 -1.39734822 47.03465111 -4.04296875 43.9921875 C-6.95972127 45.33915582 -9.3023211 46.87663437 -11.765625 48.93359375 C-12.46300781 49.51238281 -13.16039062 50.09117188 -13.87890625 50.6875 C-14.61367187 51.30367187 -15.3484375 51.91984375 -16.10546875 52.5546875 C-17.64832956 53.83736942 -19.19129813 55.11992175 -20.734375 56.40234375 C-21.85223389 57.33457764 -21.85223389 57.33457764 -22.99267578 58.28564453 C-25.4968903 60.37000503 -28.0174859 62.43366604 -30.54296875 64.4921875 C-35.21966685 68.31339204 -39.88222023 72.15156416 -44.54296875 75.9921875 C-51.03199912 81.33906323 -57.53141722 86.67275079 -64.04296875 91.9921875 C-65.87641911 93.49204446 -67.70975046 94.9920469 -69.54296875 96.4921875 C-80.54296875 105.4921875 -91.54296875 114.4921875 -102.54296875 123.4921875 C-103.45820312 124.24113281 -104.3734375 124.99007812 -105.31640625 125.76171875 C-107.07114659 127.19718685 -108.8263203 128.63212546 -110.58203125 130.06640625 C-112.85089491 131.92056824 -115.11765056 133.77727505 -117.38378906 135.63476562 C-118.59031459 136.62185832 -119.79817592 137.60731895 -121.00683594 138.59179688 C-129.13413053 145.21182054 -137.18060394 151.84602257 -144.84375 159.00390625 C-146.83502593 160.80418947 -148.86685133 162.42359028 -151.04296875 163.9921875 C-153.9728262 162.69072637 -155.82915608 161.40013976 -157.8828125 158.9453125 C-158.38876953 158.3471875 -158.89472656 157.7490625 -159.41601562 157.1328125 C-160.19041992 156.19695312 -160.19041992 156.19695312 -160.98046875 155.2421875 C-161.49287109 154.63375 -162.00527344 154.0253125 -162.53320312 153.3984375 C-164.04355087 151.60214082 -165.54435208 149.7982764 -167.04296875 147.9921875 C-168.00240978 146.8409838 -168.96203022 145.68992958 -169.921875 144.5390625 C-170.62183594 143.69859375 -171.32179687 142.858125 -172.04296875 141.9921875 C-170.4903896 137.91193377 -167.57982945 135.61481691 -164.29296875 132.9296875 C-163.42949829 132.21123657 -163.42949829 132.21123657 -162.54858398 131.47827148 C-157.88674844 127.62291648 -153.12472747 123.89876218 -148.34667969 120.18920898 C-143.5308064 116.42971652 -138.9055436 112.47771887 -134.29321289 108.47290039 C-129.74011978 104.53967321 -125.04879197 100.82035861 -120.29296875 97.13671875 C-116.10263643 93.87237504 -112.05340412 90.47446285 -108.04296875 86.9921875 C-102.91369041 82.5384168 -97.66279303 78.29593532 -92.29296875 74.13671875 C-88.10263643 70.87237504 -84.05340412 67.47446285 -80.04296875 63.9921875 C-75.47288218 60.02396501 -70.82788101 56.19857452 -66.04296875 52.4921875 C-60.58411832 48.26178864 -55.31104735 43.85673809 -50.08862305 39.33862305 C-44.82348784 34.78549373 -39.44943023 30.37645242 -34.04296875 25.9921875 C-32.20893621 24.4930425 -30.37560894 22.99303428 -28.54296875 21.4921875 C-27.63675781 20.75097656 -26.73054687 20.00976562 -25.796875 19.24609375 C-23.94959353 17.73420523 -22.10325 16.22117001 -20.2578125 14.70703125 C-18.42658178 13.20547357 -16.59201302 11.70797633 -14.75390625 10.21484375 C-12.90850086 8.70182406 -11.08085614 7.1669388 -9.26953125 5.61328125 C-8.39039063 4.87207031 -7.51125 4.13085938 -6.60546875 3.3671875 C-5.82300781 2.69429688 -5.04054687 2.02140625 -4.234375 1.328125 C-2.04296875 -0.0078125 -2.04296875 -0.0078125 0 0 Z " fill="#FE1F3E" transform="translate(186.04296875,0.0078125)"/>
<path d="M0 0 C9.80740785 -0.24929004 19.44381041 0.53234242 29.19140625 1.4609375 C30.82938992 1.61343287 32.46740638 1.76557653 34.10545349 1.91738892 C37.51880805 2.23498578 40.93176689 2.5564699 44.34448242 2.88085938 C48.68965685 3.2936143 53.03563381 3.69707718 57.3819437 4.09767723 C60.75829143 4.40983743 64.13418479 4.72670694 67.50996208 5.04497147 C69.11119736 5.1954285 70.71256078 5.34452898 72.3140583 5.49216843 C80.95380946 6.29159761 89.49349355 7.22574248 98 9 C98.33992258 18.90636429 97.29048621 28.631402 96.28515625 38.46875 C96.10781359 40.23942361 95.93085379 42.01013561 95.7542572 43.78088379 C95.38524481 47.46918521 95.01253445 51.1570874 94.63696289 54.84472656 C94.15558017 59.5730201 93.68218665 64.30207215 93.21134281 69.03142548 C92.84769912 72.67760047 92.48058398 76.32341914 92.1123333 79.96913147 C91.93639603 81.71377921 91.7613786 83.45851996 91.58729744 85.20335388 C91.3442598 87.63267652 91.0967233 90.0614984 90.84790039 92.49023438 C90.77668976 93.21022614 90.70547913 93.9302179 90.6321106 94.67202759 C90.32665733 97.61307614 89.93905177 100.1828447 89 103 C56.33 103 23.66 103 -10 103 C-3.40672783 32.12232416 -3.40672783 32.12232416 0 0 Z " fill="#725D57" transform="translate(119,175)"/>
<path d="M0 0 C3.65199315 1.21733105 4.44819435 2.49828116 6.8125 5.5 C7.60527344 6.49257812 8.39804688 7.48515625 9.21484375 8.5078125 C9.87589111 9.33974121 9.87589111 9.33974121 10.55029297 10.18847656 C13.29037658 13.61242745 16.08563149 16.99118211 18.875 20.375 C19.4743335 21.10340088 20.07366699 21.83180176 20.69116211 22.58227539 C24.38438954 27.06409585 28.1116394 31.51447178 31.875 35.9375 C35.56996984 40.28134581 39.17402536 44.68511905 42.71875 49.15234375 C50.40144186 58.74255328 58.27326897 68.1812645 66.23754883 77.53833008 C69.54281661 81.4317456 72.73522157 85.40347641 75.90625 89.40625 C78.38811041 92.48079349 80.93848513 95.49179044 83.5 98.5 C87.39075616 103.06925314 91.17928921 107.70172572 94.90625 112.40625 C97.38811041 115.48079349 99.93848513 118.49179044 102.5 121.5 C106.39075616 126.06925314 110.17928921 130.70172572 113.90625 135.40625 C116.38811486 138.48079901 118.93863257 141.49165911 121.5 144.5 C126.10837255 149.91696978 130.59753633 155.41368055 135 161 C135.67546875 161.84046875 136.3509375 162.6809375 137.046875 163.546875 C137.69140625 164.35640625 138.3359375 165.1659375 139 166 C139.5775 166.721875 140.155 167.44375 140.75 168.1875 C142 170 142 170 142 172 C140.234375 173.59375 140.234375 173.59375 137.75 175.5 C134.69964692 177.85946114 131.69739273 180.23581706 128.8046875 182.78515625 C128.01046387 183.47738281 128.01046387 183.47738281 127.20019531 184.18359375 C125.68203272 185.51257427 124.17285907 186.85180191 122.6640625 188.19140625 C120 190 120 190 117.875 190.04296875 C115.37494972 188.65231578 114.10486064 187.03194382 112.375 184.75 C111.67761719 183.84378906 110.98023438 182.93757812 110.26171875 182.00390625 C109.51535156 181.01261719 108.76898438 180.02132812 108 179 C106.39842455 176.89378221 104.79509507 174.78910717 103.1875 172.6875 C102.76960205 172.13989014 102.3517041 171.59228027 101.92114258 171.02807617 C98.47599104 166.54487442 94.85436882 162.23486903 91.17431641 157.94384766 C87.86105763 154.06386253 84.68849529 150.09437765 81.5625 146.0625 C77.30609039 140.58049457 72.87540215 135.28164064 68.33569336 130.03271484 C64.63976365 125.75800553 61.0335956 121.42017466 57.46875 117.03515625 C54.36670682 113.22141012 51.24809178 109.42151893 48.125 105.625 C47.22491211 104.53082764 47.22491211 104.53082764 46.30664062 103.41455078 C42.16784146 98.39318066 37.97989396 93.41656567 33.76220703 88.46142578 C30.45706789 84.56805276 27.26470718 80.59643365 24.09375 76.59375 C21.15276277 72.95043747 18.11305969 69.39403714 15.07739258 65.82958984 C11.55816894 61.68694687 8.13246798 57.48111351 4.79296875 53.19140625 C3.06790341 51.00081995 3.06790341 51.00081995 1.17578125 49.21484375 C-1.15412807 46.91752057 -2.83825368 45.1713307 -3.296875 41.85009766 C-3.13330939 33.1317098 -2.33820088 24.48609772 -1.5 15.8125 C-1.35500214 14.27283033 -1.21046758 12.73311695 -1.06640625 11.19335938 C-0.71626952 7.46172129 -0.35989415 3.7307112 0 0 Z " fill="#C00001" transform="translate(185,0)"/>
<path d="M0 0 C10.54060427 -0.44818317 20.82655009 0.34347688 31.3125 1.4375 C33.25322388 1.639198 33.25322388 1.639198 35.2331543 1.8449707 C44.58133858 2.86044619 44.58133858 2.86044619 48 4 C48.33992258 13.90636429 47.29048621 23.631402 46.28515625 33.46875 C46.10781359 35.23942361 45.93085379 37.01013561 45.7542572 38.78088379 C45.38524481 42.46918521 45.01253445 46.1570874 44.63696289 49.84472656 C44.15558017 54.5730201 43.68218665 59.30207215 43.21134281 64.03142548 C42.84769912 67.67760047 42.48058398 71.32341914 42.1123333 74.96913147 C41.93639603 76.71377921 41.7613786 78.45851996 41.58729744 80.20335388 C41.3442598 82.63267652 41.0967233 85.0614984 40.84790039 87.49023438 C40.77668976 88.21022614 40.70547913 88.9302179 40.6321106 89.67202759 C40.32665733 92.61307614 39.93905177 95.1828447 39 98 C23.16 98 7.32 98 -9 98 C-7.66138629 79.14947359 -6.0935339 60.33728669 -4.34057617 41.52172852 C-3.99892518 37.85434942 -3.66159593 34.18658665 -3.32541561 30.51870251 C-3.06194354 27.64890072 -2.79634525 24.7792988 -2.53009224 21.9097538 C-2.34450293 19.90577813 -2.1606251 17.90164419 -1.97679138 15.89750671 C-1.86319778 14.6837587 -1.74960419 13.47001068 -1.63256836 12.21948242 C-1.48506386 10.6295472 -1.48506386 10.6295472 -1.33457947 9.00749207 C-0.9978206 5.98040965 -0.52882857 2.9989734 0 0 Z " fill="#53433F" transform="translate(169,180)"/>
</svg>
