<?xml version="1.0" encoding="UTF-8"?>
<svg version="1.1" xmlns="http://www.w3.org/2000/svg" width="512" height="512">
<path d="M0 0 C1.17328857 -0.00671722 2.34657715 -0.01343445 3.55541992 -0.02035522 C7.42533633 -0.03931704 11.29507911 -0.04325865 15.16503906 -0.04541016 C16.50425543 -0.04825935 17.84347111 -0.05145167 19.18268585 -0.05498123 C26.19797985 -0.07345764 33.21319811 -0.08165506 40.22851562 -0.08007812 C46.74226444 -0.07887814 53.25568115 -0.09995813 59.769346 -0.13156545 C65.38236714 -0.15782055 70.99528045 -0.16844154 76.60836244 -0.16716731 C79.95165401 -0.16666026 83.29441636 -0.17407193 86.63768768 -0.19352341 C90.37331824 -0.21322155 94.10810449 -0.20732904 97.84375 -0.1953125 C98.93399475 -0.20655151 100.0242395 -0.21779053 101.14752197 -0.22937012 C109.5526176 -0.16101532 116.69013298 1.69599827 123.99316406 5.91552734 C128.91889675 11.2634657 133.31705133 17.96466502 133.29418945 25.39477539 C133.2940686 26.22682495 133.29394775 27.05887451 133.29382324 27.9161377 C133.28870728 28.78605347 133.28359131 29.65596924 133.27832031 30.55224609 C133.27731323 31.35521118 133.27630615 32.15817627 133.27526855 32.98547363 C133.27003923 35.98300608 133.25607796 38.98051816 133.24316406 41.97802734 C133.22253906 48.68115234 133.20191406 55.38427734 133.18066406 62.29052734 C156.28066406 62.29052734 179.38066406 62.29052734 203.18066406 62.29052734 C203.18066406 57.01052734 203.18066406 51.73052734 203.18066406 46.29052734 C207.18066406 41.29052734 207.18066406 41.29052734 210.18066406 40.29052734 C215.41352861 40.01339635 220.64598246 39.97709391 225.88549805 39.94042969 C227.61870763 39.92387811 229.35184918 39.89659825 231.0847168 39.85839844 C233.59231727 39.80345435 236.09832291 39.78173128 238.60644531 39.76708984 C239.37539627 39.74442047 240.14434723 39.7217511 240.93659973 39.69839478 C244.95266663 39.71406059 247.45578969 40.10073149 250.65405273 42.63574219 C254.60130755 46.78323942 254.293894 49.94846415 254.24316406 55.47802734 C254.23414063 56.75033203 254.22511719 58.02263672 254.21582031 59.33349609 C254.19841797 60.79722656 254.19841797 60.79722656 254.18066406 62.29052734 C255.61732422 62.26696167 255.61732422 62.26696167 257.08300781 62.24291992 C260.66869552 62.18823022 264.25434706 62.15403687 267.84033203 62.12573242 C269.38629374 62.11073405 270.93221354 62.09032847 272.47802734 62.06420898 C282.24700959 61.90338972 290.02563027 61.82079306 298.43066406 67.47802734 C305.60561871 74.81604914 305.7589486 81.80825861 305.68859863 91.61291504 C305.69321243 92.96293449 305.69956856 94.31294891 305.70750761 95.6629529 C305.72415863 99.35788568 305.71597411 103.05240359 305.70356274 106.74733758 C305.69449712 110.73787214 305.70848945 114.72833632 305.71948242 118.71885681 C305.73725614 126.53042632 305.7334328 134.34184197 305.72183186 142.15341747 C305.71279329 148.50280892 305.71157537 154.8521573 305.71592712 161.20155334 C305.71654006 162.10570277 305.71715299 163.00985219 305.71778449 163.94140008 C305.71906341 165.77824097 305.72036027 167.61508185 305.72167486 169.45192271 C305.7330773 186.67045544 305.71997223 203.88890295 305.69847339 221.1074217 C305.68060272 235.8773212 305.68370692 250.64709495 305.70214844 265.41699219 C305.72356109 282.57448443 305.73197869 299.73190199 305.71969938 316.88940573 C305.7184252 318.71943759 305.71716772 320.54946946 305.71592712 322.37950134 C305.71531002 323.2798798 305.71469292 324.18025826 305.71405712 325.10792091 C305.7106054 331.4486796 305.71642871 337.78939087 305.72584534 344.13014221 C305.73707108 351.8588697 305.73401319 359.58743472 305.71272236 367.31614363 C305.70221965 371.25844998 305.69807667 375.20048557 305.71131897 379.14278984 C305.72326511 382.7538705 305.71664438 386.36443021 305.69540876 389.97546381 C305.68884575 391.89583153 305.70185901 393.8162356 305.71563768 395.73656511 C305.64409269 403.62473341 304.73828676 409.16782364 299.43457031 415.31396484 C298.87640625 415.75998047 298.31824219 416.20599609 297.74316406 416.66552734 C297.18757813 417.12701172 296.63199219 417.58849609 296.05957031 418.06396484 C292.08985349 420.6554224 288.59227234 421.54095551 283.87988281 421.48583984 C282.90341797 421.47939453 281.92695313 421.47294922 280.92089844 421.46630859 C279.91349609 421.44955078 278.90609375 421.43279297 277.86816406 421.41552734 C276.84142578 421.40650391 275.8146875 421.39748047 274.75683594 421.38818359 C272.23120507 421.36468935 269.70605596 421.33183865 267.18066406 421.29052734 C267.22707031 422.53189453 267.27347656 423.77326172 267.32128906 425.05224609 C267.35881827 426.69414905 267.3952172 428.33607811 267.43066406 429.97802734 C267.46417969 430.79464844 267.49769531 431.61126953 267.53222656 432.45263672 C267.59760097 436.48950628 267.52589408 438.71234345 265.41503906 442.24755859 C261.66803366 445.67357927 258.90441152 446.54028251 253.84887695 446.56518555 C252.78419693 446.57471756 251.71951691 446.58424957 250.62257385 446.59407043 C249.47772018 446.59315903 248.33286652 446.59224762 247.15332031 446.59130859 C245.97225204 446.59559372 244.79118378 446.59987885 243.57432556 446.60429382 C241.07698203 446.61003598 238.57962176 446.61053824 236.08227539 446.60620117 C232.26126575 446.60304231 228.44103104 446.62649923 224.62011719 446.65185547 C222.19368587 446.65412856 219.76725248 446.65483191 217.34082031 446.65380859 C216.19799088 446.66301834 215.05516144 446.67222809 213.87770081 446.68171692 C212.80986862 446.67548813 211.74203644 446.66925934 210.6418457 446.6628418 C209.23764122 446.66378593 209.23764122 446.66378593 207.80506897 446.66474915 C204.5936804 446.20682758 202.78583169 445.20786932 200.18066406 443.29052734 C197.18066406 439.29052734 197.18066406 439.29052734 197.18066406 421.29052734 C99.50066406 421.29052734 1.82066406 421.29052734 -98.81933594 421.29052734 C-98.81933594 427.23052734 -98.81933594 433.17052734 -98.81933594 439.29052734 C-103.81933594 445.29052734 -103.81933594 445.29052734 -106.81933594 446.29052734 C-108.55113565 446.39804788 -110.28669051 446.44925295 -112.02172852 446.4675293 C-113.08325638 446.48036453 -114.14478424 446.49319977 -115.23847961 446.50642395 C-116.95879646 446.51750435 -116.95879646 446.51750435 -118.71386719 446.52880859 C-119.89397873 446.53688034 -121.07409027 446.54495209 -122.28996277 446.55326843 C-124.78907808 446.56710649 -127.28821227 446.57782988 -129.78735352 446.58569336 C-133.60632153 446.6029123 -137.42442533 446.64680347 -141.24316406 446.69091797 C-143.67089207 446.70104439 -146.09862744 446.70956065 -148.52636719 446.71630859 C-150.237575 446.74257072 -150.237575 446.74257072 -151.98335266 446.7693634 C-158.22491631 446.75231356 -162.1323815 446.58807564 -166.81933594 442.29052734 C-168.88657307 439.18967164 -169.06431017 438.56121053 -169.01464844 435.06005859 C-169.00820312 434.25761719 -169.00175781 433.45517578 -168.99511719 432.62841797 C-168.97835937 431.79503906 -168.96160156 430.96166016 -168.94433594 430.10302734 C-168.9353125 429.25804687 -168.92628906 428.41306641 -168.91699219 427.54248047 C-168.89344297 425.45837492 -168.85757241 423.37441517 -168.81933594 421.29052734 C-169.44388672 421.31147461 -170.0684375 421.33242188 -170.71191406 421.35400391 C-173.58088654 421.43788578 -176.44960002 421.48941245 -179.31933594 421.54052734 C-180.30160156 421.57404297 -181.28386719 421.60755859 -182.29589844 421.64208984 C-189.80256672 421.74217875 -195.09959557 420.50041913 -200.84277344 415.54443359 C-201.28878906 414.98626953 -201.73480469 414.42810547 -202.19433594 413.85302734 C-202.65582031 413.29744141 -203.11730469 412.74185547 -203.59277344 412.16943359 C-206.27283619 408.06398715 -207.06966068 404.45619368 -207.07660484 399.59075451 C-207.08305374 398.4466625 -207.08950263 397.3025705 -207.09614694 396.12380904 C-207.09304974 394.87149011 -207.08995253 393.61917118 -207.08676147 392.3289032 C-207.09049859 390.98147715 -207.09510036 389.63405328 -207.10049212 388.28663284 C-207.11273001 384.58503498 -207.11246073 380.88352745 -207.11010337 377.18191397 C-207.1096954 373.18929565 -207.12073244 369.19670637 -207.13021851 365.20410156 C-207.14683384 357.38213903 -207.15232829 349.56020663 -207.15344326 341.73822793 C-207.15439349 335.38019194 -207.15850253 329.02216591 -207.16484451 322.66413307 C-207.18245845 304.63882228 -207.19168316 286.61353531 -207.19018357 268.58821585 C-207.19010365 267.6163971 -207.19002374 266.64457835 -207.18994141 265.64331055 C-207.18985964 264.67030551 -207.18977788 263.69730047 -207.18969364 262.69481043 C-207.18888072 246.92540049 -207.2080196 231.15608606 -207.23621814 215.38670375 C-207.26494223 199.19568234 -207.27875869 183.00470751 -207.27703059 166.81365997 C-207.27636652 157.72326838 -207.28186624 148.63297691 -207.30338669 139.54260826 C-207.32159225 131.8028446 -207.32595099 124.06322644 -207.31236784 116.32345065 C-207.30583497 112.37507839 -207.30573226 108.42698535 -207.32307434 104.4786396 C-207.33879641 100.86190629 -207.33595078 97.24567375 -207.31850608 93.62895272 C-207.31398239 91.7054455 -207.3291004 89.78192281 -207.34498537 87.85847586 C-207.28238204 80.01797468 -206.51498315 74.16572017 -200.88964844 68.26708984 C-200.24769531 67.82107422 -199.60574219 67.37505859 -198.94433594 66.91552734 C-197.98914063 66.22330078 -197.98914063 66.22330078 -197.01464844 65.51708984 C-191.79406281 62.60025019 -186.90259672 62.00724022 -181.01464844 62.09521484 C-180.29066864 62.09804474 -179.56668884 62.10087463 -178.82077026 62.10379028 C-176.52845104 62.11490647 -174.23653531 62.13999423 -171.94433594 62.16552734 C-170.38184162 62.17556825 -168.81934112 62.18469215 -167.25683594 62.19287109 C-163.44418256 62.21481762 -159.63182745 62.24928721 -155.81933594 62.29052734 C-155.85414063 61.33791016 -155.88894531 60.38529297 -155.92480469 59.40380859 C-155.951875 58.14955078 -155.97894531 56.89529297 -156.00683594 55.60302734 C-156.04164063 54.36166016 -156.07644531 53.12029297 -156.11230469 51.84130859 C-155.72710222 47.17265463 -154.29103293 44.86754555 -151.15112305 41.50292969 C-147.6977717 39.707375 -144.31234739 39.86222439 -140.51074219 39.89208984 C-139.70700668 39.88921967 -138.90327118 39.88634949 -138.07518005 39.88339233 C-136.37815648 39.88135421 -134.68110927 39.88686649 -132.98413086 39.89941406 C-130.39415593 39.91545106 -127.80574638 39.89956849 -125.21582031 39.88037109 C-123.56412418 39.88235398 -121.91242901 39.8861986 -120.26074219 39.89208984 C-119.1042794 39.8829808 -119.1042794 39.8829808 -117.92445374 39.87368774 C-113.3807516 39.93275119 -110.41036849 40.44395166 -106.81933594 43.29052734 C-104.81933594 46.29052734 -104.81933594 46.29052734 -104.81933594 62.29052734 C-81.71933594 62.29052734 -58.61933594 62.29052734 -34.81933594 62.29052734 C-35.01636152 49.24726798 -35.01636152 49.24726798 -35.26977539 36.20507812 C-35.41358616 25.08130817 -34.8220976 17.19122059 -27.38183594 8.41552734 C-18.40699837 0.97297911 -11.30079885 -0.00932563 0 0 Z M-11.81933594 25.29052734 C-15.72090257 36.99522725 -12.81933594 49.95269033 -12.81933594 62.29052734 C28.10066406 62.29052734 69.02066406 62.29052734 111.18066406 62.29052734 C113.01693705 42.62097412 113.01693705 42.62097412 109.18066406 24.29052734 C106.76766015 23.08402539 105.25230158 23.16213148 102.55653381 23.15681458 C101.58207809 23.15254959 100.60762238 23.14828461 99.6036377 23.14389038 C98.53085571 23.14434357 97.45807373 23.14479675 96.3527832 23.14526367 C95.22589584 23.14190506 94.09900848 23.13854645 92.93797302 23.13508606 C89.19724437 23.12555433 85.45656037 23.12363187 81.71582031 23.12255859 C79.12511679 23.1193477 76.53441346 23.11598376 73.94371033 23.11247253 C68.50714623 23.1064758 63.07059996 23.1045905 57.6340332 23.10522461 C51.34697926 23.10582554 45.06001108 23.09527131 38.77297884 23.07948095 C32.7288209 23.06484047 26.6847096 23.06123623 20.64053154 23.06183434 C18.06683438 23.06065102 15.49313665 23.0562097 12.91945076 23.04850197 C9.32554046 23.03874644 5.73185305 23.04156254 2.13793945 23.04760742 C1.0671817 23.04198792 -0.00357605 23.03636841 -1.10678101 23.03057861 C-2.08405655 23.0347731 -3.06133209 23.03896759 -4.06822205 23.04328918 C-4.91828292 23.04274442 -5.76834379 23.04219965 -6.64416409 23.04163837 C-9.11275527 23.15643422 -9.11275527 23.15643422 -11.81933594 25.29052734 Z " fill="#F86464" transform="translate(206.8193359375,32.70947265625)"/>
<path d="M0 0 C16.18742784 12.67812822 27.39341556 28.06348669 35.81103516 46.67822266 C36.21966797 47.55865234 36.62830078 48.43908203 37.04931641 49.34619141 C49.42026332 77.86146286 46.89571923 109.98943523 35.78466797 138.31982422 C31.09820237 149.67169425 24.6057919 159.24991128 16.81103516 168.67822266 C16.21548828 169.42716797 15.61994141 170.17611328 15.00634766 170.94775391 C10.289537 176.66886157 4.67203622 181.17227198 -1.18896484 185.67822266 C-2.36072266 186.59087891 -2.36072266 186.59087891 -3.55615234 187.52197266 C-23.58877717 202.36095401 -48.09433179 209.29759008 -72.81396484 209.17822266 C-73.50562744 209.17646027 -74.19729004 209.17469788 -74.90991211 209.17288208 C-103.31716958 209.01253432 -127.55821945 198.92796344 -149.18896484 180.67822266 C-150.10742188 179.96085937 -150.10742188 179.96085937 -151.04443359 179.22900391 C-171.68133374 162.7478182 -185.91484025 133.22927336 -188.97802734 107.26025391 C-191.00253488 72.88111672 -183.38542836 41.27215301 -160.14892578 14.96411133 C-157.88559357 12.47658112 -155.54860617 10.07505031 -153.18896484 7.67822266 C-152.43357422 6.89833984 -151.67818359 6.11845703 -150.89990234 5.31494141 C-109.91653484 -34.33048111 -43.86795392 -33.40689465 0 0 Z " fill="#F2EFEF" transform="translate(328.18896484375,182.32177734375)"/>
<path d="M0 0 C1.73320958 -0.01655158 3.46635113 -0.04383144 5.19921875 -0.08203125 C7.70681922 -0.13697534 10.21282486 -0.1586984 12.72094727 -0.17333984 C13.48989822 -0.19600922 14.25884918 -0.21867859 15.05110168 -0.24203491 C19.06716858 -0.2263691 21.57029165 0.1603018 24.76855469 2.6953125 C28.7158095 6.84280973 28.40839595 10.00803446 28.35766602 15.53759766 C28.34864258 16.80990234 28.33961914 18.08220703 28.33032227 19.39306641 C28.3187207 20.36888672 28.30711914 21.34470703 28.29516602 22.35009766 C29.25293945 22.33438721 30.21071289 22.31867676 31.19750977 22.30249023 C34.78319747 22.24780053 38.36884901 22.21360718 41.95483398 22.18530273 C43.50079569 22.17030436 45.04671549 22.14989879 46.5925293 22.1237793 C56.36151154 21.96296003 64.14013222 21.88036337 72.54516602 27.53759766 C79.72012066 34.87561946 79.87345055 41.86782892 79.80310059 51.67248535 C79.80771439 53.0225048 79.81407052 54.37251922 79.82200956 55.72252321 C79.83866058 59.41745599 79.83047607 63.1119739 79.81806469 66.80690789 C79.80899907 70.79744245 79.8229914 74.78790663 79.83398438 78.77842712 C79.85175809 86.58999663 79.84793475 94.40141228 79.83633381 102.21298778 C79.82729524 108.56237923 79.82607732 114.91172761 79.83042908 121.26112366 C79.83104201 122.16527308 79.83165494 123.0694225 79.83228645 124.00097039 C79.83356537 125.83781128 79.83486222 127.67465216 79.83617681 129.51149303 C79.84757925 146.73002576 79.83447419 163.94847326 79.81297535 181.16699201 C79.79510467 195.93689151 79.79820887 210.70666526 79.81665039 225.4765625 C79.83806304 242.63405474 79.84648064 259.79147231 79.83420134 276.94897604 C79.83292716 278.7790079 79.83166967 280.60903977 79.83042908 282.43907166 C79.82981198 283.33945011 79.82919487 284.23982857 79.82855907 285.16749123 C79.82510736 291.50824991 79.83093067 297.84896118 79.84034729 304.18971252 C79.85157304 311.91844002 79.84851514 319.64700503 79.82722431 327.37571394 C79.8167216 331.3180203 79.81257862 335.26005589 79.82582092 339.20236015 C79.83776706 342.81344081 79.83114633 346.42400052 79.80991071 350.03503412 C79.8033477 351.95540185 79.81636097 353.87580592 79.83013964 355.79613543 C79.75859465 363.68430372 78.85278871 369.22739395 73.54907227 375.37353516 C72.9909082 375.81955078 72.43274414 376.26556641 71.85766602 376.72509766 C71.02428711 377.41732422 71.02428711 377.41732422 70.17407227 378.12353516 C66.20435544 380.71499271 62.70677429 381.60052582 57.99438477 381.54541016 C57.01791992 381.53896484 56.04145508 381.53251953 55.03540039 381.52587891 C54.02799805 381.50912109 53.0205957 381.49236328 51.98266602 381.47509766 C50.44255859 381.4615625 50.44255859 381.4615625 48.87133789 381.44775391 C46.34570702 381.42425967 43.82055792 381.39140896 41.29516602 381.35009766 C41.34157227 382.59146484 41.38797852 383.83283203 41.43579102 385.11181641 C41.47332023 386.75371936 41.50971915 388.39564843 41.54516602 390.03759766 C41.57868164 390.85421875 41.61219727 391.67083984 41.64672852 392.51220703 C41.71210292 396.5490766 41.64039603 398.77191376 39.52954102 402.30712891 C35.78253561 405.73314958 33.01891347 406.59985282 27.96337891 406.62475586 C26.89869888 406.63428787 25.83401886 406.64381989 24.73707581 406.65364075 C23.59222214 406.65272934 22.44736847 406.65181793 21.26782227 406.65087891 C20.086754 406.65516403 18.90568573 406.65944916 17.68882751 406.66386414 C15.19148398 406.66960629 12.69412372 406.67010855 10.19677734 406.66577148 C6.3757677 406.66261262 2.555533 406.68606955 -1.26538086 406.71142578 C-3.69181217 406.71369887 -6.11824557 406.71440222 -8.54467773 406.71337891 C-9.68750717 406.72258865 -10.83033661 406.7317984 -12.00779724 406.74128723 C-13.07562943 406.73505844 -14.14346161 406.72882965 -15.24365234 406.72241211 C-16.64785683 406.72335625 -16.64785683 406.72335625 -18.08042908 406.72431946 C-21.98424534 406.16766254 -24.60551361 404.33257053 -27.50561523 401.74072266 C-29.39959934 397.9650931 -29.01893725 394.25528192 -28.89233398 390.10009766 C-28.87879883 389.25962891 -28.86526367 388.41916016 -28.85131836 387.55322266 C-28.81606863 385.48523828 -28.76226419 383.41758495 -28.70483398 381.35009766 C-28.10872314 381.3420108 -27.5126123 381.33392395 -26.8984375 381.32559204 C-20.66849196 381.23922975 -14.43885306 381.13971389 -8.20922852 381.03271484 C-5.88734099 380.99453974 -3.56539663 380.95966727 -1.2434082 380.92822266 C2.10298916 380.88232265 5.44899917 380.82436937 8.79516602 380.76416016 C9.82569092 380.75260895 10.85621582 380.74105774 11.91796875 380.72915649 C20.23107199 380.56067765 27.6920201 379.92608754 34.29516602 374.35009766 C40.07299152 367.86484665 40.00453389 361.30454973 39.93008423 352.95178223 C39.9358514 351.5935094 39.94379653 350.23524438 39.95372045 348.87699556 C39.97453587 345.15918343 39.96430333 341.44201547 39.94878936 337.72420144 C39.9374578 333.7091112 39.95494747 329.69413028 39.96868896 325.67906189 C39.99090672 317.8193382 39.98612675 309.95985343 39.97162576 302.10012043 C39.96032775 295.71162957 39.95880505 289.32320562 39.96424484 282.93470764 C39.96501101 282.0250075 39.96577717 281.11530735 39.96656656 280.17804053 C39.9681652 278.32992564 39.96978627 276.48181076 39.97142951 274.6336959 C39.98568273 257.30927464 39.969301 239.98498573 39.94242768 222.66058618 C39.92008928 207.79969951 39.92396953 192.93900814 39.94702148 178.078125 C39.97378704 160.81514569 39.98430947 143.55228234 39.96896017 126.28928518 C39.96736744 124.44801936 39.96579559 122.60675353 39.96424484 120.76548767 C39.96347346 119.85958099 39.96270209 118.95367431 39.96190733 118.02031592 C39.9575926 111.64047381 39.964872 105.26070534 39.97664261 98.88087463 C39.99067454 91.10453663 39.98685316 83.32845093 39.96023889 75.55214179 C39.94710992 71.58548195 39.94193229 67.61924258 39.95848465 63.65258598 C39.97341688 60.01919556 39.9651434 56.38661413 39.93859689 52.75329679 C39.93039243 50.82099894 39.94666067 48.88864464 39.96388304 46.95640612 C39.88364301 39.83606257 39.1199155 34.79210153 34.29516602 29.35009766 C28.00592308 24.24658549 20.85809423 23.61156856 13.03735352 23.64306641 C11.49375656 23.62038445 11.49375656 23.62038445 9.91897583 23.59724426 C6.66914471 23.55465042 3.42024746 23.54555645 0.17016602 23.53759766 C-2.04860832 23.51443142 -4.26736082 23.48906171 -6.48608398 23.46142578 C-11.89234311 23.3988537 -17.29824149 23.3636951 -22.70483398 23.35009766 C-22.81320069 20.61985876 -22.89230093 17.89395223 -22.95483398 15.16259766 C-23.00510742 14.00920898 -23.00510742 14.00920898 -23.05639648 12.83251953 C-23.1247686 8.84984381 -23.00545321 6.84149447 -20.87670898 3.36181641 C-15.6365102 -1.49196485 -6.77807772 0.04743052 0 0 Z " fill="#E55C5C" transform="translate(432.704833984375,72.64990234375)"/>
<path d="M0 0 C1.26521484 -0.00386719 2.53042969 -0.00773438 3.83398438 -0.01171875 C5.8052832 0.00568359 5.8052832 0.00568359 7.81640625 0.0234375 C9.7819043 0.00603516 9.7819043 0.00603516 11.78710938 -0.01171875 C13.68686523 -0.00591797 13.68686523 -0.00591797 15.625 0 C16.77669678 0.00338379 17.92839355 0.00676758 19.11499023 0.01025391 C23.81442355 0.56916624 26.99560706 1.90782121 30.2355957 5.39916992 C31.99891394 10.02491507 31.74605256 14.48045837 31.671875 19.38671875 C31.66763016 20.44505417 31.66338531 21.50338959 31.65901184 22.59379578 C31.64224987 25.96643762 31.60460137 29.33847695 31.56640625 32.7109375 C31.55135624 35.0006424 31.53766839 37.29035668 31.52539062 39.58007812 C31.49235448 45.1864027 31.44217942 50.79237704 31.37890625 56.3984375 C31.95440216 56.39177567 32.52989807 56.38511383 33.12283325 56.37825012 C39.12512615 56.31176025 45.127314 56.26658029 51.12988281 56.23364258 C53.36853283 56.21857786 55.60715344 56.19812217 57.84570312 56.17211914 C61.06778227 56.13563467 64.28947036 56.11868767 67.51171875 56.10546875 C69.00736862 56.08224297 69.00736862 56.08224297 70.53323364 56.05854797 C75.88616032 56.05725833 79.80578193 56.27741025 84.37890625 59.3984375 C86.76495974 62.97751773 86.7015104 65.59675306 86.71484375 69.734375 C86.72482895 70.80892441 86.72482895 70.80892441 86.73501587 71.90518188 C86.7451332 73.41983476 86.74983317 74.93453212 86.74951172 76.44921875 C86.75387813 78.75856641 86.79018354 81.06599134 86.828125 83.375 C86.83399492 84.84895182 86.83796314 86.32291269 86.83984375 87.796875 C86.85421478 88.48349213 86.86858582 89.17010925 86.88339233 89.87753296 C86.85068197 93.33621202 86.44531269 95.29203772 84.60009766 98.24853516 C81.10701469 101.62950774 78.44923006 102.65150376 73.61035156 102.62548828 C72.19934174 102.62526169 72.19934174 102.62526169 70.75982666 102.62503052 C69.75240417 102.61470795 68.74498169 102.60438538 67.70703125 102.59375 C66.66947693 102.5909201 65.63192261 102.58809021 64.56292725 102.58517456 C61.25146924 102.57398615 57.94028241 102.54888377 54.62890625 102.5234375 C52.38281641 102.51340598 50.13672232 102.50428043 47.890625 102.49609375 C42.38662634 102.4740512 36.88278567 102.44058682 31.37890625 102.3984375 C31.3877887 102.97393341 31.39667114 103.54942932 31.40582275 104.1423645 C31.49447526 110.14461309 31.55471462 116.14667498 31.59863281 122.14941406 C31.61871941 124.38809771 31.64599405 126.62672908 31.68066406 128.86523438 C31.72931089 132.08737099 31.75190499 135.30881251 31.76953125 138.53125 C31.79017639 139.52834991 31.81082153 140.52544983 31.83209229 141.55276489 C31.83394467 147.31929346 31.43682701 150.93899803 27.37890625 155.3984375 C22.64059316 158.93765426 15.77626253 157.7703336 10.10717773 157.76904297 C7.95150784 157.773417 5.7978862 157.8097618 3.64257812 157.84765625 C2.26432988 157.8535251 0.88607196 157.85749404 -0.4921875 157.859375 C-1.7392749 157.86759277 -2.9863623 157.87581055 -4.27124023 157.88427734 C-8.24803574 157.30751012 -9.82945301 156.24355316 -12.62109375 153.3984375 C-14.46310754 150.37643568 -14.86705706 148.14761277 -14.84814453 144.62988281 C-14.84799347 143.68920959 -14.84784241 142.74853638 -14.84768677 141.77935791 C-14.83220291 140.26822418 -14.83220291 140.26822418 -14.81640625 138.7265625 C-14.81357635 137.68900818 -14.81074646 136.65145386 -14.80783081 135.5824585 C-14.7966424 132.27100049 -14.77154002 128.95981366 -14.74609375 125.6484375 C-14.73606223 123.40234766 -14.72693668 121.15625357 -14.71875 118.91015625 C-14.69670745 113.40615759 -14.66324307 107.90231692 -14.62109375 102.3984375 C-15.48433762 102.41176117 -15.48433762 102.41176117 -16.36502075 102.425354 C-22.36726934 102.51400651 -28.36933123 102.57424587 -34.37207031 102.61816406 C-36.61075396 102.63825066 -38.84938533 102.6655253 -41.08789062 102.70019531 C-44.31002724 102.74884214 -47.53146876 102.77143624 -50.75390625 102.7890625 C-51.75100616 102.80970764 -52.74810608 102.83035278 -53.77542114 102.85162354 C-59.72174584 102.85353367 -63.11016644 102.387938 -67.62109375 98.3984375 C-70.00294157 94.82566576 -69.96009948 92.19513519 -69.9921875 88.0625 C-70.00121597 87.34613373 -70.01024445 86.62976746 -70.01954651 85.89169312 C-70.03404236 84.37705662 -70.04293411 82.8623576 -70.04663086 81.34765625 C-70.0585189 79.03798067 -70.1076944 76.73098598 -70.15820312 74.421875 C-70.16766909 72.94792967 -70.1749033 71.47396797 -70.1796875 70 C-70.19921982 69.31338287 -70.21875214 68.62676575 -70.23887634 67.91934204 C-70.20264132 64.04036336 -69.71790097 62.51543782 -67.21118164 59.48583984 C-63.79673612 56.73407161 -62.2750538 56.27368891 -57.98779297 56.28491211 C-57.02694794 56.28498764 -56.06610291 56.28506317 -55.07614136 56.28514099 C-54.03652252 56.29030228 -52.99690369 56.29546356 -51.92578125 56.30078125 C-50.86320099 56.3021962 -49.80062073 56.30361115 -48.70584106 56.30506897 C-45.30256366 56.31067916 -41.89935137 56.32323341 -38.49609375 56.3359375 C-36.19270928 56.34095119 -33.88932378 56.34551432 -31.5859375 56.34960938 C-25.93096726 56.3606519 -20.27603516 56.37739998 -14.62109375 56.3984375 C-14.62775558 55.8081929 -14.63441742 55.2179483 -14.64128113 54.6098175 C-14.70769677 48.46169486 -14.75292025 42.31367429 -14.78588867 36.1652832 C-14.80096683 33.87129578 -14.82143245 31.57733713 -14.84741211 29.28344727 C-14.88383733 25.98446545 -14.90083006 22.6858651 -14.9140625 19.38671875 C-14.92954636 18.36258377 -14.94503021 17.33844879 -14.96098328 16.28327942 C-14.9631435 7.12521634 -14.9631435 7.12521634 -11.62109375 3.3984375 C-7.78253018 0.38050961 -4.81764547 0.01416855 0 0 Z " fill="#F86565" transform="translate(247.62109375,195.6015625)"/>
<path d="M0 0 C1.17328857 -0.00671722 2.34657715 -0.01343445 3.55541992 -0.02035522 C7.42533633 -0.03931704 11.29507911 -0.04325865 15.16503906 -0.04541016 C16.50425543 -0.04825935 17.84347111 -0.05145167 19.18268585 -0.05498123 C26.19797985 -0.07345764 33.21319811 -0.08165506 40.22851562 -0.08007812 C46.74226444 -0.07887814 53.25568115 -0.09995813 59.769346 -0.13156545 C65.38236714 -0.15782055 70.99528045 -0.16844154 76.60836244 -0.16716731 C79.95165401 -0.16666026 83.29441636 -0.17407193 86.63768768 -0.19352341 C90.37331824 -0.21322155 94.10810449 -0.20732904 97.84375 -0.1953125 C98.93399475 -0.20655151 100.0242395 -0.21779053 101.14752197 -0.22937012 C109.5526176 -0.16101532 116.69013298 1.69599827 123.99316406 5.91552734 C128.95857718 11.3065473 133.31665644 18.00506447 133.29418945 25.48657227 C133.29411392 26.32721725 133.29403839 27.16786224 133.29396057 28.03398132 C133.28879929 28.9371962 133.283638 29.84041107 133.27832031 30.77099609 C133.27619789 32.16297966 133.27619789 32.16297966 133.27403259 33.58308411 C133.26843343 36.54809792 133.25588111 39.51303633 133.24316406 42.47802734 C133.23814895 44.48779188 133.23358607 46.4975576 133.22949219 48.50732422 C133.21931502 53.43511105 133.19973939 58.36273474 133.18066406 63.29052734 C125.92066406 63.29052734 118.66066406 63.29052734 111.18066406 63.29052734 C111.12007812 60.79876953 111.05949219 58.30701172 110.99707031 55.73974609 C110.93526566 53.32703665 110.87188429 50.91437342 110.80834961 48.50170898 C110.76503239 46.82466747 110.723355 45.14758277 110.68334961 43.47045898 C110.62556921 41.06008894 110.56189726 38.64993564 110.49707031 36.23974609 C110.47200157 35.11459846 110.47200157 35.11459846 110.44642639 33.96672058 C110.35722173 30.83374743 110.17829953 28.28343374 109.18066406 25.29052734 C106.76448815 24.08243939 105.24917709 24.16473965 102.54980469 24.1635437 C101.08595337 24.15931396 101.08595337 24.15931396 99.5925293 24.15499878 C97.98099976 24.15803513 97.98099976 24.15803513 96.33691406 24.16113281 C94.64417358 24.15850433 94.64417358 24.15850433 92.91723633 24.15582275 C89.17169678 24.15140674 85.42620412 24.15434137 81.68066406 24.15771484 C79.08756501 24.15704173 76.49446602 24.15607165 73.90136719 24.15481567 C68.46060529 24.15333904 63.01986116 24.15539735 57.57910156 24.16015625 C51.28409997 24.16559866 44.98913076 24.16383592 38.69412994 24.15832984 C32.6446335 24.15324978 26.59515293 24.15378149 20.5456543 24.15671158 C17.96834305 24.15738059 15.39103099 24.15655332 12.8137207 24.15423203 C9.2172626 24.15170401 5.62086745 24.15554826 2.02441406 24.16113281 C0.41288452 24.15809647 0.41288452 24.15809647 -1.23120117 24.15499878 C-2.20710205 24.1578186 -3.18300293 24.16063843 -4.18847656 24.1635437 C-5.03945923 24.16392073 -5.89044189 24.16429775 -6.76721191 24.1646862 C-8.88482796 24.16009438 -8.88482796 24.16009438 -10.81933594 25.29052734 C-12.04252459 28.96009331 -12.05049718 32.41373737 -12.13574219 36.23974609 C-12.15652328 37.01236282 -12.17730438 37.78497955 -12.19871521 38.58100891 C-12.26404632 41.04659214 -12.32301909 43.51228095 -12.38183594 45.97802734 C-12.4250368 47.65056426 -12.4686516 49.32309054 -12.51269531 50.99560547 C-12.62048918 55.09380616 -12.71968429 59.19208818 -12.81933594 63.29052734 C-20.07933594 63.29052734 -27.33933594 63.29052734 -34.81933594 63.29052734 C-34.9347128 57.49091715 -35.03406846 51.69535531 -35.09399414 45.89550781 C-35.1189964 43.92661988 -35.15300994 41.95782342 -35.1965332 39.98925781 C-35.66617561 18.18679978 -35.66617561 18.18679978 -27.38183594 8.41552734 C-18.40699837 0.97297911 -11.30079885 -0.00932563 0 0 Z " fill="#6D6C6C" transform="translate(206.8193359375,32.70947265625)"/>
<path d="M0 0 C23.1 0 46.2 0 70 0 C70 18 70 18 66 23 C62.90296906 25.09294963 60.36306619 25.25645774 56.66821289 25.2746582 C55.07119286 25.28895622 55.07119286 25.28895622 53.44190979 25.30354309 C52.29705612 25.30263168 51.15220245 25.30172028 49.97265625 25.30078125 C48.79158798 25.30506638 47.61051971 25.3093515 46.3936615 25.31376648 C43.89631796 25.31950864 41.3989577 25.32001089 38.90161133 25.31567383 C35.08060168 25.31251496 31.26036698 25.33597189 27.43945312 25.36132812 C25.01302181 25.36360122 22.58658841 25.36430457 20.16015625 25.36328125 C19.01732681 25.372491 17.87449738 25.38170074 16.69703674 25.39118958 C15.62920456 25.38496078 14.56137238 25.37873199 13.46118164 25.37231445 C12.05697716 25.37325859 12.05697716 25.37325859 10.62440491 25.3742218 C7.41301634 24.91630023 5.60516763 23.91734197 3 22 C0 18 0 18 0 0 Z " fill="#EA4D4D" transform="translate(404,454)"/>
<path d="M0 0 C23.1 0 46.2 0 70 0 C70 18 70 18 65 24 C61.99544381 25.00151873 59.93971844 25.14390393 56.79760742 25.17700195 C55.73607956 25.18983719 54.6745517 25.20267242 53.58085632 25.21589661 C51.86053947 25.22697701 51.86053947 25.22697701 50.10546875 25.23828125 C48.92535721 25.246353 47.74524567 25.25442474 46.52937317 25.26274109 C44.03025786 25.27657914 41.53112367 25.28730254 39.03198242 25.29516602 C35.21301441 25.31238496 31.39491061 25.35627612 27.57617188 25.40039062 C25.14844387 25.41051705 22.7207085 25.41903331 20.29296875 25.42578125 C19.15216354 25.44328934 18.01135834 25.46079742 16.83598328 25.47883606 C10.59441963 25.46178622 6.68695444 25.2975483 2 21 C0 18 0 18 0 0 Z " fill="#EA4E4E" transform="translate(38,454)"/>
<path d="M0 0 C2.70552388 2.19823815 4.44778333 3.89556667 6 7 C6.10416941 8.38743153 6.14861871 9.77961813 6.16113281 11.17089844 C6.17074036 12.03229431 6.1803479 12.89369019 6.19024658 13.78118896 C6.19449646 14.71449036 6.19874634 15.64779175 6.203125 16.609375 C6.20882507 17.56894104 6.21452515 18.52850708 6.22039795 19.51715088 C6.22985602 21.55146174 6.23638512 23.58578798 6.24023438 25.62011719 C6.24991757 28.72358217 6.2809242 31.82637867 6.3125 34.9296875 C6.31903229 36.90624607 6.32428187 38.88280937 6.328125 40.859375 C6.3404718 41.78457947 6.3528186 42.70978394 6.36553955 43.6630249 C6.34767298 48.8662726 5.9305526 52.50789918 3 57 C0.12721821 59.39398482 -1.72667978 59.96024433 -5.4375 60.5 C-10.19197325 59.83270551 -11.67221155 58.40702151 -15 55 C-15.93096314 52.20711058 -16.14590654 50.42581912 -16.19287109 47.53198242 C-16.20893402 46.63062057 -16.22499695 45.72925873 -16.24154663 44.80058289 C-16.28612572 40.68371445 -16.32705387 36.56700461 -16.35009766 32.44995117 C-16.36665905 30.28024572 -16.39395133 28.11059487 -16.43212891 25.94116211 C-16.48695613 22.80814395 -16.50878011 19.67640233 -16.5234375 16.54296875 C-16.54610687 15.57715378 -16.56877625 14.61133881 -16.59213257 13.61625671 C-16.5780577 9.11819164 -16.48798198 5.98652562 -13.59228516 2.40356445 C-9.16527516 -1.70115521 -5.70677488 -1.46858283 0 0 Z " fill="#FAA0A0" transform="translate(39,124)"/>
<path d="M0 0 C1.73320958 -0.01655158 3.46635113 -0.04383144 5.19921875 -0.08203125 C7.70681922 -0.13697534 10.21282486 -0.1586984 12.72094727 -0.17333984 C13.48989822 -0.19600922 14.25884918 -0.21867859 15.05110168 -0.24203491 C19.06716858 -0.2263691 21.57029165 0.1603018 24.76855469 2.6953125 C28.68540336 6.8108611 28.4314441 9.98266934 28.42016602 15.47509766 C28.4240332 17.36615234 28.4240332 17.36615234 28.42797852 19.29541016 C28.29516602 22.35009766 28.29516602 22.35009766 27.29516602 23.35009766 C25.72969554 23.44336481 24.16003829 23.46755348 22.59179688 23.46362305 C21.59083481 23.46354752 20.58987274 23.46347198 19.55857849 23.46339417 C18.47005081 23.45823288 17.38152313 23.45307159 16.26000977 23.44775391 C15.15162247 23.44633896 14.04323517 23.44492401 12.90126038 23.44346619 C9.34503533 23.43784799 5.78887218 23.4252924 2.23266602 23.41259766 C-0.17162995 23.407585 -2.5759269 23.40302169 -4.98022461 23.39892578 C-10.88844902 23.38787265 -16.79663708 23.37111682 -22.70483398 23.35009766 C-22.81320069 20.61985876 -22.89230093 17.89395223 -22.95483398 15.16259766 C-22.98834961 14.39367187 -23.02186523 13.62474609 -23.05639648 12.83251953 C-23.1247686 8.84984381 -23.00545321 6.84149447 -20.87670898 3.36181641 C-15.6365102 -1.49196485 -6.77807772 0.04743052 0 0 Z " fill="#6E6C6C" transform="translate(432.704833984375,72.64990234375)"/>
<path d="M0 0 C0.8037355 -0.00287018 1.60747101 -0.00574036 2.43556213 -0.00869751 C4.13258571 -0.01073563 5.82963291 -0.00522335 7.52661133 0.00732422 C10.11658626 0.02336122 12.70499581 0.00747865 15.29492188 -0.01171875 C16.94661801 -0.00973586 18.59831318 -0.00589124 20.25 0 C21.40646278 -0.00910904 21.40646278 -0.00910904 22.58628845 -0.0184021 C27.12999059 0.04066134 30.1003737 0.55186182 33.69140625 3.3984375 C35.72261332 6.44524811 35.938005 6.99962074 35.88671875 10.41015625 C35.88027344 11.16748047 35.87382813 11.92480469 35.8671875 12.70507812 C35.85042969 13.49076172 35.83367187 14.27644531 35.81640625 15.0859375 C35.80738281 15.88322266 35.79835937 16.68050781 35.7890625 17.50195312 C35.7655221 19.4675765 35.72965172 21.43304525 35.69140625 23.3984375 C28.58895626 23.42370537 21.48651777 23.44126951 14.3840332 23.45336914 C11.96573453 23.45841099 9.54743892 23.46524428 7.12915039 23.47387695 C3.66161342 23.48594907 0.19411659 23.49166713 -3.2734375 23.49609375 C-4.36196518 23.50125504 -5.45049286 23.50641632 -6.57200623 23.51173401 C-8.07344933 23.51184731 -8.07344933 23.51184731 -9.60522461 23.51196289 C-10.93426064 23.51529381 -10.93426064 23.51529381 -12.29014587 23.51869202 C-14.30859375 23.3984375 -14.30859375 23.3984375 -15.30859375 22.3984375 C-15.46148638 20.15209196 -15.53056842 17.89980576 -15.55859375 15.6484375 C-15.584375 14.41609375 -15.61015625 13.18375 -15.63671875 11.9140625 C-15.21354662 7.38007541 -13.87752731 4.99268032 -10.71948242 1.78369141 C-7.24593263 -0.21214874 -3.89792381 -0.03062214 0 0 Z " fill="#6E6C6C" transform="translate(66.30859375,72.6015625)"/>
</svg>
