<?xml version="1.0" encoding="UTF-8"?>
<svg version="1.1" xmlns="http://www.w3.org/2000/svg" width="512" height="512">
<path d="M0 0 C1.06992187 0.474375 2.13984375 0.94875 3.2421875 1.4375 C20.71469789 9.98875214 30.93504793 24.01632424 37.75 41.9765625 C39.7325399 48.44735244 39.16914641 55.3093199 39 62 C40.216875 62.185625 41.43375 62.37125 42.6875 62.5625 C57.13231692 65.85056665 69.43840368 76.0828097 77.4375 88.29296875 C84.07969132 99.80056522 87.38619492 110.03585001 87.3125 123.25 C87.30831055 124.26908447 87.30412109 125.28816895 87.29980469 126.33813477 C87.13979849 136.99301578 85.19995691 145.67593934 80 155 C80.73863281 154.89816406 81.47726562 154.79632813 82.23828125 154.69140625 C85.90941033 154.53747072 88.50675521 154.80708541 92 156 C95.89101057 159.82016584 98.67568061 164.14312825 101.56835938 168.74511719 C103.49496248 171.77958278 105.53922647 174.72581599 107.5847168 177.6809082 C109.22644902 180.05635594 110.85083957 182.44294949 112.47265625 184.83203125 C116.31617037 190.47886413 120.21855047 196.08409579 124.125 201.6875 C129.03099918 208.72727082 133.9210288 215.77691527 138.77124023 222.85522461 C142.17621998 227.81778124 145.6125583 232.7580062 149.05859375 237.69213867 C150.46983729 239.71918286 151.87487093 241.75056557 153.2734375 243.78637695 C157.35384652 249.74737995 157.35384652 249.74737995 161.80078125 255.43359375 C168.79597352 264.19311515 167.76018121 273.31523071 167 284 C161.72 284 156.44 284 151 284 C151 305.12 151 326.24 151 348 C158.26 348 165.52 348 173 348 C187.36410787 351.12263215 198.62892375 358.28502525 207.1875 370.25 C215.41721455 383.07867268 216.81015536 398.3693955 214.50390625 413.1875 C213.82836979 415.56905227 213.01166182 417.74226692 212 420 C211.68289063 420.80050781 211.36578125 421.60101563 211.0390625 422.42578125 C206.03389064 433.83828303 196.61510853 443.36146643 185.1328125 448.2109375 C182.43824491 449.21872008 179.74981936 450.15556728 177 451 C176.14610687 451.26755348 176.14610687 451.26755348 175.27496338 451.54051208 C172.19524597 452.16254097 169.26222232 452.11917666 166.12011719 452.11352539 C165.09511612 452.11374443 165.09511612 452.11374443 164.04940796 452.1139679 C161.79853096 452.11327315 159.54773748 452.10550132 157.296875 452.09765625 C155.7331751 452.09579051 154.16947462 452.09436734 152.60577393 452.09336853 C148.49583311 452.08955562 144.38592779 452.0797358 140.27600098 452.06866455 C136.07983887 452.05842407 131.88367101 452.05386526 127.6875 452.04882812 C119.45831707 452.03811242 111.22916295 452.02105073 103 452 C103.02827881 453.63569946 103.02827881 453.63569946 103.05712891 455.30444336 C103.07237848 456.75373894 103.08716518 458.20303945 103.1015625 459.65234375 C103.11517822 460.36886108 103.12879395 461.08537842 103.14282227 461.8236084 C103.20647039 470.3793857 100.57708265 477.17946201 94.703125 483.46875 C86.75146478 490.6179491 78.7793335 492.29972165 68.34780884 492.26742554 C67.27435254 492.27195665 66.20089625 492.27648776 65.09491098 492.28115618 C61.49763779 492.29381731 57.90051567 492.29217869 54.30322266 492.29052734 C51.72421575 492.29651147 49.14521064 492.30331675 46.56620789 492.31088257 C40.28778536 492.32747737 34.00940039 492.33299141 27.73095776 492.33410732 C22.62675872 492.33505843 17.52257205 492.33917184 12.41837692 492.34550858 C-2.05942513 492.3631161 -16.53719756 492.3723481 -31.0150104 492.37084763 C-31.79509603 492.37076772 -32.57518166 492.3706878 -33.37890625 492.37060547 C-34.15994644 492.37052371 -34.94098663 492.37044195 -35.74569471 492.37035771 C-48.40465193 492.36954473 -61.06349018 492.38868651 -73.72241299 492.4168822 C-86.72683276 492.44561846 -99.73119452 492.45942212 -112.73564684 492.45769465 C-120.03415682 492.45703105 -127.33254205 492.46251026 -134.63102341 492.48405075 C-141.49454019 492.50417808 -148.35778943 492.50358129 -155.2213192 492.48901749 C-157.7400075 492.48692404 -160.25871214 492.49166202 -162.77737236 492.5037384 C-166.2165062 492.51916 -169.65472754 492.50990198 -173.09384155 492.49447632 C-174.0897655 492.50476344 -175.08568946 492.51505057 -176.11179292 492.52564943 C-183.38041651 492.45363669 -188.72470526 490.87016246 -194.2421875 486.03515625 C-194.78101563 485.38417969 -195.31984375 484.73320312 -195.875 484.0625 C-196.42929688 483.41410156 -196.98359375 482.76570313 -197.5546875 482.09765625 C-200.82070139 477.35752258 -201.23166943 473.39431465 -201.125 467.6875 C-201.10695313 466.43324219 -201.08890625 465.17898438 -201.0703125 463.88671875 C-201.04710937 462.93410156 -201.02390625 461.98148437 -201 461 C-202.34578125 460.98598145 -202.34578125 460.98598145 -203.71875 460.97167969 C-207.08148339 460.92738749 -210.44299347 460.86565338 -213.80517578 460.79248047 C-215.25395216 460.76443964 -216.70287672 460.74314189 -218.15185547 460.72900391 C-227.46330138 460.63274499 -234.87445333 460.49155048 -242.2421875 454.03515625 C-242.78101563 453.38417969 -243.31984375 452.73320312 -243.875 452.0625 C-244.42929688 451.41410156 -244.98359375 450.76570313 -245.5546875 450.09765625 C-250.03412097 443.59642443 -249.67463728 436.62859083 -249 429 C-247.31914417 422.34040667 -242.53621678 417.81452553 -237 414 C-232.89530099 411.99460191 -229.45074078 411.72471246 -224.90625 411.65625 C-224.23710571 411.6416272 -223.56796143 411.62700439 -222.87854004 411.61193848 C-220.03493641 411.55008856 -217.19112369 411.51018894 -214.34716797 411.46826172 C-212.26247291 411.43436812 -210.17821774 411.38930185 -208.09375 411.34375 C-206.85302734 411.32505859 -205.61230469 411.30636719 -204.33398438 411.28710938 C-201.10721852 411.00923323 -198.86126784 410.48996897 -196 409 C-194.60064987 406.20129973 -194.74734595 404.09501208 -195 401 C-196.85342775 398.44050454 -197.93756393 398.02081202 -201 397 C-202.55250572 396.90505379 -204.10866983 396.86466967 -205.6640625 396.8581543 C-206.60934814 396.85111984 -207.55463379 396.84408539 -208.52856445 396.83683777 C-209.55038818 396.83267349 -210.57221191 396.82850922 -211.625 396.82421875 C-213.79818659 396.80100351 -215.97136368 396.77688551 -218.14453125 396.75195312 C-221.56305129 396.71698043 -224.98122599 396.68757415 -228.39990234 396.67407227 C-231.70452754 396.65847309 -235.00814532 396.61816994 -238.3125 396.57421875 C-239.31812988 396.57612717 -240.32375977 396.57803558 -241.35986328 396.58000183 C-252.62736491 396.3885427 -261.82486148 392.80424377 -270 385 C-278.80850953 375.77286823 -281.62574301 366.14955676 -281.47070312 353.63525391 C-281.00249528 341.80802493 -276.4516305 333.15892893 -267.93359375 325.02734375 C-257.23992789 316.01711724 -246.25709302 315.44827933 -232.8125 315.75 C-227.594375 315.8325 -222.37625 315.915 -217 316 C-217 305.44 -217 294.88 -217 284 C-222.28 284 -227.56 284 -233 284 C-235.29403038 273.87623923 -237.17672868 262.32574666 -231.77539062 252.85210419 C-223.77882009 241.3096647 -212.68947131 231.85516364 -202.40490723 222.41363525 C-198.37067349 218.67929164 -194.42004201 214.85854775 -190.4609375 211.04492188 C-182.71874464 203.61120673 -174.89046044 196.27592827 -167 189 C-167.92548645 188.99635437 -168.8509729 188.99270874 -169.80450439 188.98895264 C-178.57179887 188.95091869 -187.33872717 188.89389266 -196.10576248 188.81609726 C-200.61186321 188.7767665 -205.11777274 188.744508 -209.62402344 188.72900391 C-213.98148313 188.71374165 -218.33841663 188.67912925 -222.69564056 188.63169098 C-224.34916329 188.61697504 -226.00276119 188.60896467 -227.65634918 188.60811615 C-244.15446394 188.59115267 -256.35510802 185.18735601 -268.75 173.6875 C-278.66828025 163.20780766 -281.54321922 151.63773658 -281.48999023 137.61254883 C-281.04762533 123.11461401 -275.07565943 112.60684264 -264.6875 102.75 C-257.56472588 96.67931645 -250.1468688 93.62283156 -241 92 C-240.9175 90.7625 -240.835 89.525 -240.75 88.25 C-238.53361645 69.08127737 -227.42911614 53.95562046 -213.25 41.6875 C-196.20638073 28.70188532 -175.56392038 25.77937914 -154.68554688 28.27685547 C-143.55166802 30.15111158 -133.30655106 35.79563263 -124 42 C-121.10994826 41.16679128 -121.10994826 41.16679128 -118.0625 39.6875 C-112.6907913 37.25791676 -108.70532576 35.86799229 -102.796875 35.90234375 C-101.8171875 35.90556641 -100.8375 35.90878906 -99.828125 35.91210938 C-98.81234375 35.92048828 -97.7965625 35.92886719 -96.75 35.9375 C-95.203125 35.94426758 -95.203125 35.94426758 -93.625 35.95117188 C-91.08327427 35.96293912 -88.54166681 35.97937989 -86 36 C-85.55011719 35.12859375 -85.10023438 34.2571875 -84.63671875 33.359375 C-75.52607532 16.25698149 -62.6092882 3.14743041 -43.671875 -2.66162109 C-29.85800312 -6.19044937 -13.05287775 -5.9751593 0 0 Z " fill="#000100" transform="translate(289,12)"/>
<path d="M0 0 C10.73179246 6.99218893 18.7358834 16.92903578 21.93359375 29.49609375 C23.04066149 34.94689272 22.97033346 40.33465946 22.875 45.875 C22.86597656 46.88369141 22.85695313 47.89238281 22.84765625 48.93164062 C22.82433356 51.39218457 22.79160763 53.85220896 22.75 56.3125 C23.67039062 56.44785156 24.59078125 56.58320312 25.5390625 56.72265625 C40.06018116 59.19213366 52.41194425 64.31118415 61.75 76.3125 C69.74052361 88.82652301 72.87943202 101.22977427 70.0625 115.890625 C67.84865045 123.6759959 64.55304402 131.50945598 58.75 137.3125 C56.28860898 137.50679007 53.93981494 137.57573624 51.47753906 137.55732727 C50.71926158 137.55959184 49.9609841 137.56185642 49.17972851 137.56418961 C46.62494349 137.5695096 44.07039818 137.56063498 41.515625 137.55200195 C39.68921328 137.55311424 37.86280192 137.55517112 36.03639221 137.55810547 C32.09509295 137.5628378 28.15385319 137.56169687 24.21255493 137.55632973 C17.97588795 137.54873603 11.73933623 137.55935875 5.50268555 137.5735321 C-12.23503022 137.61131334 -29.97269505 137.62948032 -47.71044922 137.61791992 C-57.50080737 137.61169624 -67.29098043 137.62332524 -77.08129311 137.65436524 C-83.27559247 137.67299599 -89.46936669 137.66972202 -95.66365719 137.65019763 C-99.52869659 137.64329541 -103.39345403 137.65731433 -107.25844002 137.67714691 C-109.04417669 137.68217706 -110.82996141 137.67875376 -112.61565971 137.66601372 C-125.24272138 137.58237024 -134.34019443 139.00071169 -143.8125 148.0625 C-144.63878906 148.84109375 -145.46507812 149.6196875 -146.31640625 150.421875 C-147.29798091 151.38163689 -148.27927046 152.34177046 -149.25 153.3125 C-152.03253561 153.42902291 -154.79057612 153.48051839 -157.57421875 153.48950195 C-158.44748306 153.49607315 -159.32074738 153.50264435 -160.22047424 153.50941467 C-163.12615029 153.52920943 -166.03177434 153.54082783 -168.9375 153.55078125 C-169.92931274 153.55485678 -170.92112549 153.5589323 -171.94299316 153.56313133 C-177.19880975 153.58402468 -182.45460003 153.59830864 -187.71044922 153.60766602 C-193.1297694 153.6186992 -198.54867542 153.65305398 -203.96784973 153.69283772 C-208.14073423 153.71905026 -212.31352113 153.72736229 -216.48648071 153.73094749 C-218.48307065 153.73580643 -220.47965642 153.74740058 -222.47616577 153.76598549 C-225.28131255 153.7904611 -228.08540305 153.78939584 -230.890625 153.7824707 C-232.11610802 153.80168579 -232.11610802 153.80168579 -233.36634827 153.82128906 C-242.4248697 153.74029561 -250.8245293 149.67033416 -257.25 143.3125 C-263.96578524 134.16950192 -266.33666484 125.61381429 -265.25 114.3125 C-264.35767452 110.98655958 -263.03969012 108.24513863 -261.25 105.3125 C-260.82589844 104.61382812 -260.40179688 103.91515625 -259.96484375 103.1953125 C-255.17308766 96.12113219 -248.51596666 91.48457883 -240.25 89.3125 C-237.58212358 89.17775877 -235.03353559 89.12052139 -232.375 89.1875 C-231.68664062 89.19652344 -230.99828125 89.20554687 -230.2890625 89.21484375 C-228.60922162 89.23817487 -226.92956254 89.27403674 -225.25 89.3125 C-225.29640625 88.23613281 -225.3428125 87.15976563 -225.390625 86.05078125 C-225.8869985 69.57951707 -221.80151629 54.57036253 -210.28515625 42.21875 C-197.25325498 30.01228586 -182.57041648 24.52991368 -164.9453125 24.92578125 C-155.41295118 25.467971 -146.18849609 29.08470989 -138.25 34.3125 C-139.6381887 37.25413796 -141.2557878 39.84145726 -143.125 42.5 C-149.64194331 52.19594005 -152.17171838 61.81082941 -153.25 73.3125 C-147.97 73.3125 -142.69 73.3125 -137.25 73.3125 C-137.25 70.6725 -137.25 68.0325 -137.25 65.3125 C-134.07538852 54.07493723 -127.38406387 44.11396683 -117.23828125 38.125 C-107.1818797 32.91482625 -97.2840434 31.40290387 -86.3359375 34.65625 C-81.92531785 36.08214896 -77.58128978 37.66248484 -73.25 39.3125 C-73.22421875 38.70664063 -73.1984375 38.10078125 -73.171875 37.4765625 C-72.28035504 24.30638122 -66.1091263 13.32367914 -56.65625 4.234375 C-39.71132861 -9.29955572 -18.71275327 -10.33519757 0 0 Z " fill="#E5E8EC" transform="translate(289.25,30.6875)"/>
<path d="M0 0 C0.98820992 0.00424484 0.98820992 0.00424484 1.99638367 0.00857544 C4.08501937 0.01970326 6.17321431 0.04479302 8.26171875 0.0703125 C9.68423857 0.08035191 11.10676515 0.08947608 12.52929688 0.09765625 C16.00290748 0.11791054 19.47557414 0.15707054 22.94921875 0.1953125 C22.94921875 5.4753125 22.94921875 10.7553125 22.94921875 16.1953125 C17.66921875 16.1953125 12.38921875 16.1953125 6.94921875 16.1953125 C6.94921875 21.4753125 6.94921875 26.7553125 6.94921875 32.1953125 C9.72984741 32.1778875 9.72984741 32.1778875 12.56665039 32.16011047 C19.74705255 32.16188584 26.89859015 32.42592788 34.0703125 32.75854492 C35.43042143 32.81959031 36.79053932 32.8804363 38.15066528 32.94110107 C42.56292103 33.13928034 46.97484793 33.34422849 51.38671875 33.55078125 C52.14205273 33.58611284 52.8973867 33.62144444 53.67560959 33.65784669 C60.81879524 33.99249687 67.96183201 34.33020046 75.10456848 34.67431164 C84.18085768 35.11132856 93.25756924 35.53384312 102.33542919 35.93695372 C108.75443724 36.22322956 115.17252137 36.52635041 121.59016895 36.84163934 C125.40793652 37.0287444 129.2257085 37.20867612 133.04464722 37.37029076 C136.63768687 37.52268285 140.22912611 37.69616329 143.82043076 37.88496399 C145.74347632 37.98088516 147.66755237 38.05542781 149.59158325 38.12898254 C163.94726379 38.93115359 175.71750795 44.30110751 186.13671875 54.0703125 C198.43517278 65.21578646 212.7869093 70.5036325 229.25927734 70.37109375 C230.29249304 70.36648636 231.32570873 70.36187897 232.39023399 70.35713196 C246.67278154 70.23523095 260.94251828 69.58747738 275.2109952 68.98373795 C279.30679399 68.81166422 283.40284244 68.64575006 287.49887085 68.47924805 C296.10457488 68.12854317 304.71002631 67.7719362 313.31542969 67.41394043 C326.29445267 66.87405879 339.27367903 66.33913358 352.25312459 65.80951023 C357.09649912 65.61165748 361.93973581 65.41079068 366.78288007 65.2073822 C369.80336015 65.08105922 372.82393455 64.95710877 375.84453583 64.83372116 C377.88135284 64.74979549 379.91805116 64.66300399 381.95474243 64.57608032 C390.2977435 64.2382276 398.59952854 64.14791238 406.94921875 64.1953125 C406.94921875 58.9153125 406.94921875 53.6353125 406.94921875 48.1953125 C401.66921875 48.1953125 396.38921875 48.1953125 390.94921875 48.1953125 C390.94921875 42.9153125 390.94921875 37.6353125 390.94921875 32.1953125 C405.92260251 31.94365899 417.64820417 32.15532241 429.19921875 42.8828125 C437.00355866 51.10774558 439.28606452 60.07129643 439.1640625 71.1328125 C438.46230282 81.13607778 433.12420071 89.77735582 425.96875 96.58984375 C417.69116204 103.17028601 409.14717757 104.36024551 398.81079102 104.30883789 C398.02948318 104.30898392 397.24817535 104.30912994 396.44319153 104.3092804 C393.88397355 104.30858877 391.32483013 104.30083177 388.765625 104.29296875 C386.98201029 104.2911019 385.19839507 104.28967926 383.41477966 104.28868103 C378.73770717 104.28487685 374.0606661 104.27506463 369.38360596 104.26397705 C364.60404892 104.25371766 359.82448677 104.24917373 355.04492188 104.24414062 C345.67967375 104.23344036 336.31444887 104.21638932 326.94921875 104.1953125 C326.9649292 105.01209473 326.98063965 105.82887695 326.99682617 106.67041016 C327.05935815 110.38697327 327.09826819 114.10342546 327.13671875 117.8203125 C327.17442383 119.74810547 327.17442383 119.74810547 327.21289062 121.71484375 C327.22255859 122.95878906 327.23222656 124.20273437 327.2421875 125.484375 C327.25789795 126.62600098 327.2736084 127.76762695 327.28979492 128.94384766 C326.8370934 133.26576796 325.38818448 136.61769642 322.44921875 139.83984375 C318.42477408 142.97346082 315.67292701 144.31702276 310.61161232 144.33232689 C309.7204568 144.33740143 308.82930127 144.34247597 307.91114104 144.34770429 C306.93109835 144.34820205 305.95105565 144.34869981 304.9413147 144.34921265 C303.38080275 144.35578603 303.38080275 144.35578603 301.78876531 144.3624922 C298.28577013 144.37589887 294.78280012 144.38206321 291.27978516 144.38818359 C288.77517075 144.39608292 286.27055749 144.40435176 283.76594543 144.41296387 C276.23874939 144.43693303 268.71155458 144.45211189 261.18433243 144.46502393 C259.05882239 144.46873596 256.93331301 144.47270916 254.80780363 144.4767766 C241.61129945 144.50200871 228.41479423 144.52406374 215.21827126 144.53650475 C212.16211569 144.53943447 209.10596017 144.54239614 206.04980469 144.54541016 C205.29020598 144.54615621 204.53060727 144.54690226 203.74799041 144.54767092 C191.43598879 144.56033146 179.12413135 144.59356484 166.81219716 144.63521199 C154.17514839 144.67760906 141.53817351 144.70119702 128.90105379 144.70642531 C121.80431523 144.70984153 114.70780219 144.72162156 107.61113358 144.75452805 C100.93804443 144.78541977 94.26541761 144.79095807 87.5922451 144.77914429 C85.14001564 144.77892269 82.68776845 144.78729854 80.23560143 144.80479813 C76.89361782 144.82735416 73.55307913 144.81925671 70.21109009 144.80331421 C69.23550884 144.8171963 68.25992759 144.83107838 67.25478327 144.84538114 C62.6576787 144.79116216 60.60779055 144.69428773 56.84691429 141.84481239 C54.94921875 139.1953125 54.94921875 139.1953125 54.32421875 136.1953125 C54.96329163 133.12776267 55.74366352 131.39366786 58.03256226 129.23623657 C62.57775374 126.7677717 68.32333918 127.60459265 73.34375 127.70703125 C74.64624191 127.71410599 75.94873383 127.72118073 77.29069519 127.72846985 C80.74185759 127.74749737 84.19195614 127.79655811 87.6427002 127.85198975 C91.16855479 127.90327601 94.69458248 127.92600367 98.22070312 127.95117188 C105.13068759 128.00468387 112.03979246 128.09258303 118.94921875 128.1953125 C118.94921875 122.9153125 118.94921875 117.6353125 118.94921875 112.1953125 C117.61981766 112.20641556 116.29041656 112.21751862 114.92073059 112.22895813 C102.39892388 112.33026953 89.8772002 112.40524719 77.35507679 112.45437336 C70.91712693 112.48047867 64.47950764 112.51589502 58.04174805 112.57250977 C51.83015883 112.62679434 45.61888779 112.65672599 39.4070797 112.66969872 C37.03594643 112.67894484 34.66483078 112.69700021 32.29383278 112.72396278 C28.97520803 112.7602043 25.65790179 112.76525968 22.33911133 112.76293945 C20.86528236 112.78990402 20.86528236 112.78990402 19.36167908 112.81741333 C14.72917648 112.78231511 12.6319916 112.71073923 8.83891296 109.84733582 C6.94921875 107.1953125 6.94921875 107.1953125 6.32421875 104.1953125 C7.1704042 100.13362234 8.7509797 98.79066014 11.94921875 96.1953125 C15.20385742 95.59936523 15.20385742 95.59936523 18.8671875 95.62890625 C19.52447342 95.62327164 20.18175934 95.61763702 20.85896301 95.61183167 C22.95228136 95.59544989 25.04347647 95.61082415 27.13671875 95.6328125 C41.97437559 96.0388226 41.97437559 96.0388226 54.84594727 89.51831055 C59.68907316 84.37742949 62.08467952 78.82163328 62.38671875 71.7578125 C62.12702136 64.16426074 59.62045812 59.49525878 54.13671875 54.3203125 C47.62309028 48.54534292 39.84061438 48.91392642 31.609375 48.921875 C29.38996888 48.90159002 27.17056787 48.88073932 24.95117188 48.859375 C21.4775763 48.83677931 18.0041833 48.82029982 14.53051758 48.81445312 C11.16060457 48.8049046 7.79158634 48.77110612 4.421875 48.734375 C2.87621605 48.74194321 2.87621605 48.74194321 1.29933167 48.74966431 C-6.33765952 48.64607749 -11.71590427 47.10671303 -17.51171875 42.046875 C-23.45677918 35.13119245 -25.5877873 30.12149517 -25.3515625 20.93359375 C-24.4964931 13.14913081 -20.08268464 8.8492525 -14.3671875 3.859375 C-9.65620524 0.47509432 -5.75049636 -0.04894039 0 0 Z " fill="#68D5F2" transform="translate(49.05078125,343.8046875)"/>
<path d="M0 0 C22.80907932 -0.25706594 45.61791951 -0.45098803 68.42815399 -0.56993389 C79.0196528 -0.62663322 89.61025111 -0.70391892 100.20117188 -0.82983398 C109.4332847 -0.93954183 118.66474537 -1.01045579 127.89749193 -1.03497344 C132.78570834 -1.04930421 137.67205929 -1.08292813 142.55967712 -1.16303062 C147.16330533 -1.23786549 151.76430581 -1.26069703 156.3684845 -1.24418449 C158.05522972 -1.24720361 159.74206538 -1.26899484 161.42828369 -1.31126022 C174.16006121 -1.61465239 174.16006121 -1.61465239 178.73536682 2.40044212 C180.78548142 5.18386825 182.41918667 7.9314024 184 11 C184.85425475 12.26941789 185.72405249 13.52890897 186.625 14.765625 C187.41801326 15.92616433 188.2096502 17.08764516 189 18.25 C193.63193604 25.02437332 198.30852222 31.76673822 203 38.5 C207.94429251 45.59849265 212.87542174 52.70512857 217.76196289 59.84350586 C220.51602003 63.86041906 223.29613615 67.85819832 226.08984375 71.84765625 C226.80785156 72.87439453 227.52585937 73.90113281 228.265625 74.95898438 C229.68106626 76.98158883 231.09891868 79.00250873 232.51953125 81.02148438 C233.17179688 81.95412109 233.8240625 82.88675781 234.49609375 83.84765625 C235.36512329 85.0852771 235.36512329 85.0852771 236.25170898 86.34790039 C238.32297124 89.48993668 240.14361149 92.72631951 242 96 C219.53550943 98.93602955 197.06448323 100.85019012 174.4375 101.9375 C173.18773542 101.99928885 173.18773542 101.99928885 171.91272306 102.06232595 C129.99144935 104.07817193 94.69824417 102.34402488 62.34890389 73.32458138 C53.82011768 65.54921576 45.97186251 57.18587177 38.3125 48.5625 C37.80735918 47.99596128 37.30221835 47.42942256 36.78177023 46.845716 C0 5.51900524 0 5.51900524 0 0 Z " fill="#FBD66F" transform="translate(196,184)"/>
<path d="M0 0 C52.8 0 105.6 0 160 0 C160 32.01 160 64.02 160 97 C149.39339828 98.1785113 138.67187373 98 128 98 C128 78.86 128 59.72 128 40 C96.32 40 64.64 40 32 40 C32 60.79 32 81.58 32 103 C5 103 5 103 0 101 C0 67.67 0 34.34 0 0 Z " fill="#CBD0D8" transform="translate(264,296)"/>
<path d="M0 0 C52.8 0 105.6 0 160 0 C160 30.36 160 60.72 160 92 C152 86 152 86 149.48828125 84.05859375 C143.85008924 79.85778642 138.21507164 77.27999024 131.58984375 74.9453125 C129 74 129 74 128 73 C127.90629376 71.22008076 127.88255729 69.43643261 127.88647461 67.65405273 C127.88659546 66.49691772 127.88671631 65.33978271 127.88684082 64.14758301 C127.89195679 62.92196655 127.89707275 61.6963501 127.90234375 60.43359375 C127.90385437 58.754328 127.90385437 58.754328 127.90539551 57.0411377 C127.9106465 52.83991478 127.92460761 48.63870641 127.9375 44.4375 C127.958125 35.053125 127.97875 25.66875 128 16 C96.32 16 64.64 16 32 16 C32 32.83 32 49.66 32 67 C21.32812627 67 10.65544281 66.59196905 0 66 C0 44.22 0 22.44 0 0 Z " fill="#E5E8EC" transform="translate(88,296)"/>
<path d="M0 0 C3.75654908 2.19819491 6.48822309 4.7662694 9.52378845 7.85209656 C10.42994904 8.75519058 10.42994904 8.75519058 11.35441589 9.67652893 C13.34081008 11.65992631 15.31627502 13.65383288 17.29161072 15.64823914 C18.6781564 17.03784597 20.06529673 18.42685971 21.45300293 19.81530762 C24.35831188 22.72521366 27.25865088 25.63995073 30.15513611 28.55863953 C33.8512569 32.28296259 37.5559227 35.99863109 41.26393032 39.71111584 C44.81798013 43.27034776 48.36734352 46.83423918 51.91661072 50.39823914 C52.58645933 51.06996847 53.25630795 51.74169781 53.946455 52.43378258 C66.44817561 64.98084357 66.44817561 64.98084357 71.78469849 71.24954224 C73.8872707 73.68576273 76.1575984 75.93636618 78.44786072 78.19511414 C79.37276306 79.1122821 80.29766541 80.02945007 81.25059509 80.97441101 C82.20278081 81.91415628 83.15525812 82.85360619 84.10801697 83.79277039 C86.01582644 85.6740518 87.92024174 87.55856231 89.82286072 89.44511414 C90.65809265 90.26874451 91.49332458 91.09237488 92.35386658 91.94096375 C94.17051697 93.85527039 94.17051697 93.85527039 94.17051697 94.85527039 C71.18150547 97.10883358 71.18150547 97.10883358 65.08457947 92.24198914 C62.44599581 89.56776517 60.27542118 86.60139067 58.22862244 83.45732117 C56.86605373 81.39429028 55.27934476 79.61077359 53.60801697 77.79277039 C53.08079041 77.18304382 52.55356384 76.57331726 52.01036072 75.94511414 C49.60381541 73.2115648 47.137485 70.53413033 44.67051697 67.85527039 C41.07036373 63.94547857 37.52634033 59.99660503 34.04551697 55.98027039 C31.62501622 53.2370362 29.14851055 50.5464247 26.67051697 47.85527039 C23.07038941 43.94545443 19.52634091 39.99660571 16.04551697 35.98027039 C13.1586536 32.7084919 10.19816278 29.50405911 7.23277283 26.30351257 C3.91168414 22.70811059 0.75055795 19.01481045 -2.29432678 15.18339539 C-3.99533465 13.41908976 -3.99533465 13.41908976 -7.82948303 13.85527039 C-9.63821742 15.18801645 -9.63821742 15.18801645 -11.25526428 17.07402039 C-11.88754944 17.75980164 -12.51983459 18.44558289 -13.17127991 19.15214539 C-14.14677795 20.24269226 -14.14677795 20.24269226 -15.14198303 21.35527039 C-15.7807135 22.05136414 -16.41944397 22.74745789 -17.07752991 23.46464539 C-20.84620557 27.58842423 -24.52708917 31.78664093 -28.19740295 35.99784851 C-30.53349808 38.656489 -32.92772096 41.25571615 -35.32948303 43.85527039 C-38.36917299 47.15479815 -41.39106363 50.46478646 -44.32948303 53.85527039 C-47.73625653 57.78616288 -51.25951088 61.60723611 -54.78260803 65.43339539 C-57.89189759 68.81602908 -60.9356131 72.24540124 -63.94276428 75.71855164 C-66.88203082 79.0472862 -69.90082803 82.3031591 -72.92323303 85.55644226 C-75.06075164 87.86952075 -76.89541187 89.96820261 -78.48963928 92.69902039 C-81.76906609 95.7211299 -84.30697883 95.36953231 -88.64588928 95.29472351 C-89.61397522 95.25282898 -90.58206116 95.21093445 -91.57948303 95.16777039 C-93.05481506 95.1339325 -93.05481506 95.1339325 -94.55995178 95.09941101 C-96.98467774 95.04055844 -99.40630287 94.95840469 -101.82948303 94.85527039 C-102.24415486 91.49803064 -102.10725248 90.21740469 -100.01283264 87.48686218 C-99.17760071 86.68417908 -98.34236877 85.88149597 -97.48182678 85.05448914 C-96.56594788 84.15923523 -95.65006897 83.26398132 -94.70643616 82.34159851 C-93.72718889 81.40805707 -92.74736751 80.47511749 -91.76698303 79.54277039 C-89.87795894 77.71572384 -87.99119792 75.88633425 -86.10682678 74.05448914 C-85.26369934 73.24842224 -84.4205719 72.44235535 -83.55189514 71.61186218 C-81.54468242 69.57944905 -79.70055172 67.56227218 -77.85389709 65.39506531 C-72.2818738 58.96362307 -66.17357917 53.03483489 -60.16151428 47.01933289 C-58.83581464 45.69041504 -57.51018823 44.36142413 -56.18463135 43.03236389 C-53.42031188 40.2620875 -50.65396482 37.49385424 -47.8863678 34.72685242 C-44.3405147 31.18110149 -40.80162442 27.62848661 -37.26440907 24.07412148 C-34.53550128 21.33410769 -31.80207334 18.59863822 -29.06734276 15.8644371 C-27.75999501 14.55590992 -26.45426707 13.24576227 -25.1502018 11.93396378 C-23.3316128 10.10559045 -21.50681339 8.28364601 -19.68031311 6.46318054 C-19.14464722 5.92189514 -18.60898132 5.38060974 -18.05708313 4.82292175 C-12.54671421 -0.64124223 -7.71617863 -3.12174984 0 0 Z " fill="#F7D36D" transform="translate(173.82948303222656,185.1447296142578)"/>
<path d="M0 0 C3.11836333 1.37352928 5.11865428 2.91838973 7.42578125 5.4140625 C8.05806641 6.09339844 8.69035156 6.77273437 9.34179688 7.47265625 C9.99212891 8.18292969 10.64246094 8.89320313 11.3125 9.625 C12.2705957 10.65560547 12.2705957 10.65560547 13.24804688 11.70703125 C17.02749145 15.78898456 20.71661723 19.94157988 24.36791992 24.13818359 C26.70172194 26.80049836 29.09739155 29.39952968 31.5 32 C35.09237764 35.89946013 38.62975287 39.83709807 42.09765625 43.84765625 C43.6693723 45.62592225 45.26113172 47.37770657 46.87109375 49.12109375 C47.37640625 49.66830078 47.88171875 50.21550781 48.40234375 50.77929688 C49.41443653 51.87251159 50.42871327 52.96370903 51.4453125 54.05273438 C55 57.89119945 55 57.89119945 55 59 C19.36 59 -16.28 59 -53 59 C-49.2349374 54.60742696 -45.48398858 50.30271624 -41.5625 46.0625 C-38.50161727 42.74242962 -35.45719255 39.41324152 -32.5 36 C-29.0932265 32.0691075 -25.56997215 28.24803427 -22.046875 24.421875 C-18.9432451 21.04539852 -15.90539384 17.6218726 -12.90234375 14.15625 C-8.67847937 9.36862548 -4.32676456 4.69450042 0 0 Z " fill="#FDE8A6" transform="translate(167,221)"/>
<path d="M0 0 C21.12 0 42.24 0 64 0 C64 14.19 64 28.38 64 43 C58.31323577 43.94779404 52.92775421 44.34005202 47.1875 44.5625 C46.12539307 44.6049585 45.06328613 44.64741699 43.96899414 44.69116211 C29.31472839 45.21075761 14.66160382 45.06134562 0 45 C0 30.15 0 15.3 0 0 Z " fill="#4EC0E8" transform="translate(312,352)"/>
<path d="M0 0 C21.12 0 42.24 0 64 0 C64 12.87 64 25.74 64 39 C56.33181788 38.73663796 48.66376643 38.47118496 40.99584961 38.20043945 C38.38977245 38.10904639 35.7836526 38.01886183 33.17749023 37.92993164 C29.42159213 37.80155552 25.6658713 37.66876841 21.91015625 37.53515625 C20.75354996 37.49656998 19.59694366 37.4579837 18.4052887 37.41822815 C17.30482712 37.37826218 16.20436554 37.3382962 15.07055664 37.29711914 C14.11347305 37.26380997 13.15638947 37.23050079 12.17030334 37.19618225 C8.10177015 36.94441644 4.05138371 36.45015375 0 36 C0 24.12 0 12.24 0 0 Z " fill="#A8B0BB" transform="translate(136,328)"/>
<path d="M0 0 C4.35697918 -0.09264693 8.71044143 -0.17201841 13.06762695 -0.21972656 C14.54463378 -0.23964487 16.02156384 -0.26679007 17.49829102 -0.30175781 C27.9926734 -0.54374425 37.1337603 -0.063554 46.05078125 6.11328125 C47.17033203 7.20189453 47.17033203 7.20189453 48.3125 8.3125 C49.12847656 9.09496094 49.94445312 9.87742187 50.78515625 10.68359375 C53.16786959 13.17556731 55.39505596 15.72582197 57.453125 18.4921875 C62.31741346 23.23364039 67.73507264 23.46211318 74.1171875 23.51171875 C74.97434357 23.52966995 75.83149963 23.54762115 76.71463013 23.56611633 C79.43470436 23.62001405 82.1546052 23.65404858 84.875 23.6875 C86.72658652 23.72069126 88.57815022 23.75518259 90.4296875 23.79101562 C94.95299948 23.87572852 99.47626186 23.9426372 104 24 C104 29.28 104 34.56 104 40 C98.62893641 40.07473651 93.25818247 40.12887661 87.88671875 40.16479492 C86.06342285 40.17978489 84.2401624 40.20018384 82.41699219 40.22631836 C57.1549987 40.57910085 57.1549987 40.57910085 47 31 C44.47067792 28.20695714 41.99863432 25.38604428 39.58984375 22.48828125 C34.59176047 17.68620123 29.52211975 16.63352188 22.75390625 16.48828125 C22.09792953 16.47033005 21.44195282 16.45237885 20.76609802 16.43388367 C18.69829488 16.38027847 16.63071562 16.34604907 14.5625 16.3125 C13.14905769 16.27928257 11.73564477 16.24478889 10.32226562 16.20898438 C6.88148721 16.12220815 3.44168083 16.06172464 0 16 C0 10.72 0 5.44 0 0 Z " fill="#000101" transform="translate(208,432)"/>
<path d="M0 0 C0 5.28 0 10.56 0 16 C-1.32 16.20625 -2.64 16.4125 -4 16.625 C-11.37164213 18.28246042 -16.87923826 22.81381403 -21.03515625 29.0546875 C-22.77796704 32.56853273 -23.34808 36.14774545 -24 40 C-29.28 40 -34.56 40 -40 40 C-40 28.04213648 -35.71052223 18.80548245 -27.34375 10.3203125 C-19.34769261 3.0148237 -10.78054423 0 0 0 Z " fill="#030303" transform="translate(120,72)"/>
<path d="M0 0 C8.61840441 0.28728015 16.31714879 2.9994804 22.95703125 8.671875 C29.13707286 15.49338928 32 22.86900522 32 32 C26.72 32 21.44 32 16 32 C15.62875 30.618125 15.2575 29.23625 14.875 27.8125 C13.19132907 22.80869295 11.45369198 20.82638145 7 18 C4.69 17.34 2.38 16.68 0 16 C0 10.72 0 5.44 0 0 Z " fill="#030303" transform="translate(264,40)"/>
</svg>
