<?xml version="1.0" encoding="UTF-8"?>
<svg version="1.1" xmlns="http://www.w3.org/2000/svg" width="512" height="512">
<path d="M0 0 C12.57106679 10.03010648 23.82487781 22.44161087 27.9375 38.34375 C28.65292969 38.43011719 29.36835938 38.51648437 30.10546875 38.60546875 C48.53594061 41.20433218 62.97437705 49.4178774 75.9375 62.34375 C76.6078125 62.99085937 77.278125 63.63796875 77.96875 64.3046875 C81.81811445 68.31152596 84.52759418 72.81497849 87.1875 77.65625 C87.51717773 78.24825195 87.84685547 78.84025391 88.18652344 79.45019531 C92.93333825 88.50169582 94.46092836 97.64291092 94.3125 107.78125 C94.29727295 109.29392456 94.29727295 109.29392456 94.28173828 110.8371582 C93.86219145 130.96727532 84.92189393 146.07829592 70.734375 159.921875 C57.89700223 171.03803578 40.09844926 178.8362848 22.9375 178.34375 C22.69644531 178.90578125 22.45539063 179.4678125 22.20703125 180.046875 C15.17511743 192.76922986 -0.73496154 200.98338891 -14.0625 205.34375 C-16.78303863 205.90720004 -19.28113471 206.18328662 -22.0625 206.34375 C-22.01609375 207.04757813 -21.9696875 207.75140625 -21.921875 208.4765625 C-21.28336925 225.94425558 -28.51473449 241.55376051 -40.0859375 254.30078125 C-53.67007694 268.55656609 -71.84205135 276.16524802 -91.36132812 276.74316406 C-103.43745005 276.89577869 -114.67275895 275.80979466 -125.75 270.64453125 C-128.80099672 269.18983545 -128.80099672 269.18983545 -131.1953125 269.4296875 C-133.70723236 270.65937212 -135.73959615 272.23848527 -137.9375 273.96875 C-160.81318074 290.92830641 -191.03884729 296.63668421 -218.98828125 292.734375 C-223.04725882 292.07657369 -227.0503905 291.24263792 -231.0625 290.34375 C-232.06667969 290.13105469 -233.07085937 289.91835938 -234.10546875 289.69921875 C-236.0961992 289.27020862 -238.0806752 288.81218132 -240.0625 288.34375 C-242.0425 293.95375 -244.0225 299.56375 -246.0625 305.34375 C-241.87046875 305.38242187 -241.87046875 305.38242187 -237.59375 305.421875 C-234.86643702 305.46036342 -232.13930878 305.50550165 -229.41210938 305.55126953 C-227.52678346 305.57937497 -225.64134201 305.60064106 -223.75585938 305.61474609 C-221.034559 305.63632089 -218.31463269 305.68304349 -215.59375 305.734375 C-214.34325867 305.73621796 -214.34325867 305.73621796 -213.06750488 305.73809814 C-206.24824682 305.90613373 -201.08697904 307.83564543 -195.8203125 312.203125 C-190.5477753 318.30816807 -188.7604094 323.16300055 -189.0625 331.21875 C-190.60997355 342.23409939 -199.48873189 350.92695653 -206.15234375 359.37109375 C-210.15575089 364.44610471 -214.08629042 369.57437712 -218 374.71875 C-218.66515625 375.59249268 -219.3303125 376.46623535 -220.015625 377.36645508 C-225.32340216 384.34959566 -230.58644557 391.36579612 -235.84179688 398.38842773 C-239.96992122 403.90043682 -244.14060865 409.37516053 -248.3515625 414.82421875 C-251.18304198 418.49251903 -253.99070637 422.17884108 -256.79760742 425.8659668 C-258.1789951 427.6798397 -259.56196327 429.49251008 -260.9465332 431.30395508 C-264.25428124 435.63464541 -267.54031926 439.97754536 -270.76953125 444.3671875 C-271.34791748 445.14545898 -271.92630371 445.92373047 -272.5222168 446.72558594 C-273.59994526 448.17730403 -274.66848171 449.63591079 -275.72583008 451.10253906 C-278.73598213 455.13341222 -281.20907776 457.53535158 -286.0625 459.34375 C-291.30205679 459.90513108 -294.63027353 459.20007372 -299.0625 456.34375 C-303.11764795 452.50779924 -303.88641134 448.76108745 -304.0625 443.34375 C-303.66297316 440.66789562 -303.19710804 438.24053647 -302.52368164 435.64257812 C-302.3482634 434.91964569 -302.17284515 434.19671326 -301.99211121 433.45187378 C-301.41543556 431.08945904 -300.81927529 428.73244923 -300.22265625 426.375 C-299.81644507 424.72763535 -299.41147004 423.07996543 -299.00767517 421.43200684 C-297.94643487 417.11516396 -296.86854768 412.80264996 -295.78704834 408.49084473 C-294.68446541 404.08234267 -293.59780434 399.66992214 -292.50976562 395.2578125 C-290.37617327 386.6159001 -288.22496006 377.97848053 -286.0625 369.34375 C-287.68091797 369.32973145 -287.68091797 369.32973145 -289.33203125 369.31542969 C-293.36547938 369.27531792 -297.39818163 369.20950227 -301.43115234 369.13623047 C-303.17096314 369.10814297 -304.91089865 369.08686806 -306.65087891 369.07275391 C-309.1637297 369.05115347 -311.67510033 369.00442014 -314.1875 368.953125 C-315.33955933 368.95128204 -315.33955933 368.95128204 -316.51489258 368.94940186 C-323.33482853 368.76771259 -328.75056416 366.77424665 -333.5 361.78125 C-336.83086148 356.58510609 -336.81257413 351.32331291 -336.0625 345.34375 C-335.31340921 342.58463351 -334.35773294 339.94091165 -333.3125 337.28125 C-333.06040771 336.62608398 -332.80831543 335.97091797 -332.54858398 335.29589844 C-331.39382369 332.54924689 -330.50080422 330.65140584 -328.03125 328.91796875 C-325.63916105 328.22027614 -323.54074919 328.20606949 -321.0625 328.34375 C-320.794375 327.065 -320.52625 325.78625 -320.25 324.46875 C-319.1173104 319.34312583 -317.63048699 314.35085512 -316.0625 309.34375 C-316.536875 308.993125 -317.01125 308.6425 -317.5 308.28125 C-319.85419191 305.36205204 -319.90619979 303.06064514 -320.0625 299.34375 C-319.50720193 296.59178816 -318.61139779 294.03063473 -317.625 291.40625 C-317.38201172 290.72240234 -317.13902344 290.03855469 -316.88867188 289.33398438 C-316.29366036 287.66561876 -315.6799917 286.00392666 -315.0625 284.34375 C-315.99707031 284.37855469 -316.93164062 284.41335938 -317.89453125 284.44921875 C-343.78437222 284.98276798 -369.11786868 278.53211749 -389.0625 261.34375 C-389.78566406 260.77527344 -390.50882812 260.20679688 -391.25390625 259.62109375 C-405.46930524 247.9768278 -414.76632418 230.25555879 -418.0625 212.34375 C-418.46941358 208.06205234 -418.54133978 203.83026637 -418.5 199.53125 C-418.49025146 198.39051025 -418.48050293 197.24977051 -418.47045898 196.07446289 C-418.05257441 176.15057638 -410.43244237 158.25200748 -396.0625 144.34375 C-395.55332031 143.78042969 -395.04414063 143.21710938 -394.51953125 142.63671875 C-392.00740285 140.40745736 -389.30986845 140.51466413 -386.0625 140.34375 C-383.83984375 141.33203125 -383.83984375 141.33203125 -382.0625 142.34375 C-381.54300781 141.94542969 -381.02351563 141.54710937 -380.48828125 141.13671875 C-370.23038321 133.34375 -370.23038321 133.34375 -367.0625 133.34375 C-367.145 132.10625 -367.2275 130.86875 -367.3125 129.59375 C-367.50610303 126.68970448 -367.27095618 125.63131262 -365.5390625 123.2421875 C-362.33433616 120.78556762 -359.0246743 119.76404626 -355.1875 118.71875 C-354.43662109 118.50710205 -353.68574219 118.2954541 -352.91210938 118.07739258 C-343.07437876 115.40278555 -333.26174945 113.99205174 -323.0625 114.34375 C-322.98773438 113.5909375 -322.91296875 112.838125 -322.8359375 112.0625 C-320.47077366 92.95568625 -312.28652276 78.18727653 -299.0625 64.34375 C-298.25232422 63.42142578 -298.25232422 63.42142578 -297.42578125 62.48046875 C-285.03073913 48.89899942 -263.40559554 39.21920976 -245.23852539 38.18261719 C-241.86709945 38.1366274 -238.49675137 38.10310963 -235.125 38.09375 C-233.30524658 38.08782837 -233.30524658 38.08782837 -231.44873047 38.08178711 C-223.82416987 38.13139022 -217.00719816 38.65052379 -209.6640625 40.78515625 C-205.6761904 41.64141107 -203.20190746 41.06705985 -199.7734375 38.890625 C-199.00257813 38.29765625 -198.23171875 37.7046875 -197.4375 37.09375 C-185.31776486 28.33163037 -172.33381984 24.80564141 -157.5 24.96875 C-155.91155273 24.95134766 -155.91155273 24.95134766 -154.29101562 24.93359375 C-147.40076525 24.95906602 -141.53160957 25.96690043 -135.0625 28.34375 C-134.80597656 27.62703125 -134.54945313 26.9103125 -134.28515625 26.171875 C-127.03474912 9.40096523 -110.34324797 -2.65054581 -94.1875 -10.03125 C-63.13410637 -22.17657729 -27.50963511 -19.43615524 0 0 Z " fill="#807F7E" transform="translate(418.0625,16.65625)"/>
<path d="M0 0 C12.57106679 10.03010648 23.82487781 22.44161087 27.9375 38.34375 C28.65292969 38.43011719 29.36835938 38.51648437 30.10546875 38.60546875 C48.53594061 41.20433218 62.97437705 49.4178774 75.9375 62.34375 C76.6078125 62.99085937 77.278125 63.63796875 77.96875 64.3046875 C81.81811445 68.31152596 84.52759418 72.81497849 87.1875 77.65625 C87.51717773 78.24825195 87.84685547 78.84025391 88.18652344 79.45019531 C92.93333825 88.50169582 94.46092836 97.64291092 94.3125 107.78125 C94.29727295 109.29392456 94.29727295 109.29392456 94.28173828 110.8371582 C93.86219145 130.96727532 84.92189393 146.07829592 70.734375 159.921875 C57.89700223 171.03803578 40.09844926 178.8362848 22.9375 178.34375 C22.69644531 178.90578125 22.45539063 179.4678125 22.20703125 180.046875 C15.17511743 192.76922986 -0.73496154 200.98338891 -14.0625 205.34375 C-16.78303863 205.90720004 -19.28113471 206.18328662 -22.0625 206.34375 C-22.01609375 207.04757813 -21.9696875 207.75140625 -21.921875 208.4765625 C-21.28336925 225.94425558 -28.51473449 241.55376051 -40.0859375 254.30078125 C-53.67007694 268.55656609 -71.84205135 276.16524802 -91.36132812 276.74316406 C-103.43745005 276.89577869 -114.67275895 275.80979466 -125.75 270.64453125 C-128.80099672 269.18983545 -128.80099672 269.18983545 -131.1953125 269.4296875 C-133.70723236 270.65937212 -135.73959615 272.23848527 -137.9375 273.96875 C-160.81318074 290.92830641 -191.03884729 296.63668421 -218.98828125 292.734375 C-223.04725882 292.07657369 -227.0503905 291.24263792 -231.0625 290.34375 C-232.06667969 290.13105469 -233.07085937 289.91835938 -234.10546875 289.69921875 C-236.0961992 289.27020862 -238.0806752 288.81218132 -240.0625 288.34375 C-242.0425 293.95375 -244.0225 299.56375 -246.0625 305.34375 C-241.87046875 305.38242187 -241.87046875 305.38242187 -237.59375 305.421875 C-234.86643702 305.46036342 -232.13930878 305.50550165 -229.41210938 305.55126953 C-227.52678346 305.57937497 -225.64134201 305.60064106 -223.75585938 305.61474609 C-221.034559 305.63632089 -218.31463269 305.68304349 -215.59375 305.734375 C-214.34325867 305.73621796 -214.34325867 305.73621796 -213.06750488 305.73809814 C-206.24824682 305.90613373 -201.08697904 307.83564543 -195.8203125 312.203125 C-190.5477753 318.30816807 -188.7604094 323.16300055 -189.0625 331.21875 C-190.60997355 342.23409939 -199.48873189 350.92695653 -206.15234375 359.37109375 C-210.15575089 364.44610471 -214.08629042 369.57437712 -218 374.71875 C-218.66515625 375.59249268 -219.3303125 376.46623535 -220.015625 377.36645508 C-225.32340216 384.34959566 -230.58644557 391.36579612 -235.84179688 398.38842773 C-239.96992122 403.90043682 -244.14060865 409.37516053 -248.3515625 414.82421875 C-251.18304198 418.49251903 -253.99070637 422.17884108 -256.79760742 425.8659668 C-258.1789951 427.6798397 -259.56196327 429.49251008 -260.9465332 431.30395508 C-264.25428124 435.63464541 -267.54031926 439.97754536 -270.76953125 444.3671875 C-271.34791748 445.14545898 -271.92630371 445.92373047 -272.5222168 446.72558594 C-273.59994526 448.17730403 -274.66848171 449.63591079 -275.72583008 451.10253906 C-278.73598213 455.13341222 -281.20907776 457.53535158 -286.0625 459.34375 C-291.30205679 459.90513108 -294.63027353 459.20007372 -299.0625 456.34375 C-303.11764795 452.50779924 -303.88641134 448.76108745 -304.0625 443.34375 C-303.66297316 440.66789562 -303.19710804 438.24053647 -302.52368164 435.64257812 C-302.3482634 434.91964569 -302.17284515 434.19671326 -301.99211121 433.45187378 C-301.41543556 431.08945904 -300.81927529 428.73244923 -300.22265625 426.375 C-299.81644507 424.72763535 -299.41147004 423.07996543 -299.00767517 421.43200684 C-297.94643487 417.11516396 -296.86854768 412.80264996 -295.78704834 408.49084473 C-294.68446541 404.08234267 -293.59780434 399.66992214 -292.50976562 395.2578125 C-290.37617327 386.6159001 -288.22496006 377.97848053 -286.0625 369.34375 C-287.68091797 369.32973145 -287.68091797 369.32973145 -289.33203125 369.31542969 C-293.36547938 369.27531792 -297.39818163 369.20950227 -301.43115234 369.13623047 C-303.17096314 369.10814297 -304.91089865 369.08686806 -306.65087891 369.07275391 C-309.1637297 369.05115347 -311.67510033 369.00442014 -314.1875 368.953125 C-315.33955933 368.95128204 -315.33955933 368.95128204 -316.51489258 368.94940186 C-323.33482853 368.76771259 -328.75056416 366.77424665 -333.5 361.78125 C-336.83086148 356.58510609 -336.81257413 351.32331291 -336.0625 345.34375 C-335.31340921 342.58463351 -334.35773294 339.94091165 -333.3125 337.28125 C-333.06040771 336.62608398 -332.80831543 335.97091797 -332.54858398 335.29589844 C-331.39382369 332.54924689 -330.50080422 330.65140584 -328.03125 328.91796875 C-325.63916105 328.22027614 -323.54074919 328.20606949 -321.0625 328.34375 C-320.794375 327.065 -320.52625 325.78625 -320.25 324.46875 C-319.1173104 319.34312583 -317.63048699 314.35085512 -316.0625 309.34375 C-316.536875 308.993125 -317.01125 308.6425 -317.5 308.28125 C-319.85419191 305.36205204 -319.90619979 303.06064514 -320.0625 299.34375 C-319.50720193 296.59178816 -318.61139779 294.03063473 -317.625 291.40625 C-317.38201172 290.72240234 -317.13902344 290.03855469 -316.88867188 289.33398438 C-316.29366036 287.66561876 -315.6799917 286.00392666 -315.0625 284.34375 C-315.99707031 284.37855469 -316.93164062 284.41335938 -317.89453125 284.44921875 C-343.78437222 284.98276798 -369.11786868 278.53211749 -389.0625 261.34375 C-389.78566406 260.77527344 -390.50882812 260.20679688 -391.25390625 259.62109375 C-405.46930524 247.9768278 -414.76632418 230.25555879 -418.0625 212.34375 C-418.46941358 208.06205234 -418.54133978 203.83026637 -418.5 199.53125 C-418.49025146 198.39051025 -418.48050293 197.24977051 -418.47045898 196.07446289 C-418.05257441 176.15057638 -410.43244237 158.25200748 -396.0625 144.34375 C-395.29679687 143.50457031 -395.29679687 143.50457031 -394.515625 142.6484375 C-391.90397077 140.30356515 -389.46313551 140.34375 -386.0625 140.34375 C-383.125 142.40625 -383.125 142.40625 -381.0625 145.34375 C-380.47653857 149.30309687 -380.73983027 150.87696296 -383.0390625 154.203125 C-383.91304688 155.15703125 -384.78703125 156.1109375 -385.6875 157.09375 C-386.61524807 158.15226108 -387.53841474 159.21480455 -388.45703125 160.28125 C-388.90643066 160.80203125 -389.35583008 161.3228125 -389.81884766 161.859375 C-400.37971451 174.46441435 -403.74379462 190.78543971 -402.39208984 206.83886719 C-400.77981707 219.09214025 -395.56540531 229.65446348 -388.0625 239.34375 C-387.64355469 239.9315625 -387.22460938 240.519375 -386.79296875 241.125 C-378.41411966 252.25732246 -364.76883756 259.34367517 -351.875 263.71875 C-351.13894531 263.96963379 -350.40289062 264.22051758 -349.64453125 264.47900391 C-341.321443 267.14499311 -333.12372355 267.51078011 -324.4375 267.46875 C-323.22707031 267.47455078 -323.22707031 267.47455078 -321.9921875 267.48046875 C-321.198125 267.47917969 -320.4040625 267.47789062 -319.5859375 267.4765625 C-318.532854 267.47487061 -318.532854 267.47487061 -317.45849609 267.47314453 C-314.30854313 267.30303295 -311.18533826 266.78986975 -308.0625 266.34375 C-305.0925 257.43375 -302.1225 248.52375 -299.0625 239.34375 C-300.7125 238.68375 -302.3625 238.02375 -304.0625 237.34375 C-308.89972205 234.21971076 -313.12139601 230.52370877 -317.0625 226.34375 C-317.3925 226.01375 -317.7225 225.68375 -318.0625 225.34375 C-317.61438679 219.2942217 -317.61438679 219.2942217 -315.9375 216.40625 C-312.62504105 214.52918993 -310.84080765 214.68404549 -307.0625 215.34375 C-304.59668761 217.10439464 -302.36398588 219.0681026 -300.06640625 221.04296875 C-282.72003262 234.32907287 -261.30600364 237.10946284 -240.0625 235.34375 C-231.5250504 233.95110518 -223.52059535 231.33277772 -215.94189453 227.17700195 C-212.41640899 225.61393594 -209.87506429 225.77186536 -206.0625 226.34375 C-203.5 228.46875 -203.5 228.46875 -202.0625 231.34375 C-202 234.40625 -202 234.40625 -203.0625 237.34375 C-206.42591182 240.43832784 -209.70398808 242.24033557 -213.9375 243.90625 C-214.92492187 244.29941406 -215.91234375 244.69257813 -216.9296875 245.09765625 C-220.0625 246.34375 -220.0625 246.34375 -223.69921875 247.37109375 C-228.65904243 250.28016571 -229.39785155 254.01576219 -231 259.34375 C-231.30228516 260.25898438 -231.60457031 261.17421875 -231.91601562 262.1171875 C-233.56103653 267.1308324 -233.56103653 267.1308324 -234.0625 272.34375 C-232.58683205 272.8335855 -231.10667897 273.3099092 -229.625 273.78125 C-228.80128906 274.04808594 -227.97757813 274.31492187 -227.12890625 274.58984375 C-201.52105112 280.88578775 -174.35042807 276.18123621 -151.6875 263.46875 C-135.90063347 253.46597911 -126.59592846 239.09290815 -121.01953125 221.5234375 C-120.0625 219.34375 -120.0625 219.34375 -117.0625 217.34375 C-110.91577135 217.67303904 -110.91577135 217.67303904 -108.3828125 219.6640625 C-106.4704465 222.09695415 -106.41697649 224.4032306 -106.515625 227.421875 C-108.4365984 237.68536142 -114.40912054 247.72907653 -120.0625 256.34375 C-99.11879143 262.73529049 -82.26039401 261.44244394 -62.76171875 251.4765625 C-51.78021124 245.46160143 -44.12372583 234.3949069 -40.16015625 222.67578125 C-36.35034478 209.38533296 -36.89434539 196.09443263 -43.44140625 183.7421875 C-44.31656944 182.25116873 -45.19394922 180.76144729 -46.07421875 179.2734375 C-47.52605324 176.43863023 -47.71169788 174.4454732 -47.0625 171.34375 C-44.97139337 168.28751723 -43.76943151 167.47911986 -40.125 166.78125 C-35.99882953 167.53911805 -34.80998414 169.20798853 -32.0625 172.34375 C-30.68981394 174.67839716 -29.47060539 176.91328666 -28.3125 179.34375 C-27.85810547 180.24867188 -27.85810547 180.24867188 -27.39453125 181.171875 C-25.75085061 184.53228875 -24.59598266 187.6374494 -24.0625 191.34375 C-5.21478943 184.39985663 8.35826673 175.88217811 17.41796875 157.30859375 C20.30272426 150.48162103 21.66764051 144.0821963 22.04223633 136.72387695 C22.31621667 133.05254039 22.71213026 131.5713149 25.34375 128.9140625 C28.32007449 127.11213111 29.53962811 126.57922882 32.9375 127.34375 C35.75 129.21875 35.75 129.21875 37.9375 132.34375 C39.82616986 141.84005264 35.99824319 152.45428718 32.9375 161.34375 C50.02486709 155.04840423 64.5399634 147.33817124 72.9375 130.34375 C74.42514196 126.72207853 75.72943266 123.06707551 76.9375 119.34375 C77.2675 118.35375 77.5975 117.36375 77.9375 116.34375 C79.01854102 99.5668249 75.52331841 87.07602301 64.90625 73.8046875 C55.73949421 63.85123252 43.831113 58.59928019 30.9375 55.34375 C30.98390625 56.20355469 31.0303125 57.06335938 31.078125 57.94921875 C31.35850969 67.13181743 31.06257956 77.25251128 25.01953125 84.7109375 C22.9375 86.34375 22.9375 86.34375 19.375 86.34375 C15.9375 85.34375 15.9375 85.34375 14 83.71875 C12.1582767 79.60195674 12.37276912 75.86830016 13.92578125 71.67578125 C17.34384547 60.4186045 15.59227934 48.22353874 10.7734375 37.71484375 C1.34853052 20.40911029 -11.86101672 10.3062085 -30.0625 3.34375 C-30.87460937 2.99183594 -31.68671875 2.63992187 -32.5234375 2.27734375 C-50.78469724 -4.43718098 -73.42029755 -1.23686246 -90.6015625 6.54296875 C-106.90065722 15.02364896 -116.60006347 26.3623155 -124.921875 42.56640625 C-126.0625 44.34375 -126.0625 44.34375 -129.0625 46.34375 C-133.77653031 46.0664541 -137.75652775 44.85245218 -142.0703125 43.0625 C-155.02534129 38.38852883 -169.83154628 40.93654132 -182.0625 46.34375 C-185.74194583 48.17759416 -185.74194583 48.17759416 -188.0625 51.34375 C-187.33546875 51.60027344 -186.6084375 51.85679688 -185.859375 52.12109375 C-171.68304495 58.31828831 -158.88545238 74.26122112 -152.77734375 88.296875 C-152.54144531 88.97234375 -152.30554688 89.6478125 -152.0625 90.34375 C-151.06283203 90.10205078 -151.06283203 90.10205078 -150.04296875 89.85546875 C-133.91545895 87.08652539 -116.50841875 90.45657253 -102.875 99.53125 C-90.79118176 108.65776426 -81.63222487 119.3842458 -78.4375 134.40625 C-77.72919325 137.64394212 -77.72919325 137.64394212 -76.0625 140.34375 C-72.40048407 142.35323166 -69.33212574 143.32504822 -65.27734375 144.31640625 C-62.0625 145.34375 -62.0625 145.34375 -60.125 147.2421875 C-58.45297009 150.54936431 -59.11023334 152.85210556 -60.0625 156.34375 C-62.161725 158.75397129 -63.49335365 159.24657867 -66.625 159.78125 C-70.79205079 159.25089808 -74.30407644 157.89193075 -78.18359375 156.31640625 C-90.267464 152.23379608 -106.1854991 153.09918247 -118.0625 157.34375 C-118.74570312 157.69824219 -119.42890625 158.05273438 -120.1328125 158.41796875 C-123.38893893 159.98011848 -126.54501018 160.04149338 -130.0625 159.34375 C-132.625 157.21875 -132.625 157.21875 -134.0625 154.34375 C-134.13818042 150.6354094 -133.64362977 149.00236373 -131.1875 146.21875 C-126.70507819 143.52929692 -122.02351381 141.9408855 -117.0625 140.34375 C-115.845625 139.93125 -114.62875 139.51875 -113.375 139.09375 C-106.84396758 137.52630222 -99.72864919 138.19813024 -93.0625 138.34375 C-98.11971573 125.76020734 -105.0403425 115.42990355 -117.625 109.46875 C-119.42503607 108.72931609 -121.23695632 108.01775492 -123.0625 107.34375 C-123.72894531 107.09753906 -124.39539063 106.85132812 -125.08203125 106.59765625 C-133.46836512 104.03761749 -142.68236326 104.75988051 -151.06640625 106.8828125 C-154.18756044 107.60354869 -156.88737256 107.7172944 -160.0625 107.34375 C-163.45544634 104.57412903 -164.80472958 101.98733926 -166.25 97.90625 C-173.39072308 79.93359929 -187.22734324 67.31340323 -204.78613281 59.68041992 C-222.91819155 52.2976826 -243.94457459 51.57521839 -262.11474609 59.20556641 C-270.49524258 62.92485898 -278.21898229 67.17172567 -285.0625 73.34375 C-285.94228516 74.08625 -285.94228516 74.08625 -286.83984375 74.84375 C-299.02346177 85.8946507 -305.07913231 101.33218794 -307.0625 117.34375 C-306.08667969 117.28703125 -305.11085938 117.2303125 -304.10546875 117.171875 C-299.52334986 117.17648826 -295.64175028 118.53539345 -291.375 120.09375 C-290.25641602 120.47273438 -290.25641602 120.47273438 -289.11523438 120.859375 C-284.93386935 122.3513875 -281.83550472 123.70373347 -279.0625 127.34375 C-278.46225523 130.94521865 -278.60687518 132.62234404 -280.5625 135.71875 C-284.1774878 138.06849207 -286.95039876 138.08355832 -291.0625 137.34375 C-294.85688558 136.18262654 -298.5579616 134.9079233 -302.28125 133.53515625 C-318.08699002 128.55504188 -337.60164066 129.83623358 -353.0625 135.34375 C-356.65514452 136.54129817 -359.28967474 136.67469958 -363.0625 136.34375 C-365.5 134.78125 -365.5 134.78125 -367.0625 132.34375 C-367.5996043 128.58401987 -367.84666801 126.3906342 -365.5234375 123.2890625 C-362.3382768 120.7712688 -359.04111659 119.76852535 -355.1875 118.71875 C-354.43662109 118.50710205 -353.68574219 118.2954541 -352.91210938 118.07739258 C-343.07437876 115.40278555 -333.26174945 113.99205174 -323.0625 114.34375 C-322.98773438 113.5909375 -322.91296875 112.838125 -322.8359375 112.0625 C-320.47077366 92.95568625 -312.28652276 78.18727653 -299.0625 64.34375 C-298.25232422 63.42142578 -298.25232422 63.42142578 -297.42578125 62.48046875 C-285.03073913 48.89899942 -263.40559554 39.21920976 -245.23852539 38.18261719 C-241.86709945 38.1366274 -238.49675137 38.10310963 -235.125 38.09375 C-233.30524658 38.08782837 -233.30524658 38.08782837 -231.44873047 38.08178711 C-223.82416987 38.13139022 -217.00719816 38.65052379 -209.6640625 40.78515625 C-205.6761904 41.64141107 -203.20190746 41.06705985 -199.7734375 38.890625 C-199.00257813 38.29765625 -198.23171875 37.7046875 -197.4375 37.09375 C-185.31776486 28.33163037 -172.33381984 24.80564141 -157.5 24.96875 C-155.91155273 24.95134766 -155.91155273 24.95134766 -154.29101562 24.93359375 C-147.40076525 24.95906602 -141.53160957 25.96690043 -135.0625 28.34375 C-134.80597656 27.62703125 -134.54945313 26.9103125 -134.28515625 26.171875 C-127.03474912 9.40096523 -110.34324797 -2.65054581 -94.1875 -10.03125 C-63.13410637 -22.17657729 -27.50963511 -19.43615524 0 0 Z " fill="#010101" transform="translate(418.0625,16.65625)"/>
<path d="M0 0 C3.50244346 2.84110595 6.78204726 5.8418403 10 9 C10.639375 9.61488281 11.27875 10.22976562 11.9375 10.86328125 C21.10906066 20.42381435 26.37244003 33.37850964 26.25 46.5 C26.25773438 47.32886719 26.26546875 48.15773437 26.2734375 49.01171875 C26.25830386 53.77125005 25.72045222 57.50548528 24 62 C23.47665923 67.04903924 23.47665923 67.04903924 25.6875 71.4375 C28.43577831 73.2944448 29.74695791 73.41705668 33 73 C33.99 72.67 34.98 72.34 36 72 C36.99748754 69.57570146 36.99748754 69.57570146 37.625 66.6875 C37.86476563 65.72199219 38.10453125 64.75648437 38.3515625 63.76171875 C38.56554687 62.85035156 38.77953125 61.93898438 39 61 C39.18175781 60.37222656 39.36351562 59.74445313 39.55078125 59.09765625 C40.21410076 56.00024256 40.35779241 52.90834564 40.5625 49.75 C40.64628906 48.48671875 40.73007812 47.2234375 40.81640625 45.921875 C40.87699219 44.95765625 40.93757812 43.9934375 41 43 C55.07679 43.95978114 67.39740493 52.57483435 76.89453125 62.4921875 C86.32856259 73.72901147 89.67772846 85.82075291 89.3515625 100.3203125 C87.92249474 115.27788842 79.57684879 127.64474137 68.39453125 137.234375 C60.80264736 143.06248788 52.49192566 147.36048557 43 149 C43.64100393 144.84280944 44.52383918 140.82436034 45.5625 136.75 C47.11942418 130.11218665 48.19346465 123.58039394 46 117 C44.14375 116.6596875 44.14375 116.6596875 42.25 116.3125 C41.20585937 116.12107422 41.20585937 116.12107422 40.140625 115.92578125 C37.93540767 115.87704165 37.93540767 115.87704165 35.8125 116.90625 C32.93558259 120.22958562 33.14044996 123.92111995 32.75 128.1875 C30.79069869 144.06815274 23.88400518 156.35323372 12 167 C5.0635996 172.38614473 -4.97166761 179 -14 179 C-14.45890625 177.91460937 -14.9178125 176.82921875 -15.390625 175.7109375 C-16.01010239 174.26549027 -16.62991175 172.82018528 -17.25 171.375 C-17.55035156 170.66214844 -17.85070312 169.94929687 -18.16015625 169.21484375 C-21.22057468 161.47148752 -21.22057468 161.47148752 -27 156 C-28.3972409 156.10813677 -29.79301206 156.23579122 -31.1875 156.375 C-34.13089559 156.4221698 -35.53682931 156.3380399 -37.9375 154.5859375 C-39.1149083 153.35071005 -40.25832433 152.08226828 -41.3671875 150.78515625 C-43.07102208 148.72917262 -43.07102208 148.72917262 -46.3125 147.1875 C-49.49555803 144.59663881 -49.37957878 143.90073032 -49.875 140 C-50.34841955 136.32041837 -50.34841955 136.32041837 -52.609375 133.56640625 C-55.40599279 132.17351716 -58.04334497 131.16500105 -61.12890625 130.6328125 C-63.62465351 130.09293548 -65.00653758 129.63101471 -67 128 C-68.30821053 125.03223097 -69.24973902 122.1407399 -70.15063477 119.03491211 C-74.34338422 104.62416235 -84.05895265 92.55147578 -97.2578125 85.27734375 C-107.73432383 80.39725941 -117.60543083 77.80967163 -129.125 77.875 C-129.81464844 77.87113281 -130.50429688 77.86726563 -131.21484375 77.86328125 C-134.93589698 77.87039607 -138.38273222 78.11327677 -142 79 C-142.4846875 78.10539062 -142.969375 77.21078125 -143.46875 76.2890625 C-147.69832748 68.60803041 -152.15073084 61.58618496 -158 55 C-158.92039063 53.95585937 -158.92039063 53.95585937 -159.859375 52.890625 C-165.19703541 47.20006142 -171.42622059 43.11956843 -178 39 C-177 36 -177 36 -175.06640625 34.71875 C-172.39921005 33.42052034 -169.72189557 32.17961533 -167 31 C-166.25621094 30.67386719 -165.51242188 30.34773438 -164.74609375 30.01171875 C-153.50885949 25.88814235 -139.03244707 26.65871216 -128 31 C-127.08347656 31.57621094 -127.08347656 31.57621094 -126.1484375 32.1640625 C-122.67994401 33.51362179 -120.5231886 33.08435916 -117 32 C-115.21803312 29.50217401 -114.01945677 27.42495122 -112.75 24.6875 C-103.66330533 6.97902972 -88.68981302 -4.15100848 -70.12890625 -11.0703125 C-47.00060957 -18.3221072 -19.66020409 -14.23556584 0 0 Z " fill="#9E9C9B" transform="translate(408,29)"/>
<path d="M0 0 C0.93312515 -0.0066568 1.86625031 -0.0133136 2.82765198 -0.02017212 C4.79694656 -0.03027629 6.76627523 -0.03498983 8.7355957 -0.03466797 C11.74032183 -0.03904272 14.74358022 -0.07539018 17.74804688 -0.11328125 C19.66535958 -0.11914964 21.58267924 -0.12311889 23.5 -0.125 C24.84087929 -0.14655655 24.84087929 -0.14655655 26.20884705 -0.16854858 C31.73892028 -0.12824544 34.95076015 0.61168561 39.31640625 4.3359375 C42.48010039 8.72428744 42.43422889 11.71285152 41.77999878 16.8092041 C40.96643556 21.2433941 39.50091007 25.41912503 38.0078125 29.6640625 C37.68103012 30.61609558 37.35424774 31.56812866 37.01756287 32.54901123 C35.9800445 35.56440583 34.92956338 38.57509915 33.87890625 41.5859375 C33.17690613 43.62211047 32.47572646 45.6585665 31.77539062 47.6953125 C26.31236372 63.53570636 26.31236372 63.53570636 24.31640625 68.3359375 C25.61674805 68.3045166 25.61674805 68.3045166 26.94335938 68.27246094 C30.19364415 68.20384188 33.44355682 68.15392299 36.69433594 68.11621094 C38.09485098 68.0962312 39.49528407 68.0690373 40.89550781 68.03417969 C55.53322831 67.6791993 55.53322831 67.6791993 62.31640625 72.3359375 C64.15625 74.15234375 64.15625 74.15234375 65.25390625 75.8984375 C65.63417969 76.47722656 66.01445312 77.05601562 66.40625 77.65234375 C68.18878794 80.94965643 68.53019947 83.84011625 68.62890625 87.5234375 C68.68498047 88.87501953 68.68498047 88.87501953 68.7421875 90.25390625 C67.63904579 98.23903296 62.22446571 104.48553944 57.37890625 110.6484375 C56.77111328 111.44572266 56.16332031 112.24300781 55.53710938 113.06445312 C49.7446662 120.49402695 49.7446662 120.49402695 45.31640625 122.3359375 C42.19140625 122.0234375 42.19140625 122.0234375 39.31640625 121.3359375 C38.32640625 121.3359375 37.33640625 121.3359375 36.31640625 121.3359375 C34.47163184 123.59328127 32.82317674 125.8079556 31.19140625 128.2109375 C30.73636719 128.86191406 30.28132813 129.51289063 29.8125 130.18359375 C27.39022695 133.65385915 27.39022695 133.65385915 25.31640625 137.3359375 C25.97640625 137.3359375 26.63640625 137.3359375 27.31640625 137.3359375 C29.32904034 140.29569351 29.61891456 142.70052541 29.0456543 146.21557617 C27.40209609 150.99438537 23.81386022 154.81482738 20.69140625 158.7109375 C19.99144531 159.60554687 19.29148437 160.50015625 18.5703125 161.421875 C17.17427245 163.20383335 15.77035946 164.97965364 14.35839844 166.74902344 C13.01773672 168.44745141 11.69968167 170.16402038 10.40722656 171.89941406 C3.74363722 180.82392857 3.74363722 180.82392857 -2.5859375 181.76953125 C-13.00254119 181.78293743 -13.00254119 181.78293743 -17.68359375 177.3359375 C-21.36843639 172.95396247 -22.59535216 168.98521089 -22.68359375 163.3359375 C-22.23959326 159.94437186 -21.4388518 156.67894502 -20.59375 153.3671875 C-20.3703746 152.44627319 -20.14699921 151.52535889 -19.91685486 150.57653809 C-19.20620527 147.65965139 -18.47650069 144.74793245 -17.74609375 141.8359375 C-17.25849538 139.84926967 -16.7721541 137.86229285 -16.28710938 135.875 C-15.10045059 131.02495032 -13.89668926 126.17943935 -12.68359375 121.3359375 C-13.50037598 121.35164795 -14.3171582 121.3673584 -15.15869141 121.38354492 C-18.87525452 121.4460769 -22.59170671 121.48498694 -26.30859375 121.5234375 C-28.23638672 121.56114258 -28.23638672 121.56114258 -30.203125 121.59960938 C-32.06904297 121.61411133 -32.06904297 121.61411133 -33.97265625 121.62890625 C-35.11428223 121.6446167 -36.2559082 121.66032715 -37.43212891 121.67651367 C-41.75404921 121.22381215 -45.10597767 119.77490323 -48.328125 116.8359375 C-52.21515796 111.84389518 -53.10230003 108.6403352 -52.68359375 102.3359375 C-51.82871819 98.8915012 -50.66994815 95.57242772 -49.4921875 92.2265625 C-49.15536957 91.24228775 -48.81855164 90.258013 -48.4715271 89.24391174 C-47.36548 86.02076207 -46.24395108 82.8032659 -45.12109375 79.5859375 C-44.3485164 77.35269491 -43.57663255 75.11921229 -42.80541992 72.88549805 C-41.22088139 68.30057765 -39.62995038 63.71793241 -38.03613281 59.13623047 C-36.14602615 53.6904709 -34.29053868 48.23390785 -32.45365906 42.76998901 C-31.12628909 38.82466783 -29.78618392 34.88374258 -28.44387817 30.94348145 C-27.81664835 29.09376238 -27.19455647 27.24229237 -26.57785034 25.38903809 C-25.71798768 22.8099488 -24.83803959 20.23855145 -23.953125 17.66796875 C-23.70992523 16.92221085 -23.46672546 16.17645294 -23.21615601 15.40809631 C-21.09590461 9.35794195 -17.94060915 4.36855053 -12.41381836 0.91943359 C-8.27596472 0.0351029 -4.22104824 0.01048566 0 0 Z " fill="#020100" transform="translate(330.68359375,330.6640625)"/>
<path d="M0 0 C3.68335027 1.35056177 5.89412012 1.97480354 9.75 1.375 C12.59920053 -0.50269142 12.59920053 -0.50269142 14.75 -2.625 C14.75 -1.635 14.75 -0.645 14.75 0.375 C15.32621094 0.63410156 15.90242188 0.89320313 16.49609375 1.16015625 C18.92809787 2.47099382 20.75712421 3.97097834 22.8125 5.8125 C23.48410156 6.40933594 24.15570313 7.00617188 24.84765625 7.62109375 C26.5254479 9.16796942 28.15159243 10.74671566 29.75 12.375 C29.09 13.035 28.43 13.695 27.75 14.375 C27.10154618 19.57771092 28.65760924 22.72812878 31.125 27.25 C37.56682697 39.59162319 38.72218184 51.73022634 34.859375 65.359375 C28.81589742 81.78741968 18.81775703 92.20646417 3.125 99.75 C-13.49696586 106.90424963 -29.57137919 105.73741666 -46.25 99.375 C-44.28571228 94.13689941 -41.70641802 89.23506726 -39.171875 84.2578125 C-35.80230443 77.5941095 -33.05619548 72.02419194 -34.25 64.375 C-35.7892464 62.15749092 -35.7892464 62.15749092 -38.25 61.375 C-41.39484365 61.06818599 -43.22827058 61.36775686 -46.25 62.375 C-47.06792838 64.53502978 -47.06792838 64.53502978 -47.5625 67.1875 C-51.8482396 84.30825251 -63.27682583 98.57037463 -78.21875 107.69921875 C-83.41887139 110.57402813 -88.79988936 113.00953068 -94.25 115.375 C-94.58 114.385 -94.91 113.395 -95.25 112.375 C-94.71632812 111.83875 -94.18265625 111.3025 -93.6328125 110.75 C-80.46419255 96.89788767 -70.81479409 79.06163352 -64.9375 60.9375 C-64.59187012 59.88502075 -64.59187012 59.88502075 -64.23925781 58.8112793 C-59.89731971 44.56290018 -58.81568259 30.60446922 -59.0625 15.8125 C-59.07760756 14.20378888 -59.09128499 12.59506369 -59.10351562 10.98632812 C-59.13596425 7.11552522 -59.1873925 3.24542766 -59.25 -0.625 C-58.26 0.035 -57.27 0.695 -56.25 1.375 C-50.21249223 1.87812565 -46.81204455 0.91207295 -41.25 -1.625 C-28.32691986 -5.65022168 -12.55073955 -4.95918735 0 0 Z " fill="#6C6C6C" transform="translate(344.25,173.625)"/>
<path d="M0 0 C0.9178125 0.20496094 1.835625 0.40992188 2.78125 0.62109375 C4.0084375 0.89050781 5.235625 1.15992188 6.5 1.4375 C7.7065625 1.70433594 8.913125 1.97117187 10.15625 2.24609375 C17.42859001 3.67247751 24.61272346 4.21639872 32 4.5625 C32.87011719 4.60568359 33.74023438 4.64886719 34.63671875 4.69335938 C36.75768219 4.79824218 38.87882433 4.89950075 41 5 C39.94722889 8.25322334 38.88173825 11.50215297 37.8125 14.75 C37.470979 15.78954834 37.12945801 16.82909668 36.77758789 17.90014648 C34.49045117 24.77243599 32.06938536 31.57747564 29.5390625 38.36328125 C28.93899599 39.98272878 28.3389798 41.60219496 27.73901367 43.22167969 C26.84393841 45.63569171 25.9434431 48.04693035 25.02529907 50.45227051 C24.15794443 52.72496263 23.30998368 55.0041274 22.46484375 57.28515625 C22.20067657 57.96040848 21.9365094 58.63566071 21.66433716 59.33137512 C19.99052807 63.91932655 19.82600806 67.26393037 21 72 C23.53476447 74.53476447 24.41062896 74.25048395 27.92114258 74.25537109 C29.45832695 74.26580948 29.45832695 74.26580948 31.02656555 74.27645874 C32.69370857 74.27496323 32.69370857 74.27496323 34.39453125 74.2734375 C36.7350308 74.2937295 39.07552555 74.31458034 41.41601562 74.3359375 C45.1160078 74.35853887 48.81581112 74.37500524 52.51586914 74.38085938 C56.07993979 74.39037435 59.64315244 74.42414709 63.20703125 74.4609375 C64.31238724 74.45589203 65.41774323 74.45084656 66.55659485 74.44564819 C74.21272105 74.5438309 74.21272105 74.5438309 78.20141602 76.85498047 C80 79 80 79 80.5703125 81.859375 C79.86763741 85.72890085 78.22482778 88.20556904 75.875 91.25 C75.43486572 91.84280762 74.99473145 92.43561523 74.54125977 93.04638672 C73.04600316 95.04571728 71.52649477 97.0244269 70 99 C69.15719482 100.09393066 69.15719482 100.09393066 68.29736328 101.20996094 C65.31319978 105.07473795 62.31222223 108.92598158 59.30078125 112.76953125 C55.97769039 117.01637954 52.73672359 121.31990815 49.515625 125.64453125 C46.1704869 130.12292593 42.7674167 134.55739651 39.375 139 C34.004147 146.03493696 28.67156298 153.09649203 23.375 160.1875 C18.38811232 166.85539816 13.352617 173.48266938 8.25 180.0625 C7.66524902 180.81877686 7.08049805 181.57505371 6.47802734 182.35424805 C5.93355957 183.05332275 5.3890918 183.75239746 4.828125 184.47265625 C4.3527832 185.08375244 3.87744141 185.69484863 3.38769531 186.32446289 C2.0099957 187.98793094 0.55190541 189.49934755 -1 191 C0.07366089 184.19096561 1.67794617 177.52001155 3.25 170.8125 C3.40651031 170.14182495 3.56302063 169.4711499 3.72427368 168.78015137 C5.6023591 160.74035865 7.54071475 152.72303862 9.6875 144.75 C11.33056258 138.62628495 12.88994156 132.49155919 14.3125 126.3125 C14.48418701 125.59352539 14.65587402 124.87455078 14.83276367 124.13378906 C15.91419773 119.32064592 16.47802274 114.93256434 16 110 C13.17140859 107.19810716 11.05614153 106.61915976 7.13964844 106.56762695 C6.17895447 106.54783279 5.2182605 106.52803864 4.22845459 106.50764465 C3.19915833 106.50125473 2.16986206 106.49486481 1.109375 106.48828125 C-0.48025055 106.46135445 -0.48025055 106.46135445 -2.10198975 106.43388367 C-5.48461944 106.3797298 -8.8671076 106.34586801 -12.25 106.3125 C-14.54429055 106.27933148 -16.83856241 106.24484227 -19.1328125 106.20898438 C-24.75508143 106.12400045 -30.37736856 106.05567198 -36 106 C-35.71517632 104.58194169 -35.42181856 103.16559621 -35.125 101.75 C-34.96257812 100.96109375 -34.80015625 100.1721875 -34.6328125 99.359375 C-34 97 -34 97 -32.921875 94.921875 C-31.40049864 91.75019208 -32.16939075 89.32243698 -33 86 C-34.98166946 83.79906877 -34.98166946 83.79906877 -37 82 C-36.23165985 79.04415024 -35.41452016 76.1192544 -34.5625 73.1875 C-34.35173828 72.35412109 -34.14097656 71.52074219 -33.92382812 70.66210938 C-33.16981362 68.15878121 -32.47311253 66.16588261 -31 64 C-28.7712173 63.04882364 -26.59936036 62.56756036 -24.24353027 62.01867676 C-21.86213358 61.19266649 -21.86213358 61.19266649 -20.80825806 59.02511597 C-20.52171356 58.20842438 -20.23516907 57.39173279 -19.93994141 56.55029297 C-19.45124825 55.1955764 -19.45124825 55.1955764 -18.9526825 53.81349182 C-18.63829727 52.88503952 -18.32391205 51.95658722 -18 51 C-17.70249344 50.15924423 -17.40498688 49.31848846 -17.09846497 48.45225525 C-16.18844631 45.85659932 -15.3080358 43.25237505 -14.43359375 40.64453125 C-14.11342789 39.69865646 -13.79326202 38.75278168 -13.46339417 37.77824402 C-12.10991666 33.77940733 -10.76284127 29.77842246 -9.4152832 25.77758789 C-8.42367133 22.83662499 -7.42871475 19.89680827 -6.43359375 16.95703125 C-6.13351913 16.0620845 -5.83344452 15.16713776 -5.52427673 14.24507141 C-3.8804729 9.39044435 -2.09057892 4.68027611 0 0 Z " fill="#FDCD56" transform="translate(133,263)"/>
<path d="M0 0 C2.28035313 0.00315939 4.55940664 -0.02032155 6.83959961 -0.0456543 C8.30118653 -0.04792775 9.76277691 -0.04863057 11.22436523 -0.04760742 C12.54364014 -0.05058838 13.86291504 -0.05356934 15.22216797 -0.05664062 C20.08770482 0.4422462 23.5190828 1.75912037 26.72827148 5.50317383 C29.39647832 12.17369092 27.56238619 18.3125074 25.22827148 24.75317383 C24.96191895 25.51871582 24.69556641 26.28425781 24.42114258 27.07299805 C23.57673312 29.49146193 22.7153608 31.90346306 21.85327148 34.31567383 C21.27400978 35.96501463 20.69587358 37.61475118 20.11889648 39.26489258 C18.70998888 43.28651081 17.28584749 47.30242898 15.85327148 51.31567383 C16.44422607 51.33208923 17.03518066 51.34850464 17.64404297 51.36541748 C19.27353606 51.41068118 20.90301148 51.45658459 22.5324707 51.50305176 C24.23423531 51.5489704 25.93629493 51.58428117 27.63842773 51.61352539 C34.77236262 51.90414452 40.35457229 53.624767 45.29077148 58.94067383 C47.64601216 62.52063965 48.08719961 64.65425929 48.22827148 68.94067383 C48.30174805 70.44500977 48.30174805 70.44500977 48.37670898 71.97973633 C47.11008764 80.05208432 40.34778186 86.77206694 35.47827148 93.06567383 C34.04916842 94.92579978 32.62080111 96.78649118 31.19311523 98.64770508 C30.4710791 99.5882373 29.74904297 100.52876953 29.00512695 101.49780273 C25.65010535 105.89122903 22.34656537 110.32266676 19.04077148 114.75317383 C14.63224627 120.64657284 10.19872768 126.51723832 5.66577148 132.31567383 C5.01547974 133.15183228 5.01547974 133.15183228 4.35205078 134.00488281 C-1.85398319 141.88475872 -1.85398319 141.88475872 -6.14672852 143.31567383 C-11.11139452 143.83692103 -15.02555675 143.8456823 -19.58422852 141.69067383 C-23.66058303 137.91258915 -25.01602505 135.04661166 -25.43579102 129.48754883 C-25.35079186 122.85289243 -23.39696174 116.60875045 -21.64672852 110.25317383 C-21.31286133 109.00600586 -20.97899414 107.75883789 -20.63500977 106.47387695 C-19.81550936 103.41831116 -18.98588064 100.36588977 -18.14672852 97.31567383 C-19.42547852 97.36208008 -20.70422852 97.40848633 -22.02172852 97.45629883 C-23.73003831 97.4938441 -25.4383736 97.53024128 -27.14672852 97.56567383 C-27.9859082 97.59918945 -28.82508789 97.63270508 -29.68969727 97.66723633 C-35.70877679 97.76055539 -40.11628367 96.7047511 -45.14672852 93.31567383 C-48.60232417 89.64410344 -48.48079107 86.01346234 -48.42364502 81.21026611 C-47.9090581 75.8313187 -46.0236073 70.92781048 -44.20141602 65.87036133 C-43.7939212 64.70167511 -43.38642639 63.53298889 -42.96658325 62.32888794 C-41.66608152 58.61088892 -40.34412994 54.90093232 -39.02172852 51.19067383 C-38.15576159 48.72240881 -37.2911657 46.25366233 -36.42797852 43.78442383 C-34.38796975 37.96422956 -32.32118183 32.15418451 -30.23547363 26.35021973 C-29.25976486 23.63072826 -28.29473443 20.90769224 -27.33129883 18.18383789 C-26.81504132 16.75086181 -26.29788307 15.3182097 -25.77954102 13.88598633 C-25.35817871 12.71052246 -24.93681641 11.53505859 -24.50268555 10.32397461 C-22.66200122 6.24026695 -20.81688306 3.26272026 -16.86523438 1.02197266 C-11.3760356 -0.40418379 -5.63858871 -0.01637538 0 0 Z " fill="#020100" transform="translate(464.146728515625,212.684326171875)"/>
<path d="M0 0 C18.95562102 0.06393127 34.68369997 8.93113122 48 22 C48.639375 22.61488281 49.27875 23.22976562 49.9375 23.86328125 C59.10906066 33.42381435 64.37244003 46.37850964 64.25 59.5 C64.26160156 60.74330078 64.26160156 60.74330078 64.2734375 62.01171875 C64.25830386 66.77125005 63.72045222 70.50548528 62 75 C61.47665923 80.04903924 61.47665923 80.04903924 63.6875 84.4375 C66.43577831 86.2944448 67.74695791 86.41705668 71 86 C71.99 85.67 72.98 85.34 74 85 C74.99748754 82.57570146 74.99748754 82.57570146 75.625 79.6875 C75.86476563 78.72199219 76.10453125 77.75648437 76.3515625 76.76171875 C76.56554687 75.85035156 76.77953125 74.93898438 77 74 C77.18175781 73.37222656 77.36351562 72.74445313 77.55078125 72.09765625 C78.21410076 69.00024256 78.35779241 65.90834564 78.5625 62.75 C78.68818359 60.85507813 78.68818359 60.85507813 78.81640625 58.921875 C78.87699219 57.95765625 78.93757813 56.9934375 79 56 C93.07679 56.95978114 105.39740493 65.57483435 114.89453125 75.4921875 C124.32856259 86.72901147 127.67772846 98.82075291 127.3515625 113.3203125 C125.92249474 128.27788842 117.57684879 140.64474137 106.39453125 150.234375 C98.80264736 156.06248788 90.49192566 160.36048557 81 162 C81.64100393 157.84280944 82.52383918 153.82436034 83.5625 149.75 C85.11942418 143.11218665 86.19346465 136.58039394 84 130 C82.14375 129.6596875 82.14375 129.6596875 80.25 129.3125 C79.55390625 129.18488281 78.8578125 129.05726563 78.140625 128.92578125 C75.93540767 128.87704165 75.93540767 128.87704165 73.8125 129.90625 C70.93558259 133.22958562 71.14044996 136.92111995 70.75 141.1875 C68.79069869 157.06815274 61.88400518 169.35323372 50 180 C43.0635996 185.38614473 33.02833239 192 24 192 C23.67 191.01 23.34 190.02 23 189 C23.46148437 188.64550781 23.92296875 188.29101562 24.3984375 187.92578125 C44.47317989 171.54066543 57.93331129 143.74528385 60.81030273 118.33544922 C63.6223264 83.7153483 54.76205637 54.88729472 32.625 28.25 C23.87156391 18.07746258 14.16853967 10.08588854 2.859375 2.8984375 C1.91578125 2.27195312 0.9721875 1.64546875 0 1 C0 0.67 0 0.34 0 0 Z " fill="#807F7E" transform="translate(370,16)"/>
<path d="M0 0 C10.56 0 21.12 0 32 0 C30.42465218 4.74932447 28.84841333 9.49833248 27.26965332 14.246521 C26.71628052 15.91130698 26.16329998 17.5762234 25.61071777 19.24127197 C22.17013827 29.60493159 18.72548521 39.96376889 14.88061523 50.18652344 C13.11094714 55.04680847 11.77334105 59.23749598 13.95019531 64.13989258 C17.26067896 67.1440106 20.84128736 66.54439952 25.15625 66.50390625 C26.05492798 66.51332748 26.95360596 66.52274872 27.8795166 66.53245544 C30.75324245 66.56116463 33.6261421 66.56418118 36.5 66.5625 C39.37373733 66.56610238 42.24687241 66.57557737 45.1204834 66.60325623 C46.90889843 66.62010103 48.69751217 66.62287627 50.48596191 66.61024475 C51.29690308 66.61712814 52.10784424 66.62401154 52.94335938 66.63110352 C53.65600952 66.63014175 54.36865967 66.62917999 55.10290527 66.62818909 C57.57156052 67.11201994 58.47809415 68.03275573 60 70 C60.12855298 75.21557815 56.30136492 78.74340917 53.125 82.5 C46.2278426 89.91816132 46.2278426 89.91816132 44.15234375 99.28515625 C44.338517 104.93475318 41.95113155 108.11237391 38.5625 112.4375 C37.81709961 113.49614258 37.81709961 113.49614258 37.05664062 114.57617188 C34.17678083 118.36889289 32.28890689 120.27018483 27.5 120.9765625 C23.64632383 121.56271774 22.05020249 122.51620017 19.55859375 125.52734375 C18.4935645 126.97962619 17.45384773 128.45074215 16.4375 129.9375 C15.88666748 130.69861084 15.33583496 131.45972168 14.76831055 132.24389648 C13.15525421 134.48024895 11.57483008 136.73663003 10 139 C8.44582961 141.1936527 6.88051894 143.37867726 5.3125 145.5625 C4.71050781 146.43003906 4.10851562 147.29757812 3.48828125 148.19140625 C2.99714844 148.78824219 2.50601563 149.38507813 2 150 C1.34 150 0.68 150 0 150 C0.61825087 145.3090495 1.44633762 140.7471792 2.5234375 136.140625 C2.97203125 134.21863281 2.97203125 134.21863281 3.4296875 132.2578125 C3.5853418 131.59813477 3.74099609 130.93845703 3.90136719 130.25878906 C4.3703433 128.26975019 4.83397707 126.27952362 5.296875 124.2890625 C6.861219 117.60055289 8.50529525 110.95396901 10.4284668 104.35839844 C11.31700697 100.6918892 11.97600652 96.68884356 11 93 C8.44046153 90.2963912 6.90493852 89.98932577 3.14941406 89.56762695 C1.60514295 89.52634544 0.06039708 89.50079699 -1.484375 89.48828125 C-2.70776581 89.46135445 -2.70776581 89.46135445 -3.95587158 89.43388367 C-6.55386223 89.3798198 -9.15166958 89.34589818 -11.75 89.3125 C-13.5143484 89.27932339 -15.27867263 89.24483341 -17.04296875 89.20898438 C-21.36184683 89.1240958 -25.68067092 89.05726623 -30 89 C-27.37052043 78.26568286 -23.64934393 67.87863013 -20.0625 57.4375 C-19.39565065 55.48864143 -18.72890369 53.53974783 -18.06225586 51.59082031 C-12.15650304 34.35256534 -6.10004478 17.17049641 0 0 Z " fill="#FCCD56" transform="translate(324,347)"/>
<path d="M0 0 C6.93 0 13.86 0 21 0 C19.32904029 5.035874 17.65715828 10.07142223 15.98291016 15.10620117 C15.41400545 16.81793409 14.84564017 18.52984638 14.27783203 20.24194336 C13.46008877 22.7073462 12.64038744 25.17209067 11.8203125 27.63671875 C11.56814972 28.39836838 11.31598694 29.16001801 11.05618286 29.94474792 C10.05529145 32.94773703 9.04156102 35.89909473 7.83544922 38.82739258 C6.33555358 42.7279102 6.70041191 46.10123573 8 50 C11.47517129 51.15839043 14.6727002 51.22801218 18.29296875 51.31640625 C19.35201164 51.3475779 19.35201164 51.3475779 20.43244934 51.37937927 C22.68403551 51.44467491 24.93573662 51.50366647 27.1875 51.5625 C28.7155066 51.60570425 30.24350164 51.64931916 31.77148438 51.69335938 C35.51420562 51.80033574 39.2570423 51.90165922 43 52 C42.39819756 55.16479329 41.40721706 57.0829941 39.40234375 59.58984375 C38.85602295 60.28126465 38.30970215 60.97268555 37.74682617 61.68505859 C37.14974854 62.42836426 36.5526709 63.17166992 35.9375 63.9375 C34.66040195 65.55255064 33.38440496 67.16847242 32.109375 68.78515625 C31.43841797 69.63352051 30.76746094 70.48188477 30.07617188 71.35595703 C26.56599991 75.82622542 23.12666875 80.35001385 19.6875 84.875 C19.01452881 85.75945801 18.34155762 86.64391602 17.64819336 87.55517578 C12.73713826 94.01565635 7.84969894 100.49332059 3 107 C1.52556258 103.12487602 2.52985639 100.4887881 3.75 96.625 C5.24595547 91.62631953 6.64243042 86.65094213 7.8125 81.5625 C8.06644531 80.47066406 8.32039063 79.37882812 8.58203125 78.25390625 C9.05722591 74.55449365 8.85947895 71.62744193 8 68 C4.51321064 65.67547376 2.93032429 65.70226266 -1.19921875 65.5859375 C-3.01196289 65.52792969 -3.01196289 65.52792969 -4.86132812 65.46875 C-6.12396484 65.4378125 -7.38660156 65.406875 -8.6875 65.375 C-9.96173828 65.33632813 -11.23597656 65.29765625 -12.54882812 65.2578125 C-15.69907292 65.16342314 -18.84930991 65.0778417 -22 65 C-19.79703371 57.43081343 -17.34588233 49.96168541 -14.8046875 42.5 C-14.41177521 41.34250244 -14.01886292 40.18500488 -13.61404419 38.99243164 C-12.78961918 36.56513679 -11.96431933 34.13813892 -11.13818359 31.71142578 C-9.86963024 27.98422282 -8.60455034 24.25585351 -7.33984375 20.52734375 C-6.53666367 18.16399271 -5.73328537 15.80070902 -4.9296875 13.4375 C-4.55053192 12.31988281 -4.17137634 11.20226562 -3.7807312 10.05078125 C-3.43011627 9.02210938 -3.07950134 7.9934375 -2.71826172 6.93359375 C-2.40976288 6.02665771 -2.10126404 5.11972168 -1.78341675 4.18530273 C-1 2 -1 2 0 0 Z " fill="#FCCC55" transform="translate(454,229)"/>
<path d="M0 0 C6.886672 -0.10148186 13.77315092 -0.1714999 20.66040039 -0.21972656 C23.00292161 -0.23983265 25.3453927 -0.26712166 27.68774414 -0.30175781 C31.05627823 -0.35031841 34.42414831 -0.37297922 37.79296875 -0.390625 C38.83897751 -0.41127014 39.88498627 -0.43191528 40.96269226 -0.45318604 C48.21909644 -0.45542165 48.21909644 -0.45542165 52.16479492 1.84570312 C54 4 54 4 54.5703125 6.859375 C53.86763741 10.72890085 52.22482778 13.20556904 49.875 16.25 C49.43486572 16.84280762 48.99473145 17.43561523 48.54125977 18.04638672 C47.04600316 20.04571728 45.52649477 22.0244269 44 24 C43.43812988 24.72928711 42.87625977 25.45857422 42.29736328 26.20996094 C39.31319978 30.07473795 36.31222223 33.92598158 33.30078125 37.76953125 C29.97769039 42.01637954 26.73672359 46.31990815 23.515625 50.64453125 C20.1704869 55.12292593 16.7674167 59.55739651 13.375 64 C8.004147 71.03493696 2.67156298 78.09649203 -2.625 85.1875 C-7.61188768 91.85539816 -12.647383 98.48266938 -17.75 105.0625 C-18.33475098 105.81877686 -18.91950195 106.57505371 -19.52197266 107.35424805 C-20.06644043 108.05332275 -20.6109082 108.75239746 -21.171875 109.47265625 C-21.8848877 110.38930054 -21.8848877 110.38930054 -22.61230469 111.32446289 C-23.9900043 112.98793094 -25.44809459 114.49934755 -27 116 C-25.98736479 109.56126128 -24.51519135 103.24015381 -23.04370117 96.89477539 C-22.56177952 94.80938229 -22.08849019 92.72213994 -21.61523438 90.63476562 C-21.30782308 89.30456458 -20.99989824 87.97448208 -20.69140625 86.64453125 C-20.27677124 84.84012573 -20.27677124 84.84012573 -19.85375977 82.99926758 C-18.8439038 79.4516323 -17.48057043 77.46408877 -14.8359375 74.91015625 C-10.98008264 71.12612338 -7.86370514 66.74645785 -4.625 62.4375 C-3.92600586 61.51364502 -3.22701172 60.58979004 -2.50683594 59.63793945 C-0.33326047 56.76208302 1.83425211 53.88175459 4 51 C4.66483398 50.11634766 5.32966797 49.23269531 6.01464844 48.32226562 C9.16018054 44.13979695 12.30011394 39.95322407 15.43359375 35.76171875 C17.79020976 32.61036272 20.15748565 29.46753044 22.53515625 26.33203125 C23.08913086 25.59960205 23.64310547 24.86717285 24.21386719 24.11254883 C25.24710364 22.74715557 26.28274791 21.38357956 27.32128906 20.0222168 C31.65311392 14.286899 33.40444875 11.2800775 33 4 C32.505 3.01 32.505 3.01 32 2 C21.44 1.67 10.88 1.34 0 1 C0 0.67 0 0.34 0 0 Z " fill="#FAB647" transform="translate(159,338)"/>
<path d="M0 0 C7.74247965 5.69058575 14.0577972 13.47645209 17.2109375 22.625 C17.2109375 23.615 17.2109375 24.605 17.2109375 25.625 C15.756875 25.64626953 15.756875 25.64626953 14.2734375 25.66796875 C1.94165783 26.0373324 -9.94694818 28.42496395 -20.7890625 34.625 C-21.4490625 35.615 -22.1090625 36.605 -22.7890625 37.625 C-23.4490625 37.625 -24.1090625 37.625 -24.7890625 37.625 C-25.02238281 36.52027344 -25.25570313 35.41554687 -25.49609375 34.27734375 C-28.48068054 21.21711047 -33.0869733 3.3270892 -42.7890625 -6.375 C-27.5836723 -10.49849565 -13.32354259 -8.62365216 0 0 Z " fill="#6B6B6B" transform="translate(307.7890625,129.375)"/>
<path d="M0 0 C7.59 0.33 15.18 0.66 23 1 C16.08668513 22.15474352 8.57527585 43.07537633 1 64 C-1.79192205 64.05380578 -4.5828141 64.09357669 -7.375 64.125 C-8.56609375 64.15013672 -8.56609375 64.15013672 -9.78125 64.17578125 C-11.85492015 64.19335473 -13.92883241 64.10335168 -16 64 C-16.66 63.34 -17.32 62.68 -18 62 C-16.90326957 54.5640121 -14.19143715 47.70261028 -11.54629517 40.69512939 C-10.29858091 37.38771366 -9.07055144 34.07303212 -7.84375 30.7578125 C-7.47791557 29.77009354 -7.47791557 29.77009354 -7.10469055 28.76242065 C-3.84368962 19.91791974 -0.90030785 10.96818741 2 2 C1.34 1.34 0.68 0.68 0 0 Z " fill="#FDB847" transform="translate(151,267)"/>
<path d="M0 0 C5.35682133 -0.0741205 10.71334462 -0.12858776 16.07055664 -0.16479492 C17.89320067 -0.1798876 19.71580836 -0.20036395 21.53833008 -0.22631836 C24.157155 -0.26268103 26.77550007 -0.27972124 29.39453125 -0.29296875 C30.21025101 -0.30845261 31.02597076 -0.32393646 31.8664093 -0.33988953 C37.5711315 -0.34158913 37.5711315 -0.34158913 39.73588562 1.38261414 C41 3 41 3 41.0546875 5.21875 C39.51367982 9.28244434 36.91133744 12.20468288 34.125 15.5 C27.2278426 22.91816132 27.2278426 22.91816132 25.15234375 32.28515625 C25.338517 37.93475318 22.95113155 41.11237391 19.5625 45.4375 C19.06556641 46.14326172 18.56863281 46.84902344 18.05664062 47.57617188 C15.17678083 51.36889289 13.28890689 53.27018483 8.5 53.9765625 C4.64632383 54.56271774 3.05020249 55.51620017 0.55859375 58.52734375 C-0.5064355 59.97962619 -1.54615227 61.45074215 -2.5625 62.9375 C-3.11333252 63.69861084 -3.66416504 64.45972168 -4.23168945 65.24389648 C-5.84474579 67.48024895 -7.42516992 69.73663003 -9 72 C-10.55417039 74.1936527 -12.11948106 76.37867726 -13.6875 78.5625 C-14.28949219 79.43003906 -14.89148438 80.29757812 -15.51171875 81.19140625 C-16.00285156 81.78824219 -16.49398438 82.38507813 -17 83 C-17.66 83 -18.32 83 -19 83 C-18.19589975 76.06845225 -16.53301504 69.34806628 -14.9375 62.5625 C-14.65583984 61.35400391 -14.37417969 60.14550781 -14.08398438 58.90039062 C-13.39197558 55.93296307 -12.6972374 52.96620257 -12 50 C-11.34 50.66 -10.68 51.32 -10 52 C-3.26268836 43.96966896 3.07571234 35.69141436 9.31298828 27.27099609 C11.13649689 24.81625267 12.97228155 22.37095887 14.80859375 19.92578125 C16.08107317 18.22161097 17.35321457 16.51718825 18.625 14.8125 C19.22916748 14.01070313 19.83333496 13.20890625 20.45581055 12.3828125 C21.01953369 11.62355469 21.58325684 10.86429687 22.1640625 10.08203125 C22.91357178 9.08006714 22.91357178 9.08006714 23.67822266 8.05786133 C25.33365983 5.62330656 25.33365983 5.62330656 27 1 C18.09 1 9.18 1 0 1 C0 0.67 0 0.34 0 0 Z " fill="#FAB647" transform="translate(343,414)"/>
<path d="M0 0 C4.29 0 8.58 0 13 0 C1.17584747 35.66190049 1.17584747 35.66190049 -3.1875 48.1875 C-3.46601807 48.99219727 -3.74453613 49.79689453 -4.03149414 50.62597656 C-5.87651921 55.87651921 -5.87651921 55.87651921 -7 57 C-8.85287502 57.07226502 -10.70833878 57.0838122 -12.5625 57.0625 C-13.57441406 57.05347656 -14.58632813 57.04445313 -15.62890625 57.03515625 C-16.80259766 57.01775391 -16.80259766 57.01775391 -18 57 C-19.25897179 53.44424227 -18.73251379 51.40330937 -17.47705078 47.89599609 C-17.11982941 46.88169525 -16.76260803 45.86739441 -16.39456177 44.82235718 C-15.99880951 43.73371368 -15.60305725 42.64507019 -15.1953125 41.5234375 C-14.79674042 40.40184235 -14.39816833 39.28024719 -13.98751831 38.12466431 C-12.71000088 34.53778484 -11.41754222 30.95648907 -10.125 27.375 C-9.2607668 24.95346453 -8.39747382 22.53159329 -7.53515625 20.109375 C-5.95625302 15.68597367 -4.37512813 11.26342088 -2.78173828 6.84521484 C-2.46117462 5.95571136 -2.14061096 5.06620789 -1.81033325 4.14974976 C-1 2 -1 2 0 0 Z " fill="#FDB847" transform="translate(343,347)"/>
<path d="M0 0 C2.79078445 -0.00356422 5.22464877 0.22218297 7.93359375 0.87109375 C7.33179131 4.03588704 6.34081081 5.95408785 4.3359375 8.4609375 C3.7896167 9.1523584 3.2432959 9.8437793 2.68041992 10.55615234 C1.78480347 11.67111084 1.78480347 11.67111084 0.87109375 12.80859375 C-0.4060043 14.42364439 -1.68200129 16.03956617 -2.95703125 17.65625 C-3.62798828 18.50461426 -4.29894531 19.35297852 -4.99023438 20.22705078 C-8.50040634 24.69731917 -11.9397375 29.2211076 -15.37890625 33.74609375 C-16.05187744 34.63055176 -16.72484863 35.51500977 -17.41821289 36.42626953 C-22.32926799 42.8867501 -27.21670731 49.36441434 -32.06640625 55.87109375 C-33.58697701 51.93891712 -32.48358215 49.1654141 -31.25390625 45.24609375 C-29.51324839 39.48806983 -28.10355719 33.79377148 -27.06640625 27.87109375 C-26.40640625 28.53109375 -25.74640625 29.19109375 -25.06640625 29.87109375 C-23.26961258 27.66677987 -21.47920135 25.4576905 -19.69140625 23.24609375 C-19.14556885 22.57763428 -18.59973145 21.9091748 -18.03735352 21.22045898 C-15.30509815 17.83386165 -12.73217208 14.45299343 -10.4296875 10.7578125 C-4.46208901 1.26757433 -4.46208901 1.26757433 0 0 Z " fill="#F8B446" transform="translate(489.06640625,280.12890625)"/>
<path d="M0 0 C1.23556641 0.01740234 1.23556641 0.01740234 2.49609375 0.03515625 C3.32238281 0.04417969 4.14867187 0.05320313 5 0.0625 C5.63808594 0.07410156 6.27617187 0.08570313 6.93359375 0.09765625 C5.26317083 5.13370307 3.59075128 10.16908076 1.91650391 15.20385742 C1.3475992 16.91559034 0.77923392 18.62750263 0.21142578 20.33959961 C-0.60631748 22.80500245 -1.42601881 25.26974692 -2.24609375 27.734375 C-2.49825653 28.49602463 -2.75041931 29.25767426 -3.01022339 30.04240417 C-4.25522906 33.77781285 -5.5511908 37.46051044 -7.06640625 41.09765625 C-10.03640625 41.09765625 -13.00640625 41.09765625 -16.06640625 41.09765625 C-14.59327624 33.19391681 -11.98615943 25.77131691 -9.27075195 18.22900391 C-8.49639017 16.07676628 -7.73102934 13.92147772 -6.96679688 11.765625 C-2.81569789 0.13306701 -2.81569789 0.13306701 0 0 Z " fill="#FDB747" transform="translate(468.06640625,228.90234375)"/>
</svg>
